<?xml version="1.0" encoding="UTF-8" standalone="no"?>
<!DOCTYPE svg PUBLIC "-//W3C//DTD SVG 1.1//EN" "http://www.w3.org/Graphics/SVG/1.1/DTD/svg11.dtd">
<svg xmlns="http://www.w3.org/2000/svg" version="1.1" viewBox="0.00 0.00 1448.00 1448.00">
<path fill="#000000" d="
  M 720.5153 1407.6789
  A 690.59 690.48 89.9 0 1 28.8311 718.2951
  A 690.59 690.48 89.9 0 1 718.1047 26.5011
  A 690.59 690.48 89.9 0 1 1409.7889 715.8849
  A 690.59 690.48 89.9 0 1 720.5153 1407.6789
  Z
  M 1404.06 717.09
  A 684.75 684.75 0.0 0 0 719.31 32.34
  A 684.75 684.75 0.0 0 0 34.56 717.09
  A 684.75 684.75 0.0 0 0 719.31 1401.84
  A 684.75 684.75 0.0 0 0 1404.06 717.09
  Z"
/>
<path fill="#000000" d="
  M 876.09 475.56
  C 890.71 437.34 906.12 398.06 923.01 362.50
  C 936.78 333.51 954.45 306.01 977.51 283.52
  C 990.20 271.15 1005.28 262.50 1022.41 259.72
  C 1046.89 255.75 1073.14 262.76 1093.52 276.49
  C 1116.61 292.05 1134.99 315.33 1149.26 339.24
  C 1182.35 394.72 1200.83 457.37 1215.64 519.77
  Q 1225.99 563.39 1236.21 607.03
  C 1251.09 670.54 1269.77 729.46 1270.02 794.51
  Q 1270.22 845.73 1251.31 893.81
  C 1229.84 948.41 1194.68 998.07 1153.83 1039.83
  C 1095.79 1099.14 1023.48 1144.97 944.76 1170.70
  Q 913.13 1181.04 877.98 1188.24
  Q 711.65 1222.35 545.02 1189.50
  Q 513.64 1183.32 483.05 1174.14
  C 375.84 1141.96 280.19 1072.63 214.57 982.18
  C 190.44 948.92 170.51 912.31 158.38 872.93
  C 147.36 837.11 144.59 800.21 148.27 762.99
  C 154.34 701.78 172.78 642.50 186.45 582.76
  C 204.66 503.15 221.62 421.88 261.58 349.63
  C 275.41 324.63 292.89 300.34 315.34 282.37
  C 349.45 255.05 399.45 248.15 434.19 278.81
  C 466.11 306.98 487.88 346.68 504.67 385.70
  Q 523.82 430.18 540.74 475.56
  Q 540.92 476.06 541.42 475.87
  C 552.23 471.73 561.04 469.28 570.63 466.18
  Q 576.19 464.39 579.48 463.60
  Q 637.52 449.75 694.75 447.54
  C 737.76 445.88 782.78 452.03 825.51 461.13
  C 841.50 464.54 859.39 469.38 875.44 475.84
  Q 875.91 476.03 876.09 475.56
  Z
  M 644.40 758.55
  A 107.39 107.39 0.0 0 0 537.01 651.16
  A 107.39 107.39 0.0 0 0 429.62 758.55
  A 107.39 107.39 0.0 0 0 537.01 865.94
  A 107.39 107.39 0.0 0 0 644.40 758.55
  Z
  M 1026.35 762.48
  A 107.47 107.47 0.0 0 0 918.88 655.01
  A 107.47 107.47 0.0 0 0 811.41 762.48
  A 107.47 107.47 0.0 0 0 918.88 869.95
  A 107.47 107.47 0.0 0 0 1026.35 762.48
  Z"
/>
<circle fill="#000000" cx="536.78" cy="758.77" r="81.60"/>
<path fill="#000000" d="
  M 837.30 757.51
  C 839.62 713.63 877.62 679.91 921.23 681.21
  C 961.26 682.41 993.88 712.38 999.51 751.95
  C 1000.38 758.06 1000.20 765.19 999.64 771.60
  C 996.43 808.14 967.11 837.27 931.43 843.30
  Q 930.98 843.38 928.54 843.61
  C 927.17 843.74 925.99 844.13 924.68 844.14
  C 919.69 844.14 914.88 844.21 909.93 843.79
  C 885.26 841.65 862.42 826.46 849.72 806.25
  Q 835.89 784.26 837.30 757.51
  Z"
/>
</svg>
