<?xml version="1.0" encoding="UTF-8" standalone="no"?>
<!DOCTYPE svg PUBLIC "-//W3C//DTD SVG 1.1//EN" "http://www.w3.org/Graphics/SVG/1.1/DTD/svg11.dtd">
<svg xmlns="http://www.w3.org/2000/svg" version="1.1" viewBox="0.00 0.00 1450.00 1445.00">
<g stroke-width="2.00" fill="none" stroke-linecap="butt">
<path stroke="#7f637f" vector-effect="non-scaling-stroke" d="
  M 1349.31 185.02
  L 1337.94 174.83"
/>
<path stroke="#7f637f" vector-effect="non-scaling-stroke" d="
  M 286.98 142.10
  L 269.58 147.41
  Q 269.14 147.55 269.44 147.90
  Q 269.96 148.50 269.89 149.02"
/>
<path stroke="#7f637f" vector-effect="non-scaling-stroke" d="
  M 225.56 159.46
  Q 226.16 156.41 223.63 154.82"
/>
<path stroke="#7f637f" vector-effect="non-scaling-stroke" d="
  M 136.96 767.83
  Q 140.28 767.32 141.65 765.46"
/>
<path stroke="#7f637f" vector-effect="non-scaling-stroke" d="
  M 951.29 555.96
  L 945.05 558.41"
/>
<path stroke="#7f637f" vector-effect="non-scaling-stroke" d="
  M 945.55 558.99
  L 952.81 560.86"
/>
<path stroke="#7f637f" vector-effect="non-scaling-stroke" d="
  M 141.64 915.16
  Q 139.92 913.25 136.83 912.89"
/>
<path stroke="#7f637f" vector-effect="non-scaling-stroke" d="
  M 177.58 1351.83
  L 188.34 1362.07"
/>
<path stroke="#7f637f" vector-effect="non-scaling-stroke" d="
  M 191.95 1358.05
  L 203.44 1366.93"
/>
<path stroke="#7f637f" vector-effect="non-scaling-stroke" d="
  M 394.55 1370.95
  L 396.06 1366.18"
/>
<path stroke="#7f637f" vector-effect="non-scaling-stroke" d="
  M 409.33 1366.20
  L 411.21 1370.96"
/>
<path stroke="#7f637f" vector-effect="non-scaling-stroke" d="
  M 1356.17 200.73
  L 1345.95 189.43"
/>
<path stroke="#7f637f" vector-effect="non-scaling-stroke" d="
  M 141.70 772.64
  Q 138.79 773.83 136.78 775.90"
/>
<path stroke="#7f637f" vector-effect="non-scaling-stroke" d="
  M 136.85 781.74
  Q 139.81 780.48 141.76 778.49"
/>
<path stroke="#7f637f" vector-effect="non-scaling-stroke" d="
  M 141.65 785.55
  Q 138.66 786.61 136.93 788.44"
/>
<path stroke="#7f637f" vector-effect="non-scaling-stroke" d="
  M 136.93 877.74
  Q 138.95 879.61 141.65 879.89"
/>
<path stroke="#7f637f" vector-effect="non-scaling-stroke" d="
  M 136.93 893.34
  Q 139.34 894.95 141.67 895.47"
/>
<path stroke="#7f637f" vector-effect="non-scaling-stroke" d="
  M 141.74 886.39
  L 137.41 884.04
  Q 137.23 883.94 137.06 884.06
  Q 136.93 884.15 136.88 884.30"
/>
<path stroke="#7f637f" vector-effect="non-scaling-stroke" d="
  M 136.88 905.70
  Q 136.98 906.08 137.20 906.35
  C 137.52 906.76 140.28 907.60 141.11 908.17
  Q 141.44 908.40 141.58 908.02
  L 141.67 907.78"
/>
<path stroke="#7f637f" vector-effect="non-scaling-stroke" d="
  M 141.79 902.70
  Q 139.57 900.57 136.79 900.08"
/>
</g>
<path fill="#fec5fe" d="
  M 1173.63 48.01
  L 1188.29 52.25
  A 0.30 0.30 0.0 0 1 1188.32 52.81
  L 1174.27 58.75
  A 0.30 0.30 0.0 0 0 1174.10 58.94
  L 1169.86 73.60
  A 0.30 0.30 0.0 0 1 1169.30 73.63
  L 1163.36 59.58
  A 0.30 0.30 0.0 0 0 1163.17 59.41
  L 1148.51 55.17
  A 0.30 0.30 0.0 0 1 1148.48 54.61
  L 1162.53 48.67
  A 0.30 0.30 0.0 0 0 1162.70 48.48
  L 1166.94 33.82
  A 0.30 0.30 0.0 0 1 1167.50 33.79
  L 1173.44 47.84
  A 0.30 0.30 0.0 0 0 1173.63 48.01
  Z"
/>
<path fill="#000000" d="
  M 1349.31 185.02
  L 1337.94 174.83
  C 1311.47 131.81 1265.54 106.54 1215.50 106.54
  Q 736.26 106.53 256.96 106.54
  A 0.66 0.65 78.6 0 0 256.36 107.45
  L 258.91 113.57
  A 2.28 2.25 86.5 0 0 260.37 114.88
  L 313.49 130.34
  Q 313.87 130.45 313.50 130.61
  L 292.69 139.41
  Q 290.86 140.18 289.60 140.37
  Q 289.12 140.44 286.98 142.10
  L 269.58 147.41
  Q 269.14 147.55 269.44 147.90
  Q 269.96 148.50 269.89 149.02
  L 262.06 152.40
  Q 261.64 152.58 261.51 153.02
  L 245.88 206.70
  Q 245.78 207.07 245.63 206.72
  L 225.56 159.46
  Q 226.16 156.41 223.63 154.82
  L 169.70 139.13
  Q 169.25 139.00 169.69 138.81
  L 220.30 117.31
  Q 221.39 116.85 221.73 115.71
  L 223.81 108.52
  Q 224.13 107.40 222.97 107.54
  C 155.53 115.66 103.18 169.08 97.16 237.01
  Q 96.60 243.33 96.60 257.00
  Q 96.59 524.22 96.60 791.68
  Q 96.60 792.55 97.34 792.09
  L 136.96 767.83
  Q 140.28 767.32 141.65 765.46
  Q 153.23 758.39 164.51 751.71
  Q 233.74 710.74 302.87 669.60
  Q 305.38 668.10 308.55 667.01
  Q 309.29 666.76 309.75 667.40
  C 310.86 668.95 312.07 670.16 313.91 671.00
  Q 327.18 677.05 340.53 682.94
  C 342.50 683.81 344.49 683.67 345.27 681.48
  A 1.13 1.12 20.1 0 0 344.60 680.05
  C 334.41 676.24 325.22 671.56 314.70 667.40
  C 312.99 666.72 311.55 666.72 309.77 666.83
  Q 309.22 666.87 308.96 666.39
  Q 307.58 663.86 307.08 660.99
  Q 305.54 652.24 303.50 643.58
  Q 303.22 642.39 302.98 640.50
  C 302.66 637.94 301.74 634.74 301.41 632.88
  Q 299.90 624.33 297.87 615.88
  Q 297.79 615.56 297.90 615.03
  Q 298.01 614.54 297.85 614.07
  C 296.23 609.32 296.01 604.31 294.91 599.45
  Q 292.56 589.11 290.58 578.69
  Q 289.99 575.60 289.09 571.86
  C 288.20 568.17 287.99 565.43 287.31 562.70
  C 286.38 558.97 285.90 555.15 285.08 551.40
  Q 283.46 544.00 283.09 542.07
  Q 280.42 528.13 277.69 514.22
  C 277.20 511.75 276.38 509.38 276.00 506.90
  Q 275.18 501.41 273.43 495.01
  Q 272.91 493.12 272.64 490.70
  C 272.16 486.37 270.90 482.13 270.19 477.82
  C 269.55 473.89 267.78 469.18 267.55 465.75
  C 267.32 462.07 265.97 457.93 265.25 453.33
  C 264.49 448.42 262.72 443.76 262.35 438.76
  C 262.13 435.76 260.80 432.14 260.03 427.19
  C 259.51 423.88 258.28 420.42 257.69 416.91
  C 256.61 410.58 255.56 406.16 254.71 400.75
  C 254.38 398.68 253.57 396.58 253.22 394.73
  Q 251.49 385.51 249.71 376.30
  C 249.05 372.90 247.72 368.25 247.13 364.10
  C 246.69 361.03 245.02 356.17 245.22 353.75
  C 245.42 351.44 249.03 339.48 252.68 337.89
  Q 258.72 335.25 263.95 331.75
  A 2.79 2.76 32.0 0 1 265.91 331.31
  C 268.97 331.78 273.09 331.66 275.96 332.80
  C 283.63 335.87 291.06 339.34 298.74 342.34
  C 315.27 348.79 329.46 354.87 344.76 361.28
  C 351.29 364.01 359.43 367.02 366.69 370.11
  C 381.96 376.60 396.86 382.83 411.98 388.98
  C 453.85 406.01 495.51 423.55 537.42 440.46
  Q 553.12 446.80 568.62 453.62
  C 571.48 454.88 574.76 455.92 577.81 457.21
  C 590.88 462.74 604.29 467.73 617.21 473.53
  C 621.50 475.45 627.08 477.45 630.24 478.79
  Q 640.32 483.07 650.42 487.31
  C 655.93 489.63 663.30 492.31 669.64 495.11
  C 681.40 500.29 692.63 504.32 704.00 509.29
  C 707.45 510.79 712.69 513.83 714.65 516.10
  C 722.92 525.65 724.44 539.05 726.75 551.16
  Q 726.83 551.56 727.06 551.23
  C 740.45 532.26 755.18 514.16 769.07 495.54
  C 786.84 471.70 805.08 448.21 822.93 424.43
  C 831.16 413.46 841.17 400.84 849.98 388.77
  C 852.59 385.20 860.14 376.64 864.50 376.61
  Q 870.79 376.57 877.10 376.31
  Q 879.40 376.21 881.21 377.17
  C 884.68 379.01 892.52 384.31 893.72 388.24
  C 895.24 393.19 897.32 398.51 898.76 402.92
  Q 902.14 413.27 905.82 423.52
  C 911.68 439.86 916.94 456.71 922.74 472.79
  C 928.42 488.56 933.39 504.48 939.09 520.36
  C 942.79 530.66 945.83 540.24 949.43 550.10
  Q 950.44 552.88 951.29 555.96
  L 945.05 558.41
  C 941.23 545.98 936.61 533.57 932.59 521.44
  Q 929.73 512.79 926.60 504.23
  C 921.03 489.03 915.96 472.50 909.90 455.71
  Q 908.54 451.92 905.61 442.97
  C 903.72 437.17 901.36 431.25 899.54 425.72
  C 896.27 415.80 891.81 403.57 887.94 391.50
  C 886.79 387.91 880.47 380.66 876.51 385.50
  Q 862.53 402.59 844.73 427.06
  C 843.42 428.87 841.42 430.82 840.33 432.34
  C 831.56 444.67 821.12 457.71 813.02 468.52
  C 789.00 500.57 763.81 533.69 740.45 564.19
  C 739.02 566.05 737.58 568.46 735.98 570.44
  C 729.70 578.23 722.59 588.03 717.79 594.29
  C 695.24 623.65 673.34 653.10 650.52 682.65
  C 646.62 687.70 641.99 694.35 637.48 700.03
  C 628.28 711.65 620.59 722.52 611.15 734.65
  Q 601.50 747.06 579.38 776.74
  C 576.41 780.72 571.77 783.78 571.62 789.25
  C 571.46 795.30 572.43 800.03 574.78 805.96
  Q 576.13 809.36 577.37 812.81
  Q 603.79 886.31 630.28 959.79
  C 632.27 965.31 634.76 972.96 637.23 979.47
  C 640.66 988.55 643.64 997.98 647.21 1007.12
  C 650.13 1014.56 652.42 1022.43 655.33 1030.00
  Q 658.75 1038.93 660.43 1043.94
  Q 662.79 1050.99 665.26 1058.01
  C 665.96 1059.99 667.40 1062.34 668.13 1064.75
  C 671.21 1074.97 675.86 1086.57 678.75 1094.88
  Q 683.42 1108.28 688.47 1121.54
  Q 688.98 1122.88 689.15 1124.29
  A 0.56 0.55 59.5 0 0 690.15 1124.55
  L 993.51 701.87
  Q 994.42 700.61 993.91 699.14
  L 945.55 558.99
  L 952.81 560.86
  Q 953.55 562.65 954.05 564.09
  Q 977.45 631.78 1000.82 699.48
  Q 1001.70 702.04 1001.82 704.79
  Q 1001.84 705.27 1001.41 705.48
  Q 998.55 706.84 996.63 709.38
  Q 987.79 721.06 979.16 733.45
  Q 978.26 734.74 979.53 735.67
  L 980.24 736.19
  Q 981.48 737.10 982.38 735.86
  Q 990.40 724.79 997.30 715.03
  Q 1001.21 709.48 1002.44 705.39
  Q 1002.59 704.92 1003.06 704.80
  Q 1004.87 704.35 1006.75 704.36
  C 1050.40 704.52 1094.06 704.97 1137.70 704.89
  C 1146.89 704.87 1156.04 705.25 1165.25 704.93
  C 1165.79 704.91 1166.27 705.31 1166.94 705.27
  Q 1171.30 704.95 1175.67 705.13
  Q 1179.86 705.31 1184.35 705.10
  C 1188.84 704.89 1193.25 705.37 1197.71 705.25
  C 1202.13 705.13 1206.55 705.57 1210.85 705.32
  Q 1214.44 705.12 1218.04 705.11
  C 1219.38 705.11 1220.56 705.68 1221.85 705.59
  Q 1225.99 705.30 1230.13 705.46
  Q 1234.05 705.62 1238.38 705.40
  Q 1242.13 705.21 1245.87 705.46
  Q 1248.96 705.66 1251.63 705.60
  Q 1254.53 705.53 1257.42 705.65
  Q 1261.23 705.81 1266.07 705.56
  C 1270.39 705.34 1274.93 705.80 1278.99 705.73
  Q 1283.41 705.66 1287.84 705.86
  C 1290.29 705.97 1292.90 705.61 1295.50 705.69
  C 1309.01 706.10 1322.68 705.92 1336.13 706.02
  Q 1338.93 706.05 1341.12 707.13
  C 1343.87 708.49 1352.94 713.91 1353.54 716.99
  Q 1354.89 723.95 1357.64 730.54
  Q 1357.84 731.00 1357.70 731.48
  Q 1356.82 734.58 1355.53 737.55
  C 1354.96 738.86 1355.44 739.92 1354.56 741.22
  C 1353.31 743.08 1352.24 745.07 1351.00 746.81
  Q 1347.79 751.27 1344.59 755.72
  C 1339.84 762.34 1335.24 770.30 1330.93 776.45
  Q 1314.77 799.52 1299.24 823.01
  C 1295.63 828.46 1291.32 834.42 1287.47 840.21
  C 1275.63 858.04 1263.36 875.57 1251.51 893.39
  C 1242.65 906.72 1233.19 920.23 1224.23 933.80
  C 1221.69 937.64 1218.43 941.88 1215.69 946.05
  C 1202.53 966.03 1188.93 985.74 1175.56 1005.58
  C 1172.33 1010.37 1168.13 1016.15 1164.56 1021.53
  C 1148.38 1045.87 1131.88 1070.00 1115.38 1094.12
  C 1111.38 1099.95 1106.44 1107.75 1101.72 1114.42
  C 1094.28 1124.94 1087.81 1135.51 1080.49 1145.83
  C 1073.25 1156.03 1066.50 1158.97 1054.95 1160.56
  C 1048.64 1161.42 1041.87 1161.08 1035.33 1160.78
  Q 1035.06 1160.77 1034.82 1160.88
  Q 1034.67 1160.95 1034.50 1160.94
  C 1026.27 1160.77 1018.11 1160.40 1009.82 1160.39
  C 999.63 1160.37 989.43 1159.65 979.25 1159.92
  C 978.34 1159.95 977.74 1159.67 976.91 1159.72
  C 972.48 1159.95 967.28 1159.50 963.70 1159.48
  Q 951.68 1159.42 947.75 1159.32
  C 918.04 1158.53 888.70 1158.40 859.18 1157.63
  Q 849.08 1157.37 838.97 1157.31
  C 835.28 1157.29 829.75 1156.78 825.12 1157.09
  C 823.00 1157.23 820.86 1156.76 818.66 1156.83
  C 813.88 1156.99 808.37 1156.52 804.75 1156.61
  C 803.31 1156.64 802.03 1156.36 800.91 1156.46
  Q 797.15 1156.80 793.38 1156.37
  C 791.48 1156.15 789.55 1156.58 787.88 1156.51
  C 775.58 1155.99 765.32 1156.21 754.16 1155.78
  C 746.26 1155.47 738.29 1155.76 732.25 1155.48
  Q 711.96 1154.55 705.89 1155.11
  Q 702.18 1155.46 700.84 1152.93
  Q 697.72 1147.04 694.90 1141.26
  A 4.91 4.91 0.0 0 1 695.32 1136.27
  L 728.33 1089.99
  Q 729.38 1088.51 727.66 1087.96
  L 727.34 1087.85
  Q 725.36 1087.21 724.15 1088.90
  L 691.64 1133.98
  A 4.73 4.73 0.0 0 1 687.17 1135.90
  Q 680.72 1135.04 674.11 1133.68
  Q 671.65 1133.17 670.94 1131.02
  C 666.99 1119.05 662.56 1107.44 658.84 1096.63
  Q 656.52 1089.90 654.01 1083.26
  C 651.50 1076.62 649.29 1069.74 646.81 1063.01
  Q 642.56 1051.50 641.30 1047.90
  Q 636.10 1032.99 630.84 1018.11
  Q 627.88 1009.73 624.77 1001.41
  Q 621.69 993.15 618.89 984.79
  A 0.76 0.76 0.0 0 0 617.78 984.38
  Q 554.71 1022.84 491.67 1061.42
  Q 489.61 1062.68 482.32 1065.82
  Q 471.00 1070.70 460.25 1066.80
  Q 452.62 1064.03 436.18 1055.46
  C 429.61 1052.03 422.50 1049.08 415.68 1045.78
  C 360.22 1018.93 304.38 992.82 248.74 966.34
  Q 210.05 947.94 171.49 929.27
  C 162.86 925.09 151.52 920.09 141.64 915.16
  Q 139.92 913.25 136.83 912.89
  L 96.97 893.66
  Q 96.58 893.47 96.58 893.90
  Q 96.59 1058.50 96.69 1222.75
  C 96.72 1276.08 124.99 1323.54 171.67 1349.10
  Q 175.09 1350.97 177.58 1351.83
  L 188.34 1362.07
  C 134.62 1342.10 97.44 1294.32 92.39 1237.23
  Q 91.82 1230.82 91.82 1217.25
  Q 91.83 1054.61 91.82 891.65
  Q 91.82 891.34 91.53 891.23
  C 88.29 890.07 85.05 888.04 82.30 886.82
  Q 71.46 882.04 60.93 876.62
  C 54.52 873.31 47.40 870.49 40.74 867.13
  C 37.04 865.27 34.33 862.32 31.16 859.71
  A 2.50 2.48 -74.2 0 1 30.28 858.12
  Q 29.43 851.75 27.33 845.75
  C 26.17 842.44 30.58 834.58 32.40 831.74
  Q 33.89 829.40 36.31 827.89
  C 42.39 824.11 48.70 820.73 54.80 817.02
  Q 74.56 805.00 83.30 800.10
  C 86.47 798.32 88.40 796.61 91.14 795.32
  A 1.19 1.19 0.0 0 0 91.83 794.24
  Q 91.82 521.37 91.77 248.75
  C 91.75 171.93 149.36 110.39 224.88 102.28
  A 1.20 1.20 0.0 0 0 225.90 101.42
  L 237.21 62.58
  Q 237.25 62.44 237.30 62.57
  L 253.55 100.92
  A 1.39 1.39 0.0 0 0 254.83 101.77
  Q 732.11 101.78 1209.50 101.77
  Q 1223.22 101.77 1229.48 102.30
  C 1281.31 106.71 1326.77 137.97 1349.31 185.02
  Z
  M 420.67 404.87
  Q 474.94 427.18 529.17 449.57
  Q 552.58 459.24 559.10 462.12
  C 561.47 463.17 564.45 464.00 566.93 465.05
  Q 584.10 472.37 601.44 479.29
  C 604.54 480.53 608.17 482.30 611.60 483.63
  C 621.06 487.30 630.36 491.34 639.72 495.26
  C 645.21 497.57 652.65 500.32 659.03 503.13
  C 670.88 508.35 682.41 512.45 693.95 517.52
  C 704.92 522.35 709.18 530.22 712.38 541.40
  Q 713.96 546.89 716.83 564.41
  A 0.06 0.05 -32.3 0 0 716.93 564.43
  L 721.40 558.18
  A 0.55 0.54 -32.9 0 0 721.50 557.74
  Q 719.43 546.49 717.55 534.92
  C 716.71 529.74 714.75 524.03 711.90 520.37
  C 709.08 516.76 704.58 516.56 700.64 514.90
  Q 664.20 499.55 651.99 494.71
  Q 638.19 489.25 628.27 484.85
  C 622.02 482.09 615.38 479.79 608.97 477.08
  C 579.05 464.40 553.17 453.96 525.27 442.49
  C 508.08 435.42 490.89 428.36 473.74 421.17
  Q 453.41 412.66 432.95 404.47
  Q 425.42 401.45 416.00 397.48
  C 404.20 392.50 391.58 387.53 380.55 382.84
  C 352.94 371.09 326.23 360.85 300.30 349.68
  Q 288.09 344.42 269.65 337.34
  Q 268.73 336.99 267.85 337.41
  L 264.07 339.20
  A 0.54 0.54 0.0 0 0 264.11 340.19
  Q 268.03 341.71 281.88 347.91
  C 285.83 349.68 291.88 351.60 296.61 353.56
  Q 315.26 361.32 333.87 369.16
  C 340.79 372.08 349.05 375.13 356.58 378.32
  Q 367.06 382.75 373.54 385.31
  Q 383.62 389.29 393.59 393.54
  Q 407.09 399.29 420.67 404.87
  Z
  M 265.64 424.15
  C 266.99 431.71 268.92 439.08 270.22 446.70
  C 271.56 454.53 273.72 463.57 274.94 470.04
  C 276.80 479.92 279.01 489.45 280.83 499.58
  Q 282.00 506.16 283.42 512.69
  Q 285.27 521.24 286.94 529.82
  C 287.89 534.68 289.53 540.86 290.45 546.45
  C 291.65 553.77 293.61 562.03 294.78 568.21
  Q 297.31 581.52 299.97 594.80
  Q 301.78 603.91 303.79 612.97
  C 305.44 620.38 306.66 629.28 308.34 635.74
  C 310.32 643.33 311.59 651.30 313.01 659.03
  Q 313.11 659.60 313.63 659.83
  L 344.17 673.28
  Q 345.96 674.06 345.30 672.23
  L 344.78 670.76
  Q 344.15 668.99 342.42 668.21
  Q 334.48 664.66 325.68 660.78
  Q 322.73 659.48 319.56 659.45
  A 2.20 2.19 80.3 0 1 317.51 658.00
  Q 317.03 656.66 316.73 655.24
  Q 306.03 603.01 295.41 550.77
  C 294.78 547.66 293.91 544.43 293.56 541.28
  C 293.34 539.27 292.53 536.70 292.28 535.29
  Q 290.90 527.47 289.10 519.75
  C 288.83 518.58 288.90 517.54 288.60 516.44
  Q 287.31 511.81 286.69 507.03
  C 286.41 504.87 285.53 502.75 285.20 501.00
  Q 283.63 492.59 282.01 484.18
  C 281.35 480.72 279.87 474.96 279.05 469.75
  Q 278.38 465.44 275.24 451.81
  Q 275.14 451.38 274.70 448.41
  C 273.60 440.94 271.21 432.59 269.77 424.00
  Q 269.15 420.34 267.04 410.82
  C 265.24 402.69 263.63 393.36 261.66 384.66
  C 260.76 380.69 260.12 376.20 259.15 371.97
  Q 258.60 369.59 259.16 367.54
  C 260.40 362.94 261.06 358.41 266.15 356.60
  C 268.42 355.80 271.16 356.37 273.68 356.51
  C 279.52 356.83 286.44 360.65 291.75 363.08
  C 297.11 365.52 302.81 367.41 308.32 369.71
  C 341.03 383.43 373.82 397.08 406.63 410.52
  C 471.07 436.91 535.27 463.90 599.73 490.25
  Q 615.48 496.69 631.16 503.30
  C 637.49 505.97 645.52 509.03 652.61 512.11
  Q 661.32 515.90 668.69 518.65
  Q 682.50 523.80 686.93 526.34
  Q 692.66 529.62 694.45 531.55
  C 699.35 536.84 702.19 544.91 703.58 551.75
  Q 705.86 563.00 707.87 574.40
  Q 708.15 575.97 709.12 574.71
  L 710.67 572.70
  Q 711.83 571.20 711.47 569.32
  C 709.73 560.35 708.04 551.68 706.83 543.03
  C 706.26 538.92 702.62 527.29 698.25 525.76
  Q 688.30 522.29 670.02 514.43
  Q 661.99 510.98 635.82 500.54
  C 627.98 497.41 619.17 493.38 610.75 489.99
  C 595.00 483.66 581.60 477.88 566.91 472.14
  Q 564.42 471.16 560.76 469.50
  C 556.04 467.36 549.19 464.79 546.34 463.61
  Q 507.35 447.42 468.25 431.50
  Q 463.61 429.61 454.02 425.46
  C 440.68 419.69 420.98 412.02 404.26 405.00
  C 392.10 399.89 379.41 394.88 367.75 389.91
  C 349.67 382.19 334.20 376.19 319.28 369.91
  C 309.44 365.77 299.02 361.89 289.03 357.58
  C 280.67 353.97 272.24 349.99 263.60 347.15
  C 261.34 346.41 257.41 343.93 255.01 345.21
  C 252.06 346.80 251.07 351.82 251.67 354.80
  C 254.61 369.34 257.73 383.85 260.45 398.42
  C 262.05 407.03 264.08 415.39 265.64 424.15
  Z
  M 302.63 556.63
  C 305.18 567.90 307.26 580.41 309.40 589.45
  C 309.92 591.63 310.13 593.60 310.47 595.17
  Q 314.20 612.41 317.42 629.74
  C 317.59 630.63 318.04 631.54 318.22 632.50
  Q 320.09 642.41 322.06 652.35
  Q 322.14 652.78 322.54 652.95
  L 566.35 761.14
  Q 566.74 761.31 567.12 761.11
  C 568.89 760.15 569.45 758.51 570.37 757.33
  C 578.85 746.56 587.07 735.59 595.30 724.63
  Q 621.65 689.58 648.14 654.65
  Q 674.29 620.18 700.48 585.74
  Q 701.64 584.22 702.74 582.64
  Q 703.04 582.22 703.05 581.70
  Q 703.07 580.41 702.98 579.99
  Q 699.99 565.94 697.67 551.76
  Q 697.40 550.10 697.30 549.08
  C 696.87 544.68 692.93 534.08 688.46 532.81
  Q 683.20 531.31 681.75 530.69
  C 659.45 521.15 636.87 512.28 614.59 502.71
  C 606.25 499.12 597.77 495.94 589.38 492.46
  Q 568.57 483.84 547.77 475.21
  Q 506.05 457.90 464.32 440.60
  Q 448.32 433.97 432.30 427.43
  Q 393.85 411.72 355.56 395.65
  C 348.41 392.65 339.95 389.45 332.19 386.19
  C 315.02 378.97 298.82 372.37 282.20 365.36
  C 278.93 363.98 275.78 363.16 272.53 361.48
  C 269.39 359.86 266.67 361.24 265.43 364.49
  C 263.63 369.24 265.77 373.54 266.60 378.20
  C 268.47 388.65 271.00 398.98 272.79 409.43
  C 274.17 417.50 275.96 423.67 277.34 431.71
  Q 278.45 438.26 280.72 448.06
  C 281.84 452.94 282.60 458.38 283.73 463.51
  C 285.90 473.38 287.31 481.08 289.29 490.50
  Q 291.52 501.14 298.63 536.22
  Q 299.41 540.12 300.10 544.04
  Q 301.21 550.37 302.63 556.63
  Z
  M 613.71 950.76
  C 615.33 953.55 615.86 956.66 616.93 959.69
  C 622.65 975.89 627.92 992.14 634.08 1008.12
  C 636.96 1015.59 639.06 1023.26 642.29 1031.31
  C 645.30 1038.83 647.48 1046.06 650.04 1053.50
  C 651.28 1057.12 653.21 1060.52 654.28 1064.03
  C 657.72 1075.19 662.32 1086.40 665.85 1096.98
  C 668.87 1106.03 672.37 1114.64 675.36 1123.94
  Q 676.31 1126.92 679.30 1127.88
  L 681.15 1128.48
  Q 684.13 1129.44 683.07 1126.49
  C 645.50 1021.58 607.51 916.28 569.88 810.87
  C 567.32 803.70 564.58 791.08 567.40 784.24
  Q 569.86 778.27 571.08 776.58
  C 578.64 765.99 587.07 756.11 594.61 745.55
  C 599.47 738.73 606.71 729.60 609.77 725.53
  C 632.11 695.88 654.79 666.50 677.12 636.85
  Q 700.62 605.63 724.23 574.50
  C 732.28 563.87 740.42 553.32 748.42 542.66
  C 758.34 529.43 770.66 513.91 778.27 503.54
  Q 787.18 491.38 796.40 479.45
  C 815.10 455.28 831.44 432.79 849.28 409.75
  Q 858.95 397.27 868.08 384.82
  Q 869.15 383.35 867.33 383.43
  L 864.93 383.54
  Q 862.98 383.62 861.75 385.13
  Q 851.10 398.15 840.73 412.21
  C 833.12 422.52 825.26 432.41 817.58 442.87
  Q 811.94 450.54 806.10 458.06
  Q 795.42 471.80 785.06 485.78
  Q 779.50 493.28 773.75 500.64
  C 765.96 510.62 758.99 520.11 751.53 529.78
  Q 741.17 543.20 730.87 556.66
  Q 727.93 560.50 725.17 564.47
  Q 722.25 568.66 719.41 572.22
  C 714.36 578.55 708.97 586.09 704.77 591.56
  C 681.65 621.63 659.14 651.84 635.82 682.09
  C 624.71 696.51 614.07 711.33 602.94 725.72
  Q 583.84 750.42 565.23 775.50
  C 563.03 778.46 559.30 781.43 558.15 784.79
  C 555.25 793.24 560.87 804.59 563.70 812.46
  Q 588.28 880.82 612.92 949.17
  Q 613.14 949.78 613.71 950.76
  Z
  M 141.70 772.64
  Q 138.79 773.83 136.78 775.90
  Q 136.63 775.71 136.25 775.76
  C 136.10 775.78 131.94 778.44 130.26 779.33
  Q 127.56 780.76 120.74 785.06
  C 112.92 789.99 104.89 794.37 96.84 799.24
  A 0.58 0.58 0.0 0 0 96.57 799.73
  L 96.69 805.47
  A 0.20 0.20 0.0 0 0 96.99 805.64
  L 136.85 781.74
  Q 139.81 780.48 141.76 778.49
  L 305.96 679.40
  A 2.11 2.09 -37.5 0 1 308.56 679.73
  C 310.07 681.29 311.68 682.46 313.78 683.38
  Q 332.80 691.77 351.80 700.18
  C 355.22 701.69 359.73 703.36 363.64 705.19
  Q 370.54 708.43 372.39 709.21
  Q 398.18 720.22 423.74 731.74
  C 429.56 734.36 436.71 737.17 443.11 740.12
  C 462.74 749.14 482.73 757.38 502.41 766.30
  C 508.36 769.00 515.45 771.80 521.89 774.75
  C 531.94 779.35 541.73 783.27 551.47 787.90
  Q 552.62 788.45 552.69 787.17
  L 552.77 785.62
  Q 552.84 784.25 551.59 783.69
  L 388.53 711.20
  Q 388.04 710.98 388.09 710.45
  C 388.50 706.29 390.83 702.67 391.01 698.94
  C 391.36 691.59 389.44 688.67 382.72 685.92
  C 376.64 683.44 371.47 681.26 364.84 678.03
  C 360.14 675.73 355.20 673.99 350.53 671.65
  A 0.29 0.29 0.0 0 0 350.13 672.00
  C 352.18 678.34 350.53 686.15 343.60 688.47
  C 341.17 689.29 340.58 689.76 338.40 688.83
  C 327.22 684.07 317.32 679.65 307.31 675.10
  A 1.58 1.56 41.6 0 0 305.84 675.18
  L 141.70 772.64
  Z
  M 141.65 785.55
  Q 138.66 786.61 136.93 788.44
  L 96.99 812.34
  A 0.79 0.79 0.0 0 0 96.60 813.02
  L 96.60 835.89
  Q 96.60 836.41 97.07 836.62
  L 104.48 839.99
  A 2.58 2.58 0.0 0 1 105.48 843.87
  Q 103.86 846.06 102.51 848.56
  C 101.50 850.43 100.06 851.22 98.65 852.75
  Q 98.34 853.09 97.87 853.17
  Q 96.41 853.40 96.47 855.00
  Q 96.54 856.64 96.63 857.83
  Q 96.71 858.70 97.50 859.08
  L 136.93 877.74
  Q 138.95 879.61 141.65 879.89
  L 439.37 1019.87
  Q 439.84 1020.09 440.28 1019.82
  Q 449.27 1014.25 458.34 1008.82
  C 461.44 1006.97 464.20 1006.17 467.81 1007.66
  Q 478.96 1012.27 490.15 1017.54
  A 2.24 2.24 0.0 0 1 491.14 1020.68
  C 487.88 1026.31 485.98 1029.36 478.92 1033.11
  Q 478.79 1033.18 478.85 1033.31
  L 478.85 1033.31
  Q 478.91 1033.44 479.05 1033.39
  C 481.18 1032.61 483.17 1032.07 485.10 1030.80
  Q 488.63 1028.50 492.23 1026.29
  Q 549.67 990.94 607.09 955.54
  A 1.26 1.25 64.5 0 0 607.61 954.05
  Q 581.73 881.87 555.78 809.53
  C 554.09 804.85 553.27 800.63 552.60 795.88
  A 2.32 2.32 0.0 0 0 551.24 794.08
  L 306.56 686.50
  A 1.39 1.37 -48.1 0 0 305.29 686.58
  L 141.65 785.55
  Z
  M 562.98 767.07
  A 0.74 0.74 0.0 0 0 562.64 766.03
  L 397.26 692.57
  A 0.74 0.74 0.0 0 0 396.22 693.37
  L 396.69 696.27
  A 0.74 0.74 0.0 0 0 397.12 696.83
  L 560.86 769.45
  A 0.74 0.74 0.0 0 0 561.80 769.14
  L 562.98 767.07
  Z
  M 414.63 715.97
  Q 426.05 721.00 437.54 725.85
  Q 446.54 729.65 455.29 733.96
  C 461.96 737.24 468.89 739.84 475.67 742.87
  C 491.96 750.13 508.18 757.74 524.62 764.63
  C 531.61 767.56 538.56 771.11 545.31 773.95
  Q 549.69 775.78 554.08 777.65
  Q 555.30 778.17 556.02 777.05
  L 556.50 776.29
  A 1.28 1.28 0.0 0 0 555.96 774.45
  Q 544.11 768.85 540.75 767.44
  Q 527.59 761.92 520.63 758.75
  Q 508.76 753.34 496.78 748.16
  C 483.63 742.48 471.08 736.29 458.08 730.75
  C 444.92 725.13 433.70 719.88 421.46 714.55
  C 414.64 711.58 406.74 706.82 398.72 703.62
  Q 397.60 703.17 397.12 704.27
  Q 396.54 705.59 396.79 706.95
  A 0.98 0.95 -78.5 0 0 397.21 707.60
  C 402.93 711.50 408.68 713.35 414.63 715.97
  Z
  M 858.69 1138.38
  C 864.33 1138.73 870.79 1138.46 877.50 1138.57
  Q 902.63 1138.99 927.75 1139.45
  C 931.27 1139.51 934.25 1139.90 938.25 1139.76
  Q 940.78 1139.67 949.83 1140.06
  C 953.40 1140.21 957.62 1139.95 961.53 1140.17
  C 964.68 1140.34 968.12 1140.08 971.42 1140.37
  C 973.59 1140.56 975.61 1140.37 977.75 1140.42
  Q 1005.93 1140.99 1034.12 1141.38
  Q 1037.55 1141.43 1044.97 1141.94
  C 1050.22 1142.29 1060.39 1141.18 1064.13 1137.13
  C 1065.82 1135.30 1067.37 1131.68 1068.82 1129.48
  Q 1075.39 1119.52 1082.15 1109.70
  C 1093.21 1093.62 1103.82 1077.19 1115.13 1061.31
  C 1119.71 1054.87 1124.49 1047.07 1129.40 1040.07
  C 1135.95 1030.75 1141.98 1021.63 1148.14 1012.31
  C 1150.28 1009.07 1153.11 1005.40 1155.44 1001.81
  C 1164.60 987.75 1174.32 974.07 1183.77 960.20
  Q 1185.82 957.19 1186.36 956.35
  C 1194.99 943.06 1203.33 931.44 1211.27 919.09
  Q 1214.68 913.79 1218.27 908.61
  Q 1229.24 892.77 1240.09 876.85
  C 1251.16 860.61 1261.83 844.03 1273.06 827.90
  Q 1285.48 810.05 1297.51 791.94
  C 1311.52 770.82 1326.38 750.22 1340.23 729.01
  C 1341.46 727.12 1342.02 725.53 1343.63 723.61
  C 1349.00 717.20 1341.61 712.38 1336.50 712.51
  C 1325.49 712.79 1313.76 712.37 1303.50 712.42
  Q 1292.41 712.47 1281.31 712.16
  C 1278.93 712.10 1275.95 712.66 1273.16 712.30
  C 1271.86 712.13 1270.80 712.50 1269.50 712.44
  Q 1259.14 711.97 1248.78 712.12
  C 1241.16 712.23 1234.04 711.96 1226.67 711.89
  C 1224.64 711.87 1221.92 712.27 1219.50 712.06
  Q 1218.05 711.93 1216.50 712.06
  C 1214.02 712.29 1210.72 711.80 1208.99 711.82
  Q 1189.50 712.00 1170.00 711.87
  Q 1165.25 711.83 1160.50 711.72
  Q 1148.00 711.41 1135.50 711.46
  Q 1127.30 711.50 1119.10 711.36
  C 1115.39 711.30 1111.57 711.37 1107.81 711.46
  C 1101.59 711.61 1094.86 711.20 1085.81 711.33
  C 1079.37 711.43 1072.99 711.23 1066.58 711.15
  C 1062.66 711.09 1057.69 711.36 1053.24 711.25
  C 1038.74 710.88 1024.24 711.11 1009.71 710.80
  A 2.06 2.06 0.0 0 0 1007.99 711.67
  L 704.51 1134.96
  A 0.45 0.45 0.0 0 0 704.89 1135.68
  Q 714.55 1135.41 724.29 1135.94
  C 731.78 1136.34 738.96 1135.93 746.83 1136.29
  Q 758.15 1136.81 769.49 1136.44
  Q 770.64 1136.40 772.00 1136.54
  C 779.77 1137.30 787.53 1137.11 795.32 1137.01
  C 799.22 1136.95 804.54 1138.08 808.01 1137.58
  Q 810.28 1137.25 811.76 1137.72
  Q 812.25 1137.88 812.73 1137.72
  C 814.12 1137.26 815.60 1137.78 816.67 1137.71
  C 826.15 1137.09 836.37 1138.44 843.75 1138.12
  Q 850.03 1137.84 858.69 1138.38
  Z
  M 789.93 1149.87
  C 790.75 1150.34 791.47 1149.89 792.11 1149.91
  C 797.04 1150.09 801.68 1149.52 806.65 1150.19
  C 810.62 1150.73 814.50 1149.79 817.74 1150.61
  Q 818.21 1150.73 818.66 1150.57
  C 820.22 1150.02 821.65 1150.72 822.97 1150.60
  Q 827.88 1150.17 829.25 1150.25
  Q 838.92 1150.81 846.03 1150.91
  C 877.66 1151.39 908.35 1151.99 939.50 1152.52
  C 944.87 1152.61 950.30 1152.65 955.67 1152.89
  C 959.43 1153.07 963.87 1152.77 967.99 1153.11
  C 970.81 1153.34 975.08 1152.42 977.82 1153.31
  Q 978.29 1153.46 978.78 1153.41
  C 982.35 1153.02 985.98 1153.52 989.40 1153.37
  C 992.47 1153.23 996.03 1153.58 998.53 1153.61
  Q 1022.20 1153.89 1045.87 1154.48
  Q 1045.90 1154.48 1051.12 1154.81
  C 1056.41 1155.15 1062.11 1154.12 1067.02 1152.11
  C 1071.02 1150.48 1072.74 1145.05 1075.08 1141.66
  C 1090.83 1118.88 1106.04 1095.74 1121.84 1073.00
  C 1126.18 1066.75 1131.04 1058.93 1135.87 1052.03
  Q 1140.30 1045.70 1142.11 1043.00
  C 1160.47 1015.57 1179.30 988.45 1197.55 960.96
  C 1204.22 950.90 1211.07 941.22 1217.81 930.95
  Q 1222.03 924.51 1226.39 918.18
  Q 1236.90 902.90 1247.20 887.49
  Q 1248.30 885.83 1249.45 884.20
  C 1259.53 869.82 1269.27 854.83 1279.07 840.67
  Q 1292.66 821.06 1297.79 813.29
  C 1313.68 789.22 1329.80 766.08 1345.70 742.40
  C 1346.91 740.60 1347.99 737.55 1349.93 735.92
  Q 1351.28 734.78 1350.85 733.05
  L 1349.85 729.08
  Q 1349.41 727.35 1348.45 728.85
  C 1343.33 736.80 1337.59 744.17 1332.65 752.02
  C 1324.08 765.63 1314.56 778.81 1305.45 792.07
  C 1296.48 805.11 1287.15 819.08 1278.91 831.53
  Q 1271.89 842.13 1264.68 852.60
  Q 1251.84 871.22 1239.12 889.92
  Q 1228.84 905.03 1218.76 920.29
  Q 1216.51 923.72 1214.19 927.10
  C 1194.39 956.10 1175.17 984.55 1154.93 1014.23
  Q 1144.09 1030.11 1133.51 1046.16
  C 1131.28 1049.54 1128.37 1053.37 1125.95 1057.09
  C 1120.39 1065.63 1114.53 1073.95 1108.77 1082.36
  C 1105.27 1087.47 1100.77 1094.69 1096.49 1100.68
  C 1088.73 1111.57 1082.28 1122.10 1074.92 1132.66
  Q 1070.23 1139.37 1065.81 1142.32
  C 1058.39 1147.26 1048.45 1148.16 1039.62 1148.13
  C 1026.56 1148.09 1013.39 1147.62 1000.46 1147.51
  C 991.78 1147.45 983.15 1146.92 974.47 1147.14
  Q 973.52 1147.16 972.04 1146.98
  C 970.04 1146.73 967.40 1146.99 965.91 1146.91
  Q 960.40 1146.61 954.88 1146.59
  Q 943.68 1146.54 932.50 1146.34
  Q 881.75 1145.39 831.00 1144.38
  C 828.14 1144.33 823.15 1144.02 819.18 1144.19
  C 817.02 1144.28 814.73 1143.95 812.49 1144.00
  C 803.15 1144.20 793.71 1143.61 784.35 1143.60
  C 777.49 1143.59 770.13 1143.15 763.00 1143.12
  C 752.28 1143.07 743.33 1142.71 733.50 1142.68
  C 723.64 1142.65 713.58 1142.08 703.66 1142.11
  A 0.58 0.57 80.3 0 0 703.12 1142.88
  C 704.96 1148.05 707.17 1148.60 712.66 1148.51
  Q 719.62 1148.40 726.56 1148.64
  C 737.44 1149.02 748.01 1148.77 758.75 1149.32
  Q 763.38 1149.56 774.98 1149.28
  C 777.79 1149.21 780.86 1150.17 784.02 1149.91
  C 785.62 1149.78 787.28 1150.21 789.02 1149.74
  Q 789.50 1149.62 789.93 1149.87
  Z
  M 977.7671 742.4481
  A 1.98 1.98 0.0 0 0 977.3146 739.6848
  L 977.1197 739.5447
  A 1.98 1.98 0.0 0 0 974.3564 739.9972
  L 945.8329 779.6919
  A 1.98 1.98 0.0 0 0 946.2854 782.4552
  L 946.4803 782.5953
  A 1.98 1.98 0.0 0 0 949.2436 782.1428
  L 977.7671 742.4481
  Z
  M 780.79 1015.79
  Q 781.22 1016.38 781.65 1015.79
  L 936.60 799.78
  A 1.38 1.38 0.0 0 0 936.15 797.78
  L 935.84 797.60
  Q 933.99 796.57 932.73 798.27
  Q 920.27 815.06 909.47 830.56
  C 904.99 836.98 899.55 843.83 894.79 850.66
  C 871.04 884.71 846.17 918.20 822.32 951.94
  Q 813.30 964.71 804.18 977.40
  Q 792.88 993.10 781.51 1008.76
  Q 780.94 1009.55 779.31 1012.69
  A 1.13 1.12 -49.5 0 0 779.40 1013.87
  L 780.79 1015.79
  Z
  M 91.82 871.04
  L 91.83 863.49
  Q 91.83 862.78 91.17 862.52
  Q 88.57 861.50 85.55 860.00
  C 83.12 858.78 80.67 859.27 78.01 857.85
  Q 69.25 853.19 60.27 848.94
  Q 57.44 847.61 55.25 845.68
  A 2.08 2.08 0.0 0 1 54.71 843.29
  L 55.35 841.79
  A 1.53 1.48 48.6 0 0 55.40 840.74
  C 53.99 836.35 56.98 831.87 59.37 828.51
  Q 59.88 827.79 60.63 827.34
  L 91.25 808.98
  Q 91.82 808.64 91.82 807.99
  L 91.83 802.93
  Q 91.83 802.25 91.25 802.60
  Q 62.44 819.73 39.35 833.37
  C 36.76 834.91 33.38 839.05 34.31 842.32
  C 35.22 845.54 38.64 845.68 41.04 847.17
  Q 44.41 849.27 48.01 850.94
  Q 68.57 860.49 91.18 871.44
  Q 91.82 871.75 91.82 871.04
  Z
  M 91.56 815.66
  C 89.08 817.37 86.49 818.48 84.20 819.94
  Q 74.54 826.13 64.66 831.98
  Q 60.83 834.25 60.30 837.75
  Q 60.00 839.69 61.62 838.57
  C 66.13 835.45 76.25 827.64 81.75 830.02
  Q 86.48 832.06 91.31 834.09
  Q 91.84 834.31 91.84 833.74
  L 91.81 815.79
  A 0.16 0.16 0.0 0 0 91.56 815.66
  Z
  M 73.37 842.44
  A 0.59 0.59 0.0 0 0 73.57 842.27
  L 77.72 836.80
  A 0.59 0.59 0.0 0 0 76.96 835.93
  L 65.37 842.51
  A 0.59 0.59 0.0 0 0 65.32 843.50
  L 67.45 845.06
  A 0.59 0.59 0.0 0 0 68.06 845.11
  L 73.37 842.44
  Z
  M 46.26 862.65
  C 61.99 870.36 74.58 875.64 87.51 882.40
  C 88.53 882.93 90.29 883.27 91.14 884.25
  Q 91.83 885.05 91.83 884.00
  L 91.83 879.61
  A 1.29 1.28 12.8 0 0 91.09 878.45
  L 36.69 852.46
  A 0.57 0.56 5.0 0 0 35.90 853.12
  L 37.15 857.51
  A 1.99 1.98 -0.5 0 0 38.55 858.88
  C 41.42 859.64 44.41 861.74 46.26 862.65
  Z
  M 136.93 893.34
  Q 139.34 894.95 141.67 895.47
  C 145.64 897.57 150.28 899.29 153.92 901.10
  C 168.05 908.15 182.94 914.91 196.56 921.56
  C 222.78 934.38 246.91 945.28 270.22 956.64
  C 297.87 970.11 325.78 983.04 353.47 996.44
  Q 356.51 997.91 363.07 1000.92
  C 371.11 1004.61 379.90 1009.17 386.93 1012.42
  C 402.30 1019.52 417.48 1026.95 432.75 1034.25
  C 440.47 1037.94 453.54 1043.70 463.61 1049.18
  C 472.15 1053.83 483.68 1044.98 491.08 1040.43
  Q 551.05 1003.63 611.48 966.66
  A 1.14 1.13 -27.2 0 0 611.93 965.26
  L 610.36 961.52
  Q 610.05 960.78 609.37 961.20
  Q 552.03 996.50 494.47 1031.67
  C 485.39 1037.23 475.47 1041.52 464.74 1038.03
  Q 457.32 1035.61 441.54 1027.34
  C 435.20 1024.02 428.38 1021.27 421.81 1018.11
  Q 409.64 1012.25 409.54 1012.20
  Q 376.18 996.61 343.20 981.00
  Q 333.38 976.35 323.54 971.73
  L 141.74 886.39
  L 137.41 884.04
  Q 137.23 883.94 137.06 884.06
  Q 136.93 884.15 136.88 884.30
  L 136.44 883.77
  Q 136.08 883.35 135.53 883.23
  Q 133.94 882.88 132.78 881.74
  Q 132.42 881.39 131.94 881.29
  Q 131.34 881.16 130.86 880.94
  Q 114.10 873.22 96.88 865.39
  A 0.22 0.22 0.0 0 0 96.57 865.59
  L 96.64 873.73
  Q 96.64 873.99 96.88 874.10
  L 136.93 893.34
  Z
  M 136.88 905.70
  Q 136.98 906.08 137.20 906.35
  C 137.52 906.76 140.28 907.60 141.11 908.17
  Q 141.44 908.40 141.58 908.02
  L 141.67 907.78
  Q 141.64 908.14 141.95 908.29
  C 146.89 910.68 152.18 912.88 156.83 915.19
  C 169.80 921.62 182.91 927.85 195.99 934.04
  Q 213.11 942.14 230.28 950.14
  Q 236.11 952.86 241.85 955.73
  C 256.97 963.30 272.47 970.21 287.67 977.61
  Q 304.13 985.62 320.72 993.33
  C 323.96 994.84 327.78 996.95 331.39 998.57
  C 340.74 1002.78 349.91 1007.37 359.14 1011.83
  C 363.81 1014.09 370.15 1016.77 375.55 1019.52
  C 385.12 1024.37 394.40 1028.33 402.31 1032.20
  Q 430.77 1046.12 459.44 1059.59
  Q 462.52 1061.04 465.49 1062.72
  C 473.61 1067.34 487.54 1056.79 494.49 1052.52
  Q 555.10 1015.36 615.64 978.28
  Q 616.11 977.99 615.95 977.47
  L 614.61 973.02
  Q 614.43 972.44 613.90 972.74
  Q 608.29 975.92 602.62 979.40
  Q 546.65 1013.71 490.58 1047.85
  C 480.32 1054.10 468.97 1058.02 457.21 1052.79
  C 446.06 1047.84 435.37 1042.03 424.24 1037.08
  C 415.97 1033.40 404.56 1027.69 399.73 1025.41
  Q 365.15 1009.09 330.72 992.47
  C 302.98 979.08 275.01 966.15 247.27 952.73
  C 242.99 950.66 237.74 948.47 233.04 946.17
  Q 215.96 937.83 198.83 929.58
  Q 170.45 915.91 141.79 902.70
  Q 139.57 900.57 136.79 900.08
  L 97.23 881.36
  Q 96.57 881.04 96.58 881.78
  L 96.62 885.97
  Q 96.63 886.61 97.21 886.88
  L 136.88 905.70
  Z
  M 449.46 1020.75
  A 0.64 0.64 0.0 0 0 449.68 1021.94
  L 453.24 1022.54
  A 0.64 0.64 0.0 0 0 453.65 1022.47
  L 459.15 1019.49
  A 0.64 0.64 0.0 0 0 459.36 1019.30
  L 463.04 1014.30
  A 0.64 0.64 0.0 0 0 462.21 1013.37
  L 449.46 1020.75
  Z
  M 768.41 1027.17
  Q 764.21 1033.43 753.61 1047.73
  C 747.71 1055.68 741.58 1064.56 735.43 1072.90
  Q 734.48 1074.19 735.63 1075.29
  L 736.39 1076.02
  Q 737.67 1077.23 738.69 1075.80
  L 777.07 1022.11
  A 3.09 3.07 50.6 0 0 777.36 1019.03
  L 777.11 1018.49
  Q 776.34 1016.83 775.12 1018.20
  Q 772.30 1021.37 768.41 1027.17
  Z"
/>
<path fill="#fec5fe" d="
  M 286.98 142.10
  Q 763.23 142.08 1239.38 142.12
  Q 1252.58 142.12 1259.35 142.79
  Q 1302.72 147.05 1337.94 174.83
  L 1349.31 185.02
  Q 1353.53 189.74 1357.69 194.77
  Q 1388.36 231.84 1391.58 279.26
  Q 1391.95 284.74 1391.95 299.25
  Q 1391.93 772.20 1391.94 1245.14
  Q 1391.94 1258.18 1391.22 1265.10
  C 1383.45 1340.36 1320.24 1396.97 1244.75 1396.96
  Q 829.25 1396.88 413.67 1396.88
  Q 413.26 1396.88 413.14 1397.27
  L 405.84 1422.41
  A 0.12 0.12 0.0 0 1 405.62 1422.42
  L 395.05 1397.43
  Q 394.83 1396.89 394.25 1396.89
  Q 342.45 1396.86 290.49 1396.90
  Q 277.04 1396.91 270.51 1396.32
  C 239.07 1393.46 213.13 1381.53 188.34 1362.07
  L 177.58 1351.83
  Q 143.62 1315.37 137.83 1266.72
  Q 136.95 1259.30 136.95 1246.76
  Q 136.97 1080.12 136.95 913.50
  Q 136.83 913.38 136.83 912.89
  Q 139.92 913.25 141.64 915.16
  Q 141.61 1077.80 141.63 1240.26
  Q 141.63 1253.89 142.16 1260.24
  Q 146.63 1314.58 186.18 1353.08
  Q 188.42 1355.26 191.95 1358.05
  L 203.44 1366.93
  Q 233.96 1387.77 270.28 1391.44
  Q 276.94 1392.11 290.27 1392.16
  Q 335.26 1392.32 380.27 1392.16
  Q 382.21 1392.15 380.34 1391.63
  L 366.76 1387.86
  Q 366.21 1387.71 366.74 1387.48
  L 392.60 1376.47
  Q 393.15 1376.23 393.30 1375.66
  L 394.55 1370.95
  L 396.06 1366.18
  L 401.14 1348.76
  Q 401.32 1348.15 401.58 1348.73
  L 409.33 1366.20
  L 411.21 1370.96
  L 412.62 1374.65
  Q 412.80 1375.10 413.26 1375.24
  L 440.23 1383.05
  Q 440.86 1383.24 440.26 1383.49
  L 420.28 1391.89
  Q 420.08 1391.97 420.30 1391.99
  Q 423.27 1392.26 426.25 1392.26
  Q 830.25 1392.23 1234.25 1392.22
  Q 1248.75 1392.22 1254.23 1391.83
  C 1324.24 1386.95 1379.87 1332.25 1386.58 1262.74
  Q 1387.22 1256.05 1387.22 1242.75
  Q 1387.26 769.37 1387.22 296.01
  Q 1387.22 282.84 1386.54 276.03
  Q 1382.35 234.14 1356.17 200.73
  L 1345.95 189.43
  Q 1341.99 185.07 1337.19 181.05
  Q 1301.75 151.34 1256.22 147.35
  Q 1249.80 146.78 1236.24 146.78
  Q 759.00 146.77 281.75 146.78
  Q 275.02 146.78 269.89 149.02
  Q 269.96 148.50 269.44 147.90
  Q 269.14 147.55 269.58 147.41
  L 286.98 142.10
  Z"
/>
<path fill="#fec5fe" d="
  M 223.63 154.82
  Q 226.16 156.41 225.56 159.46
  C 174.10 183.50 141.84 232.87 141.79 289.75
  Q 141.59 527.37 141.65 765.46
  Q 140.28 767.32 136.96 767.83
  Q 136.97 530.39 136.95 293.24
  Q 136.95 280.22 137.68 273.29
  C 143.24 220.91 175.79 176.87 223.63 154.82
  Z"
/>
<path fill="#000000" d="
  M 1345.95 189.43
  L 1356.17 200.73
  Q 1356.74 203.55 1358.40 208.83
  C 1362.75 222.73 1363.77 237.54 1363.77 253.75
  Q 1363.78 737.12 1363.76 1220.50
  Q 1363.76 1233.37 1362.95 1240.47
  C 1354.89 1311.20 1297.98 1365.61 1227.24 1370.59
  Q 1221.77 1370.97 1207.25 1370.97
  Q 809.23 1370.93 411.21 1370.96
  L 409.33 1366.20
  Q 807.95 1366.16 1206.26 1366.20
  Q 1220.58 1366.20 1226.24 1365.80
  C 1296.98 1360.76 1353.44 1304.64 1358.61 1233.74
  Q 1359.01 1228.22 1359.01 1213.75
  Q 1359.01 734.50 1359.01 255.25
  C 1359.01 231.81 1355.59 211.04 1345.95 189.43
  Z"
/>
<path fill="#fec5fe" d="
  M 939.43 245.93
  L 966.59 253.76
  A 0.31 0.31 0.0 0 1 966.63 254.34
  L 940.58 265.33
  A 0.31 0.31 0.0 0 0 940.41 265.53
  L 932.58 292.69
  A 0.31 0.31 0.0 0 1 932.00 292.73
  L 921.01 266.68
  A 0.31 0.31 0.0 0 0 920.81 266.51
  L 893.65 258.68
  A 0.31 0.31 0.0 0 1 893.61 258.10
  L 919.66 247.11
  A 0.31 0.31 0.0 0 0 919.83 246.91
  L 927.66 219.75
  A 0.31 0.31 0.0 0 1 928.24 219.71
  L 939.23 245.76
  A 0.31 0.31 0.0 0 0 939.43 245.93
  Z"
/>
<path fill="#000000" d="
  M 1224.50 312.41
  L 1278.21 327.88
  A 0.32 0.32 0.0 0 1 1278.25 328.48
  L 1226.74 350.20
  A 0.32 0.32 0.0 0 0 1226.56 350.41
  L 1211.09 404.12
  A 0.32 0.32 0.0 0 1 1210.49 404.16
  L 1188.77 352.65
  A 0.32 0.32 0.0 0 0 1188.56 352.47
  L 1134.85 337.00
  A 0.32 0.32 0.0 0 1 1134.81 336.40
  L 1186.32 314.68
  A 0.32 0.32 0.0 0 0 1186.50 314.47
  L 1201.97 260.76
  A 0.32 0.32 0.0 0 1 1202.57 260.72
  L 1224.29 312.23
  A 0.32 0.32 0.0 0 0 1224.50 312.41
  Z"
/>
<path fill="#fec5fe" d="
  M 721.72 376.76
  L 775.41 392.21
  A 0.32 0.32 0.0 0 1 775.45 392.81
  L 723.97 414.52
  A 0.32 0.32 0.0 0 0 723.78 414.72
  L 708.33 468.41
  A 0.32 0.32 0.0 0 1 707.73 468.45
  L 686.02 416.97
  A 0.32 0.32 0.0 0 0 685.82 416.78
  L 632.13 401.33
  A 0.32 0.32 0.0 0 1 632.09 400.73
  L 683.57 379.02
  A 0.32 0.32 0.0 0 0 683.76 378.82
  L 699.21 325.13
  A 0.32 0.32 0.0 0 1 699.81 325.09
  L 721.52 376.57
  A 0.32 0.32 0.0 0 0 721.72 376.76
  Z"
/>
<path fill="#000000" d="
  M 585.88 818.65
  C 581.78 807.20 579.34 794.86 586.85 784.26
  Q 594.83 773.01 603.49 762.28
  C 606.48 758.58 609.28 754.41 612.45 750.19
  C 633.39 722.34 654.10 694.26 675.37 666.66
  C 678.38 662.76 681.53 658.18 684.14 654.72
  C 716.79 611.35 749.25 567.82 782.04 524.55
  C 788.94 515.44 795.49 506.60 802.14 497.62
  C 814.51 480.89 827.20 464.41 839.51 447.63
  C 846.37 438.27 855.58 427.24 862.06 417.55
  Q 866.93 410.29 873.73 406.79
  C 878.63 404.27 883.81 407.78 887.30 411.68
  Q 889.12 413.72 890.23 416.92
  C 894.57 429.54 899.19 442.06 903.42 454.70
  C 908.49 469.85 914.28 484.89 919.35 500.09
  Q 921.30 505.91 923.42 511.67
  C 927.04 521.45 930.13 531.24 933.80 540.92
  C 935.12 544.41 936.16 548.23 937.36 551.44
  Q 941.08 561.40 944.61 571.43
  Q 979.35 670.06 988.56 695.70
  Q 989.42 698.08 989.63 699.92
  Q 989.69 700.45 989.30 700.81
  Q 984.54 705.33 979.46 712.48
  Q 945.11 760.87 910.88 809.34
  Q 903.59 819.66 896.02 829.79
  C 891.93 835.26 888.08 841.00 884.09 846.61
  C 849.35 895.37 814.53 944.08 779.83 992.87
  Q 755.43 1027.20 731.13 1061.60
  Q 727.16 1067.20 723.05 1072.71
  C 714.08 1084.73 705.69 1097.16 696.68 1109.17
  C 694.04 1112.68 691.01 1109.64 690.05 1106.68
  C 685.20 1091.74 679.38 1077.01 674.01 1062.24
  C 644.52 981.09 614.98 899.95 585.88 818.65
  Z
  M 710.43 629.88
  C 702.52 640.66 694.39 651.14 686.56 661.91
  C 684.40 664.87 681.60 668.11 679.28 671.33
  C 671.81 681.69 663.45 692.31 658.23 699.23
  C 656.48 701.55 654.69 704.43 652.77 706.84
  C 644.03 717.78 634.93 730.64 627.55 740.31
  Q 618.68 751.92 609.86 763.57
  C 605.06 769.91 596.93 781.47 589.79 789.95
  C 583.59 797.30 588.33 807.52 591.13 815.28
  Q 615.17 882.03 639.45 948.71
  C 643.73 960.46 647.78 971.60 652.12 984.08
  Q 653.90 989.19 655.91 994.23
  C 659.01 1002.01 661.37 1010.08 664.52 1017.89
  C 667.12 1024.35 669.06 1031.11 671.60 1037.64
  Q 675.00 1046.39 677.07 1052.38
  C 679.42 1059.19 682.36 1066.36 684.57 1072.59
  Q 689.55 1086.65 694.79 1100.43
  A 0.48 0.47 52.3 0 0 695.62 1100.54
  L 982.33 698.19
  A 1.38 1.38 0.0 0 0 982.50 696.90
  Q 978.95 687.39 975.42 677.78
  C 975.03 676.73 974.95 675.58 974.54 674.49
  Q 965.93 651.08 957.77 627.51
  Q 955.37 620.58 952.95 613.67
  Q 948.91 602.13 944.65 590.66
  C 942.56 585.05 940.58 578.78 938.43 572.86
  Q 935.65 565.24 933.72 559.54
  C 928.87 545.18 923.47 530.99 918.53 516.66
  C 915.94 509.13 913.04 501.63 910.58 494.08
  C 907.34 484.08 903.89 475.36 900.80 465.89
  C 898.69 459.43 895.80 452.53 893.70 445.73
  C 890.77 436.23 887.05 426.96 883.94 417.50
  C 882.94 414.44 877.10 408.49 873.79 412.54
  Q 864.15 424.30 850.23 443.58
  C 845.57 450.03 840.24 456.72 835.34 463.38
  C 816.76 488.71 797.59 513.53 778.78 538.79
  Q 763.31 559.55 747.71 580.21
  Q 746.71 581.53 744.83 584.30
  C 742.69 587.47 739.31 591.53 737.92 593.38
  Q 729.60 604.46 721.20 615.47
  Q 715.75 622.62 710.43 629.88
  Z"
/>
<path fill="#fec5fe" d="
  M 952.81 560.86
  L 945.55 558.99
  Q 945.42 559.16 945.05 558.41
  L 951.29 555.96
  L 971.54 547.44
  A 1.57 1.57 0.0 0 0 972.43 546.44
  L 980.22 519.54
  Q 980.34 519.13 980.50 519.52
  L 991.42 545.29
  A 1.67 1.67 0.0 0 0 992.50 546.25
  L 1019.21 554.02
  Q 1019.78 554.19 1019.23 554.42
  L 993.53 565.32
  A 1.45 1.44 86.5 0 0 992.71 566.25
  L 984.90 593.22
  Q 984.77 593.65 984.60 593.24
  L 973.57 567.25
  A 1.18 1.14 85.7 0 0 972.84 566.60
  L 952.81 560.86
  Z"
/>
<path fill="#000000" d="
  M 531.04 564.90
  C 531.55 560.53 531.66 556.55 533.41 552.39
  A 2.21 2.21 0.0 0 1 536.56 551.34
  C 545.62 556.65 550.66 571.15 553.57 581.00
  C 556.77 591.84 562.65 609.56 555.90 618.10
  C 554.17 620.29 552.50 622.67 550.27 624.24
  C 539.35 631.92 524.42 626.47 515.01 619.19
  C 506.37 612.51 499.97 604.28 494.46 594.66
  C 485.54 579.09 484.86 563.00 485.93 545.51
  Q 486.43 537.33 487.75 534.25
  C 490.51 527.79 495.99 531.20 498.64 535.37
  C 501.66 540.11 503.62 547.76 505.86 553.75
  Q 506.03 554.20 506.50 554.29
  Q 508.82 554.70 512.30 556.22
  Q 523.52 561.11 530.61 565.12
  Q 530.99 565.33 531.04 564.90
  Z
  M 512.4293 588.5246
  A 9.39 5.26 66.4 0 0 513.4901 577.8142
  A 9.39 5.26 66.4 0 0 504.9107 571.3154
  A 9.39 5.26 66.4 0 0 503.8499 582.0258
  A 9.39 5.26 66.4 0 0 512.4293 588.5246
  Z
  M 532.84 596.50
  C 534.18 598.68 539.82 602.87 541.25 598.45
  C 543.08 592.79 539.63 586.52 534.98 583.27
  Q 532.48 581.53 529.95 582.89
  A 1.20 1.15 84.1 0 0 529.36 583.65
  Q 528.39 587.62 529.88 591.42
  Q 530.19 592.19 530.17 591.36
  C 530.14 589.23 529.35 587.10 530.23 584.94
  A 1.90 1.90 0.0 0 1 532.42 583.82
  C 538.59 585.29 541.89 591.56 540.20 597.60
  A 2.14 2.13 -72.9 0 1 537.47 599.05
  Q 534.97 598.22 533.22 596.27
  Q 533.04 596.07 532.90 596.18
  L 532.90 596.18
  Q 532.73 596.31 532.84 596.50
  Z"
/>
<ellipse fill="#000000" cx="0.00" cy="0.00" transform="translate(508.78,580.05) rotate(63.4)" rx="8.40" ry="4.53"/>
<path fill="#000000" d="
  M 246.56 648.61
  L 260.44 652.63
  A 0.33 0.33 0.0 0 1 260.48 653.26
  L 247.17 658.90
  A 0.33 0.33 0.0 0 0 246.98 659.11
  L 242.96 672.99
  A 0.33 0.33 0.0 0 1 242.33 673.03
  L 236.69 659.72
  A 0.33 0.33 0.0 0 0 236.48 659.53
  L 222.60 655.51
  A 0.33 0.33 0.0 0 1 222.56 654.88
  L 235.87 649.24
  A 0.33 0.33 0.0 0 0 236.06 649.03
  L 240.08 635.15
  A 0.33 0.33 0.0 0 1 240.71 635.11
  L 246.35 648.42
  A 0.33 0.33 0.0 0 0 246.56 648.61
  Z"
/>
<path fill="#000000" d="
  M 779.94 741.35
  C 782.75 735.05 787.57 729.83 794.11 721.86
  Q 799.30 715.53 801.91 713.10
  Q 802.26 712.78 802.22 712.31
  Q 801.40 702.98 801.20 697.51
  C 800.97 691.22 800.93 680.88 809.02 679.06
  C 816.24 677.44 826.10 699.60 828.61 705.35
  C 834.31 718.36 835.65 731.43 833.54 745.49
  C 832.83 750.19 832.23 755.12 831.27 759.47
  C 827.24 777.59 818.55 800.35 802.02 812.00
  Q 791.10 819.71 778.77 813.91
  C 766.82 808.29 763.08 779.48 761.39 767.97
  C 759.94 758.13 757.59 737.69 765.75 729.99
  C 770.34 725.65 777.14 738.34 779.21 741.42
  A 0.42 0.42 0.0 0 0 779.94 741.35
  Z
  M 810.4826 752.1824
  A 11.55 6.37 96.2 0 0 818.0627 741.3880
  A 11.55 6.37 96.2 0 0 812.9774 729.2176
  A 11.55 6.37 96.2 0 0 805.3973 740.0120
  A 11.55 6.37 96.2 0 0 810.4826 752.1824
  Z
  M 789.62 759.60
  C 789.26 759.62 788.99 759.49 788.62 759.48
  Q 788.27 759.46 787.92 759.69
  C 783.62 762.55 782.05 766.99 781.77 772.02
  C 781.68 773.62 782.29 775.23 782.46 776.90
  C 782.80 780.35 783.75 782.37 786.81 783.84
  A 1.14 1.12 -42.7 0 0 787.73 783.87
  C 791.77 782.20 793.56 776.02 793.79 772.19
  Q 793.85 771.22 793.51 772.13
  C 792.31 775.45 792.79 777.71 789.65 780.63
  Q 786.76 783.31 784.56 779.97
  Q 781.99 776.05 782.45 771.77
  C 782.86 767.94 784.69 763.42 788.11 761.32
  A 2.21 2.21 0.0 0 1 791.02 761.87
  Q 793.08 764.61 793.62 768.10
  Q 793.63 768.21 793.81 768.19
  L 793.82 768.19
  Q 793.99 768.18 793.99 768.00
  C 794.01 766.01 792.67 759.39 789.62 759.60
  Z"
/>
<path fill="#000000" d="
  M 310.60 692.25
  C 318.07 695.17 325.81 698.17 332.96 701.79
  Q 335.28 702.97 333.93 705.20
  C 332.27 707.95 330.88 710.82 328.58 712.93
  C 323.55 717.55 313.13 723.75 306.39 719.90
  C 300.29 716.42 293.78 713.66 287.43 710.68
  Q 284.56 709.33 283.14 707.28
  A 2.05 2.05 0.0 0 1 283.75 704.37
  Q 293.11 698.63 301.98 693.02
  C 304.71 691.29 307.41 690.99 310.60 692.25
  Z
  M 301.98 704.32
  A 0.67 0.67 0.0 0 0 302.21 704.12
  L 305.85 699.02
  A 0.67 0.67 0.0 0 0 304.95 698.06
  L 292.45 705.60
  A 0.67 0.67 0.0 0 0 292.72 706.84
  L 296.32 707.27
  A 0.67 0.67 0.0 0 0 296.72 707.20
  L 301.98 704.32
  Z"
/>
<path fill="#000000" d="
  M 1201.74 716.08
  Q 1205.37 715.89 1209.01 716.12
  C 1214.47 716.46 1219.82 716.40 1224.80 716.27
  C 1232.29 716.07 1239.75 716.42 1247.24 716.34
  Q 1247.61 716.33 1247.91 716.48
  Q 1248.35 716.69 1248.82 716.63
  C 1254.43 715.92 1259.93 716.53 1265.30 716.45
  C 1269.50 716.38 1273.56 716.68 1277.81 716.38
  C 1281.81 716.09 1285.06 716.69 1288.25 716.66
  Q 1303.61 716.52 1319.04 716.63
  A 4.63 4.59 -30.1 0 1 1321.30 717.22
  C 1325.07 719.33 1330.42 721.45 1331.33 726.32
  C 1331.95 729.66 1329.85 736.34 1327.93 739.42
  C 1323.86 745.97 1319.14 751.90 1314.98 758.31
  C 1304.34 774.70 1293.09 790.68 1282.08 806.82
  C 1273.33 819.65 1264.57 833.09 1256.02 845.45
  Q 1243.69 863.28 1231.68 881.32
  C 1223.32 893.86 1214.37 906.67 1205.89 919.47
  C 1203.33 923.32 1200.13 927.52 1197.38 931.64
  Q 1172.71 968.50 1147.78 1005.19
  Q 1146.46 1007.14 1145.11 1009.09
  C 1130.79 1029.71 1116.87 1050.60 1102.65 1071.29
  C 1099.71 1075.57 1092.40 1086.84 1086.96 1094.39
  C 1080.03 1103.99 1073.95 1114.17 1067.04 1123.82
  C 1059.20 1134.75 1048.16 1136.77 1035.41 1136.75
  C 1023.10 1136.72 1010.72 1136.25 998.51 1136.22
  Q 989.25 1136.20 980.00 1135.97
  Q 976.69 1135.89 973.38 1135.76
  Q 960.82 1135.26 948.26 1135.21
  C 944.92 1135.20 941.15 1135.06 938.33 1135.03
  C 890.63 1134.43 842.95 1133.29 795.25 1132.71
  C 790.34 1132.65 785.35 1132.26 780.58 1132.29
  Q 773.10 1132.35 765.64 1132.12
  C 756.23 1131.83 746.68 1132.03 737.21 1131.66
  Q 728.73 1131.34 720.24 1131.49
  C 716.97 1131.55 713.81 1129.35 716.27 1125.76
  C 724.84 1113.27 734.01 1101.20 742.58 1088.71
  Q 746.30 1083.29 750.18 1077.98
  C 773.12 1046.65 795.48 1014.92 818.25 983.47
  C 826.30 972.36 834.13 961.08 842.18 949.97
  C 849.14 940.35 857.48 928.88 865.50 917.37
  C 869.43 911.73 873.98 905.92 877.62 900.73
  C 890.67 882.10 904.37 863.92 917.30 845.21
  C 921.63 838.95 926.72 832.42 930.69 826.77
  C 943.69 808.23 957.26 790.07 970.20 771.49
  C 973.48 766.77 977.42 761.68 980.33 757.59
  Q 992.65 740.28 1004.87 722.91
  Q 1006.87 720.06 1007.73 717.12
  A 2.44 2.44 0.0 0 1 1010.07 715.38
  L 1108.92 715.77
  Q 1109.40 715.77 1109.86 715.92
  C 1110.77 716.20 1111.61 715.75 1112.43 715.77
  Q 1123.34 715.97 1134.25 715.73
  Q 1134.53 715.72 1134.88 715.92
  Q 1135.30 716.17 1135.79 716.10
  C 1139.25 715.62 1143.58 716.04 1145.99 716.03
  Q 1152.62 715.99 1159.25 715.90
  Q 1159.60 715.89 1159.90 716.04
  Q 1160.34 716.26 1160.81 716.20
  Q 1163.75 715.83 1168.17 716.11
  Q 1172.05 716.35 1182.25 715.88
  C 1183.63 715.82 1185.29 716.28 1186.91 716.18
  C 1191.88 715.89 1196.68 716.35 1201.74 716.08
  Z
  M 986.15 759.74
  Q 985.99 759.95 986.26 759.95
  L 997.11 759.91
  A 0.45 0.43 17.2 0 0 997.47 759.73
  C 999.71 756.46 1001.82 752.94 1004.02 749.90
  Q 1013.14 737.26 1024.18 721.92
  Q 1024.32 721.72 1024.08 721.72
  L 1014.00 721.58
  Q 1013.70 721.57 1013.53 721.81
  L 986.15 759.74
  Z
  M 1027.90 722.47
  C 1027.82 726.00 1021.94 732.54 1020.28 735.09
  Q 1011.98 747.78 1003.08 760.02
  A 0.24 0.24 0.0 0 0 1003.26 760.40
  L 1018.95 760.98
  A 3.08 3.07 18.7 0 0 1021.57 759.69
  L 1048.33 722.28
  A 0.36 0.35 17.7 0 0 1048.04 721.72
  L 1028.54 721.84
  Q 1027.91 721.84 1027.90 722.47
  Z
  M 1052.59 723.03
  L 1026.36 760.60
  A 0.60 0.60 0.0 0 0 1026.84 761.54
  L 1046.88 762.09
  A 2.21 2.21 0.0 0 0 1048.76 761.13
  C 1051.97 756.44 1055.53 751.91 1058.66 747.17
  Q 1064.72 738.02 1071.43 729.33
  C 1072.70 727.67 1074.19 724.70 1076.16 723.20
  Q 1077.81 721.94 1075.73 721.94
  L 1054.69 721.94
  A 2.57 2.54 17.3 0 0 1052.59 723.03
  Z
  M 1079.39 724.34
  C 1079.09 725.32 1078.27 725.97 1077.87 726.56
  Q 1065.83 744.16 1053.29 761.83
  A 0.62 0.61 18.4 0 0 1053.78 762.80
  L 1075.67 763.35
  Q 1077.12 763.38 1077.97 762.20
  Q 1089.78 745.70 1101.00 729.05
  Q 1103.22 725.74 1105.63 723.68
  Q 1107.32 722.22 1105.09 722.17
  Q 1092.66 721.86 1079.78 722.09
  Q 1079.37 722.09 1078.96 722.45
  Q 1078.61 722.75 1078.93 723.08
  Q 1079.21 723.37 1079.35 723.68
  Q 1079.49 723.99 1079.39 724.34
  Z
  M 1082.96 763.77
  C 1091.11 764.44 1099.21 764.84 1107.40 765.14
  C 1108.80 765.19 1110.17 765.82 1111.63 766.05
  Q 1112.13 766.13 1112.42 765.72
  L 1142.68 722.85
  A 0.48 0.47 17.2 0 0 1142.28 722.10
  Q 1129.07 722.34 1115.85 722.05
  C 1110.88 721.94 1111.47 721.99 1108.86 725.74
  Q 1100.13 738.29 1091.44 750.88
  C 1089.29 754.00 1085.35 758.94 1082.73 763.33
  A 0.29 0.29 0.0 0 0 1082.96 763.77
  Z
  M 1174.63 722.74
  A 0.32 0.32 0.0 0 0 1174.37 722.23
  L 1148.43 722.31
  A 0.32 0.32 0.0 0 0 1148.17 722.44
  L 1135.05 740.96
  A 0.32 0.32 0.0 0 0 1135.29 741.46
  L 1160.21 742.79
  A 0.32 0.32 0.0 0 0 1160.49 742.66
  L 1174.63 722.74
  Z
  M 897.39 1125.39
  Q 896.54 1126.63 895.73 1127.25
  Q 894.69 1128.04 895.99 1128.07
  Q 962.81 1129.31 1029.87 1130.37
  Q 1033.21 1130.42 1040.01 1130.82
  C 1045.19 1131.12 1049.11 1130.46 1053.74 1128.93
  C 1059.63 1126.98 1060.80 1121.70 1063.20 1118.24
  Q 1080.56 1093.18 1097.47 1067.82
  C 1102.23 1060.68 1108.02 1052.69 1113.14 1045.00
  Q 1119.98 1034.72 1124.33 1028.42
  C 1133.54 1015.09 1142.35 1001.46 1151.60 988.16
  Q 1162.69 972.22 1169.20 962.26
  C 1171.39 958.92 1173.92 955.64 1175.65 952.96
  C 1192.23 927.33 1209.74 903.00 1228.50 874.81
  C 1246.74 847.41 1265.01 821.55 1282.85 794.66
  C 1296.81 773.63 1311.48 753.39 1325.03 732.24
  C 1328.66 726.56 1322.81 723.11 1318.00 723.05
  C 1307.50 722.91 1296.93 722.54 1286.43 722.75
  C 1279.18 722.90 1271.29 722.51 1263.68 722.73
  C 1255.67 722.96 1247.16 722.36 1238.08 722.52
  C 1219.30 722.84 1200.48 722.01 1181.70 722.44
  Q 1179.33 722.49 1178.93 724.13
  Q 1178.82 724.62 1178.52 725.02
  C 1169.78 736.88 1160.57 750.71 1153.19 761.17
  Q 1114.48 816.00 1075.80 870.85
  Q 1070.64 878.17 1065.50 885.52
  C 1054.83 900.76 1044.35 916.10 1033.42 931.17
  C 1024.93 942.88 1017.00 955.08 1008.60 966.87
  C 976.56 1011.87 945.08 1057.28 913.17 1102.37
  C 912.00 1104.02 911.20 1106.29 909.75 1108.03
  C 905.18 1113.49 901.40 1119.52 897.39 1125.39
  Z
  M 1096.97 795.43
  L 1077.61 823.07
  A 0.51 0.51 0.0 0 0 1077.98 823.87
  Q 1087.46 824.69 1097.01 824.89
  Q 1099.33 824.94 1100.80 826.67
  Q 1101.13 827.05 1101.42 826.64
  L 1156.81 747.80
  A 0.46 0.46 0.0 0 0 1156.45 747.08
  L 1132.39 746.33
  A 1.84 1.84 0.0 0 0 1130.83 747.11
  Q 1123.30 757.86 1115.58 768.82
  Q 1114.42 770.47 1111.95 770.92
  C 1110.11 771.25 1108.73 770.00 1107.25 770.00
  Q 1100.67 769.97 1094.11 769.44
  C 1089.38 769.06 1084.69 769.23 1079.98 768.98
  A 2.35 2.34 -70.7 0 0 1077.94 769.97
  L 1063.93 789.72
  A 0.45 0.45 0.0 0 0 1064.30 790.43
  C 1074.84 790.50 1085.42 790.92 1095.92 792.86
  A 1.65 1.65 0.0 0 1 1096.97 795.43
  Z
  M 992.92 764.94
  C 990.89 764.82 985.77 765.30 985.17 762.78
  Q 985.06 762.36 984.71 762.61
  Q 984.10 763.03 983.86 763.37
  Q 979.76 769.20 975.40 774.85
  C 973.10 777.83 971.03 781.65 968.45 784.82
  A 0.67 0.67 0.0 0 0 968.94 785.91
  L 977.13 786.36
  A 2.29 2.29 0.0 0 0 979.13 785.39
  L 993.16 765.45
  A 0.32 0.32 0.0 0 0 992.92 764.94
  Z
  M 985.24 785.86
  A 0.33 0.33 0.0 0 0 985.50 786.37
  L 1002.18 787.35
  A 0.33 0.33 0.0 0 0 1002.48 787.21
  L 1016.57 766.61
  A 0.33 0.33 0.0 0 0 1016.32 766.10
  L 999.76 765.14
  A 0.33 0.33 0.0 0 0 999.46 765.28
  L 985.24 785.86
  Z
  M 1008.00 786.95
  A 0.32 0.32 0.0 0 0 1008.24 787.45
  L 1029.14 788.67
  A 0.32 0.32 0.0 0 0 1029.42 788.53
  L 1043.99 767.93
  A 0.32 0.32 0.0 0 0 1043.75 767.43
  L 1022.79 766.17
  A 0.32 0.32 0.0 0 0 1022.51 766.31
  L 1008.00 786.95
  Z
  M 1034.92 787.97
  A 0.49 0.49 0.0 0 0 1035.29 788.75
  L 1058.45 789.76
  A 0.49 0.49 0.0 0 0 1058.87 789.55
  L 1072.85 769.30
  A 0.49 0.49 0.0 0 0 1072.47 768.54
  L 1049.71 767.66
  A 0.49 0.49 0.0 0 0 1049.30 767.86
  L 1034.92 787.97
  Z
  M 944.93 817.39
  A 0.35 0.35 0.0 0 0 945.20 817.94
  L 955.82 818.53
  A 0.35 0.35 0.0 0 0 956.13 818.38
  L 974.07 791.99
  A 0.35 0.35 0.0 0 0 973.82 791.45
  L 964.31 790.61
  A 0.35 0.35 0.0 0 0 963.99 790.75
  L 944.93 817.39
  Z
  M 962.51 818.06
  A 0.33 0.33 0.0 0 0 962.77 818.58
  L 979.36 819.37
  A 0.33 0.33 0.0 0 0 979.64 819.23
  L 998.26 792.89
  A 0.33 0.33 0.0 0 0 998.00 792.37
  L 981.28 791.46
  A 0.33 0.33 0.0 0 0 980.99 791.60
  L 962.51 818.06
  Z
  M 985.37 819.14
  A 0.47 0.47 0.0 0 0 985.74 819.88
  L 1006.87 820.48
  A 0.47 0.47 0.0 0 0 1007.27 820.28
  L 1025.45 794.10
  A 0.47 0.47 0.0 0 0 1025.08 793.37
  L 1004.24 792.56
  A 0.47 0.47 0.0 0 0 1003.83 792.76
  L 985.37 819.14
  Z
  M 1054.45 795.57
  A 0.40 0.40 0.0 0 0 1054.14 794.94
  L 1031.39 793.61
  A 0.40 0.40 0.0 0 0 1031.04 793.78
  L 1012.44 820.25
  A 0.40 0.40 0.0 0 0 1012.74 820.88
  L 1035.67 822.05
  A 0.40 0.40 0.0 0 0 1036.02 821.88
  L 1054.45 795.57
  Z
  M 1090.22 796.94
  A 0.43 0.43 0.0 0 0 1089.89 796.26
  L 1060.81 794.91
  A 0.43 0.43 0.0 0 0 1060.44 795.09
  L 1041.64 821.64
  A 0.43 0.43 0.0 0 0 1041.97 822.31
  L 1071.56 823.57
  A 0.43 0.43 0.0 0 0 1071.93 823.38
  L 1090.22 796.94
  Z
  M 944.16 822.45
  L 943.61 821.35
  Q 943.18 820.49 942.53 821.21
  C 939.10 825.02 935.87 830.15 933.67 833.17
  Q 928.59 840.17 923.89 847.03
  A 0.11 0.11 0.0 0 0 923.98 847.20
  L 934.91 847.49
  A 0.74 0.71 17.4 0 0 935.53 847.18
  L 951.17 824.81
  Q 952.30 823.20 950.33 823.15
  L 945.06 823.01
  A 1.03 1.02 -13.0 0 1 944.16 822.45
  Z
  M 941.87 847.41
  A 0.31 0.31 0.0 0 0 942.11 847.90
  L 958.98 848.38
  A 0.31 0.31 0.0 0 0 959.25 848.24
  L 975.49 825.06
  A 0.31 0.31 0.0 0 0 975.25 824.57
  L 958.98 823.67
  A 0.31 0.31 0.0 0 0 958.71 823.80
  L 941.87 847.41
  Z
  M 1002.89 826.37
  A 0.50 0.50 0.0 0 0 1002.50 825.58
  L 981.66 824.88
  A 0.50 0.50 0.0 0 0 981.23 825.09
  L 965.20 848.08
  A 0.50 0.50 0.0 0 0 965.59 848.87
  L 986.22 849.48
  A 0.50 0.50 0.0 0 0 986.64 849.27
  L 1002.89 826.37
  Z
  M 1031.54 828.30
  A 0.78 0.78 0.0 0 0 1030.94 827.08
  L 1008.82 825.91
  A 0.78 0.78 0.0 0 0 1008.14 826.24
  L 992.28 848.66
  A 0.78 0.78 0.0 0 0 992.87 849.89
  L 1015.18 851.07
  A 0.78 0.78 0.0 0 0 1015.86 850.74
  L 1031.54 828.30
  Z
  M 1067.75 829.12
  A 0.31 0.31 0.0 0 0 1067.52 828.63
  L 1038.00 827.24
  A 0.31 0.31 0.0 0 0 1037.73 827.37
  L 1021.34 850.74
  A 0.31 0.31 0.0 0 0 1021.58 851.23
  L 1050.93 852.71
  A 0.31 0.31 0.0 0 0 1051.20 852.58
  L 1067.75 829.12
  Z
  M 1098.58 830.78
  A 0.66 0.66 0.0 0 0 1098.06 829.74
  L 1073.91 828.86
  A 0.66 0.66 0.0 0 0 1073.34 829.14
  L 956.88 994.79
  A 0.66 0.66 0.0 0 0 957.40 995.83
  L 981.49 996.84
  A 0.66 0.66 0.0 0 0 982.06 996.56
  L 1098.58 830.78
  Z
  M 901.99 877.24
  A 0.35 0.35 0.0 0 0 902.26 877.80
  L 913.69 878.26
  A 0.35 0.35 0.0 0 0 913.99 878.11
  L 931.31 852.94
  A 0.35 0.35 0.0 0 0 931.05 852.40
  L 920.84 851.49
  A 0.35 0.35 0.0 0 0 920.52 851.63
  L 901.99 877.24
  Z
  M 920.55 877.87
  A 0.60 0.60 0.0 0 0 921.02 878.81
  L 936.91 879.30
  A 0.60 0.60 0.0 0 0 937.42 879.05
  L 954.65 854.61
  A 0.60 0.60 0.0 0 0 954.20 853.67
  L 938.76 852.64
  A 0.60 0.60 0.0 0 0 938.23 852.89
  L 920.55 877.87
  Z
  M 943.65 879.09
  A 0.42 0.42 0.0 0 0 943.98 879.75
  L 964.46 880.50
  A 0.42 0.42 0.0 0 0 964.82 880.33
  L 982.49 855.50
  A 0.42 0.42 0.0 0 0 982.17 854.84
  L 961.37 853.76
  A 0.42 0.42 0.0 0 0 961.01 853.94
  L 943.65 879.09
  Z
  M 1011.53 856.97
  A 0.63 0.63 0.0 0 0 1011.04 855.98
  L 988.21 855.16
  A 0.63 0.63 0.0 0 0 987.67 855.43
  L 970.46 879.93
  A 0.63 0.63 0.0 0 0 970.94 880.92
  L 993.24 882.07
  A 0.63 0.63 0.0 0 0 993.78 881.81
  L 1011.53 856.97
  Z
  M 1047.00 858.54
  A 0.57 0.57 0.0 0 0 1046.56 857.64
  L 1017.80 856.33
  A 0.57 0.57 0.0 0 0 1017.31 856.57
  L 999.68 881.33
  A 0.57 0.57 0.0 0 0 1000.12 882.23
  L 1029.11 883.67
  A 0.57 0.57 0.0 0 0 1029.60 883.43
  L 1047.00 858.54
  Z
  M 873.89 916.54
  A 0.69 0.68 18.5 0 0 874.43 917.62
  L 884.74 917.89
  A 1.69 1.68 -71.5 0 0 886.15 917.18
  L 909.58 884.10
  A 0.55 0.55 0.0 0 0 909.11 883.23
  C 906.17 883.34 901.98 883.78 899.71 881.53
  Q 899.27 881.10 898.91 881.60
  L 873.89 916.54
  Z
  M 892.74 917.47
  A 0.51 0.51 0.0 0 0 893.13 918.28
  L 908.91 918.90
  A 0.51 0.51 0.0 0 0 909.35 918.69
  L 933.31 885.14
  A 0.51 0.51 0.0 0 0 932.92 884.34
  L 916.78 883.63
  A 0.51 0.51 0.0 0 0 916.34 883.85
  L 892.74 917.47
  Z
  M 915.63 918.59
  A 0.42 0.42 0.0 0 0 915.96 919.26
  L 936.77 920.24
  A 0.42 0.42 0.0 0 0 937.13 920.06
  L 960.68 886.25
  A 0.42 0.42 0.0 0 0 960.35 885.59
  L 939.83 884.75
  A 0.42 0.42 0.0 0 0 939.47 884.93
  L 915.63 918.59
  Z
  M 990.03 887.53
  A 0.33 0.33 0.0 0 0 989.77 887.00
  L 966.40 886.04
  A 0.33 0.33 0.0 0 0 966.12 886.18
  L 942.41 919.90
  A 0.33 0.33 0.0 0 0 942.66 920.42
  L 965.76 921.46
  A 0.33 0.33 0.0 0 0 966.04 921.32
  L 990.03 887.53
  Z
  M 971.88 921.29
  A 0.34 0.34 0.0 0 0 972.14 921.82
  L 1001.43 923.38
  A 0.34 0.34 0.0 0 0 1001.73 923.23
  L 1025.59 889.00
  A 0.34 0.34 0.0 0 0 1025.32 888.46
  L 995.72 887.27
  A 0.34 0.34 0.0 0 0 995.42 887.41
  L 971.88 921.29
  Z
  M 850.96 948.55
  A 0.31 0.31 0.0 0 0 851.20 949.04
  L 863.01 949.84
  A 0.31 0.31 0.0 0 0 863.28 949.71
  L 882.15 923.16
  A 0.31 0.31 0.0 0 0 881.91 922.67
  L 870.11 922.12
  A 0.31 0.31 0.0 0 0 869.84 922.25
  L 850.96 948.55
  Z
  M 870.52 949.42
  A 0.31 0.31 0.0 0 0 870.76 949.91
  L 886.91 950.68
  A 0.31 0.31 0.0 0 0 887.18 950.55
  L 905.51 924.14
  A 0.31 0.31 0.0 0 0 905.27 923.65
  L 889.06 922.90
  A 0.31 0.31 0.0 0 0 888.79 923.03
  L 870.52 949.42
  Z
  M 892.84 951.09
  L 914.11 951.85
  Q 914.71 951.87 915.05 951.38
  L 933.30 925.25
  A 0.26 0.25 17.4 0 0 933.09 924.85
  Q 923.31 924.75 914.01 923.88
  Q 911.88 923.68 910.70 925.48
  Q 903.02 937.19 892.81 951.03
  A 0.04 0.04 0.0 0 0 892.84 951.09
  Z
  M 920.13 951.51
  A 0.35 0.35 0.0 0 0 920.40 952.06
  L 943.57 953.23
  A 0.35 0.35 0.0 0 0 943.87 953.08
  L 962.07 926.87
  A 0.35 0.35 0.0 0 0 961.80 926.32
  L 938.76 925.20
  A 0.35 0.35 0.0 0 0 938.46 925.35
  L 920.13 951.51
  Z
  M 998.10 928.23
  A 0.31 0.31 0.0 0 0 997.86 927.74
  L 968.26 926.38
  A 0.31 0.31 0.0 0 0 967.99 926.51
  L 949.65 952.98
  A 0.31 0.31 0.0 0 0 949.89 953.46
  L 978.94 955.22
  A 0.31 0.31 0.0 0 0 979.21 955.09
  L 998.10 928.23
  Z
  M 847.52 953.17
  L 822.18 988.68
  A 0.42 0.42 0.0 0 0 822.50 989.35
  L 834.30 989.84
  Q 834.84 989.86 835.22 989.46
  Q 837.11 987.46 838.67 985.19
  Q 848.23 971.37 857.82 957.56
  C 858.36 956.79 859.60 955.77 859.88 954.76
  Q 860.08 954.07 859.36 954.07
  L 850.66 954.10
  Q 850.13 954.10 849.75 953.72
  L 849.08 953.05
  A 1.03 1.02 40.3 0 0 847.52 953.17
  Z
  M 883.22 955.86
  A 0.32 0.32 0.0 0 0 882.97 955.35
  L 866.90 954.63
  A 0.32 0.32 0.0 0 0 866.62 954.76
  L 842.00 989.84
  A 0.32 0.32 0.0 0 0 842.25 990.34
  L 858.58 991.00
  A 0.32 0.32 0.0 0 0 858.86 990.87
  L 883.22 955.86
  Z
  M 865.28 990.63
  A 0.47 0.47 0.0 0 0 865.65 991.37
  L 886.01 992.21
  A 0.47 0.47 0.0 0 0 886.42 992.01
  L 910.61 957.65
  A 0.47 0.47 0.0 0 0 910.26 956.91
  L 890.11 955.57
  A 0.47 0.47 0.0 0 0 889.70 955.77
  L 865.28 990.63
  Z
  M 891.79 991.55
  A 0.59 0.59 0.0 0 0 892.24 992.48
  L 914.84 993.56
  A 0.59 0.59 0.0 0 0 915.35 993.32
  L 939.72 959.03
  A 0.59 0.59 0.0 0 0 939.28 958.10
  L 916.93 956.80
  A 0.59 0.59 0.0 0 0 916.41 957.05
  L 891.79 991.55
  Z
  M 975.96 959.61
  A 0.31 0.31 0.0 0 0 975.71 959.12
  L 945.91 958.30
  A 0.31 0.31 0.0 0 0 945.64 958.44
  L 921.04 993.30
  A 0.31 0.31 0.0 0 0 921.28 993.79
  L 950.66 995.47
  A 0.31 0.31 0.0 0 0 950.93 995.34
  L 975.96 959.61
  Z
  M 793.98 1027.97
  A 0.57 0.57 0.0 0 0 794.43 1028.88
  L 807.10 1029.19
  A 0.57 0.57 0.0 0 0 807.58 1028.95
  L 831.01 995.86
  A 0.57 0.57 0.0 0 0 830.58 994.96
  L 818.47 994.30
  A 0.57 0.57 0.0 0 0 817.98 994.53
  L 793.98 1027.97
  Z
  M 854.98 996.35
  A 0.34 0.34 0.0 0 0 854.71 995.81
  L 838.21 995.38
  A 0.34 0.34 0.0 0 0 837.93 995.53
  L 814.25 1029.10
  A 0.34 0.34 0.0 0 0 814.51 1029.63
  L 830.71 1030.27
  A 0.34 0.34 0.0 0 0 831.00 1030.13
  L 854.98 996.35
  Z
  M 837.37 1030.17
  A 0.32 0.32 0.0 0 0 837.61 1030.68
  L 858.55 1031.59
  A 0.32 0.32 0.0 0 0 858.83 1031.46
  L 882.64 997.57
  A 0.32 0.32 0.0 0 0 882.39 997.07
  L 861.37 996.36
  A 0.32 0.32 0.0 0 0 861.10 996.49
  L 837.37 1030.17
  Z
  M 864.25 1031.23
  A 0.31 0.31 0.0 0 0 864.49 1031.72
  L 887.34 1032.92
  A 0.31 0.31 0.0 0 0 887.61 1032.79
  L 911.80 998.77
  A 0.31 0.31 0.0 0 0 911.56 998.29
  L 887.83 997.68
  A 0.31 0.31 0.0 0 0 887.56 997.82
  L 864.25 1031.23
  Z
  M 893.71 1032.56
  A 0.34 0.34 0.0 0 0 893.97 1033.09
  L 923.42 1034.53
  A 0.34 0.34 0.0 0 0 923.72 1034.39
  L 947.17 1000.60
  A 0.34 0.34 0.0 0 0 946.91 1000.07
  L 917.51 998.69
  A 0.34 0.34 0.0 0 0 917.21 998.83
  L 893.71 1032.56
  Z
  M 978.31 1002.19
  A 0.64 0.64 0.0 0 0 977.82 1001.18
  L 953.51 1000.19
  A 0.64 0.64 0.0 0 0 952.96 1000.47
  L 929.63 1033.60
  A 0.64 0.64 0.0 0 0 930.10 1034.61
  L 953.57 1036.42
  A 0.64 0.64 0.0 0 0 954.14 1036.16
  L 978.31 1002.19
  Z
  M 803.99 1034.12
  A 0.34 0.34 0.0 0 0 803.71 1033.58
  L 790.19 1033.41
  A 0.34 0.34 0.0 0 0 789.91 1033.55
  L 769.63 1061.83
  A 0.34 0.34 0.0 0 0 769.88 1062.37
  L 783.11 1063.45
  A 0.34 0.34 0.0 0 0 783.41 1063.31
  L 803.99 1034.12
  Z
  M 827.24 1035.44
  A 0.33 0.33 0.0 0 0 826.99 1034.93
  L 810.77 1034.01
  A 0.33 0.33 0.0 0 0 810.47 1034.15
  L 790.84 1062.87
  A 0.33 0.33 0.0 0 0 791.10 1063.39
  L 807.11 1064.13
  A 0.33 0.33 0.0 0 0 807.39 1063.99
  L 827.24 1035.44
  Z
  M 828.32 1065.11
  C 830.39 1065.14 832.80 1065.89 835.34 1064.86
  A 0.93 0.91 5.1 0 0 835.78 1064.50
  L 855.10 1036.38
  Q 855.28 1036.13 854.97 1036.12
  L 834.27 1035.23
  A 0.62 0.62 0.0 0 0 833.73 1035.49
  L 813.74 1064.04
  A 0.57 0.57 0.0 0 0 814.29 1064.93
  C 818.83 1064.26 823.73 1065.06 828.32 1065.11
  Z
  M 840.39 1065.01
  A 0.43 0.43 0.0 0 0 840.73 1065.68
  L 863.86 1066.67
  A 0.43 0.43 0.0 0 0 864.24 1066.49
  L 884.08 1038.12
  A 0.43 0.43 0.0 0 0 883.75 1037.44
  L 860.77 1036.33
  A 0.43 0.43 0.0 0 0 860.39 1036.51
  L 840.39 1065.01
  Z
  M 919.83 1039.57
  A 0.34 0.34 0.0 0 0 919.57 1039.04
  L 890.24 1037.66
  A 0.34 0.34 0.0 0 0 889.94 1037.80
  L 869.75 1066.49
  A 0.34 0.34 0.0 0 0 870.01 1067.03
  L 899.64 1068.36
  A 0.34 0.34 0.0 0 0 899.94 1068.22
  L 919.83 1039.57
  Z
  M 950.87 1040.74
  A 0.32 0.32 0.0 0 0 950.62 1040.24
  L 925.59 1039.34
  A 0.32 0.32 0.0 0 0 925.32 1039.47
  L 905.28 1068.25
  A 0.32 0.32 0.0 0 0 905.53 1068.75
  L 930.62 1069.71
  A 0.32 0.32 0.0 0 0 930.90 1069.58
  L 950.87 1040.74
  Z
  M 767.70 1066.30
  A 0.99 0.99 0.0 0 0 766.27 1066.50
  L 745.41 1095.76
  A 0.47 0.47 0.0 0 0 745.77 1096.51
  L 758.73 1097.03
  A 2.16 2.15 -71.0 0 0 760.58 1096.12
  L 780.18 1068.16
  A 0.50 0.50 0.0 0 0 779.76 1067.37
  C 777.14 1067.42 769.66 1067.90 767.70 1066.30
  Z
  M 766.88 1096.93
  A 0.31 0.31 0.0 0 0 767.12 1097.42
  L 783.37 1098.05
  A 0.31 0.31 0.0 0 0 783.64 1097.92
  L 803.72 1069.13
  A 0.31 0.31 0.0 0 0 803.48 1068.65
  L 787.32 1067.95
  A 0.31 0.31 0.0 0 0 787.05 1068.08
  L 766.88 1096.93
  Z
  M 831.29 1070.50
  A 0.33 0.33 0.0 0 0 831.04 1069.98
  L 810.53 1068.84
  A 0.33 0.33 0.0 0 0 810.24 1068.98
  L 789.78 1098.02
  A 0.33 0.33 0.0 0 0 790.03 1098.54
  L 810.81 1099.42
  A 0.33 0.33 0.0 0 0 811.09 1099.28
  L 831.29 1070.50
  Z
  M 816.39 1098.96
  A 0.44 0.44 0.0 0 0 816.73 1099.65
  L 840.19 1100.66
  A 0.44 0.44 0.0 0 0 840.57 1100.47
  L 860.17 1071.99
  A 0.44 0.44 0.0 0 0 859.83 1071.30
  L 837.29 1070.11
  A 0.44 0.44 0.0 0 0 836.91 1070.30
  L 816.39 1098.96
  Z
  M 845.43 1100.52
  A 0.30 0.30 0.0 0 0 845.66 1100.99
  L 875.80 1102.26
  A 0.30 0.30 0.0 0 0 876.05 1102.13
  L 896.03 1073.34
  A 0.30 0.30 0.0 0 0 895.80 1072.87
  L 866.45 1071.46
  A 0.30 0.30 0.0 0 0 866.19 1071.58
  L 845.43 1100.52
  Z
  M 881.55 1102.17
  A 0.34 0.34 0.0 0 0 881.81 1102.71
  L 906.72 1103.72
  A 0.34 0.34 0.0 0 0 907.02 1103.58
  L 927.13 1074.86
  A 0.34 0.34 0.0 0 0 926.87 1074.33
  L 902.12 1073.07
  A 0.34 0.34 0.0 0 0 901.82 1073.21
  L 881.55 1102.17
  Z
  M 724.74 1124.47
  A 0.38 0.38 0.0 0 0 725.04 1125.07
  L 739.98 1125.38
  A 0.38 0.38 0.0 0 0 740.31 1125.21
  L 756.08 1102.05
  A 0.38 0.38 0.0 0 0 755.77 1101.45
  L 741.39 1101.48
  A 0.38 0.38 0.0 0 0 741.09 1101.64
  L 724.74 1124.47
  Z
  M 766.21 1122.89
  Q 772.56 1113.48 779.50 1103.56
  A 0.61 0.61 0.0 0 0 779.03 1102.60
  L 764.85 1101.76
  A 3.14 3.13 -73.7 0 0 761.92 1103.37
  Q 760.22 1106.47 758.11 1109.37
  C 754.32 1114.55 750.83 1119.60 747.22 1124.69
  A 0.56 0.56 0.0 0 0 747.68 1125.57
  L 765.34 1125.73
  A 0.63 0.63 0.0 0 0 765.92 1124.85
  Q 765.51 1123.93 766.21 1122.89
  Z
  M 770.71 1125.49
  Q 776.31 1126.58 782.02 1126.05
  C 785.94 1125.69 789.87 1127.08 793.52 1126.40
  A 0.51 0.51 0.0 0 0 793.91 1125.74
  C 793.54 1124.57 793.63 1124.00 794.38 1122.99
  Q 801.07 1113.96 807.23 1104.44
  A 0.53 0.53 0.0 0 0 806.81 1103.62
  L 787.82 1102.92
  A 2.77 2.76 -71.2 0 0 785.45 1104.09
  L 770.57 1125.16
  Q 770.38 1125.43 770.71 1125.49
  Z
  M 797.95 1125.34
  A 0.59 0.59 0.0 0 0 798.42 1126.27
  L 821.46 1126.92
  A 0.59 0.59 0.0 0 0 821.96 1126.67
  L 836.49 1106.09
  A 0.59 0.59 0.0 0 0 836.04 1105.16
  L 813.50 1103.99
  A 0.59 0.59 0.0 0 0 812.99 1104.23
  L 797.95 1125.34
  Z
  M 827.31 1126.14
  A 0.35 0.35 0.0 0 0 827.58 1126.70
  L 858.18 1127.57
  A 0.35 0.35 0.0 0 0 858.48 1127.42
  L 872.34 1107.25
  A 0.35 0.35 0.0 0 0 872.07 1106.70
  L 842.44 1105.53
  A 0.35 0.35 0.0 0 0 842.14 1105.67
  L 827.31 1126.14
  Z
  M 891.41 1125.75
  L 902.46 1109.69
  Q 903.72 1107.85 901.49 1107.97
  C 896.81 1108.21 891.22 1107.52 887.83 1107.40
  Q 883.50 1107.26 879.30 1107.04
  A 2.46 2.44 -71.1 0 0 877.16 1108.10
  L 864.41 1126.56
  Q 863.64 1127.67 864.99 1127.68
  L 891.74 1127.89
  A 0.28 0.28 0.0 0 0 892.00 1127.49
  Q 891.83 1127.14 891.52 1126.84
  A 0.85 0.84 39.4 0 1 891.41 1125.75
  Z"
/>
<ellipse fill="#000000" cx="0.00" cy="0.00" transform="translate(811.64,741.18) rotate(97.9)" rx="10.40" ry="5.31"/>
<path fill="#fec5fe" d="
  M 141.70 772.64
  L 141.76 778.49
  Q 139.81 780.48 136.85 781.74
  L 136.78 775.90
  Q 138.79 773.83 141.70 772.64
  Z"
/>
<path fill="#fec5fe" d="
  M 141.65 785.55
  L 141.65 879.89
  Q 138.95 879.61 136.93 877.74
  L 136.93 788.44
  Q 138.66 786.61 141.65 785.55
  Z"
/>
<path fill="#000000" d="
  M 1167.72 960.89
  C 1165.44 964.60 1162.99 967.35 1160.14 972.04
  C 1156.61 977.87 1152.24 983.51 1148.65 989.56
  C 1143.78 997.77 1124.46 994.46 1116.62 993.83
  C 1113.35 993.58 1107.99 993.63 1103.70 993.17
  Q 1100.57 992.84 1098.55 992.78
  C 1089.64 992.50 1080.81 991.45 1071.90 991.32
  Q 1069.17 991.29 1067.59 991.17
  C 1049.20 989.79 1035.06 989.46 1023.08 988.18
  C 1017.78 987.61 1013.45 989.74 1009.67 984.41
  C 1008.41 982.63 1008.96 980.92 1010.08 979.32
  C 1044.90 929.73 1078.99 880.79 1114.33 830.34
  C 1117.57 825.72 1126.03 825.22 1130.96 825.70
  C 1141.13 826.69 1151.46 827.10 1161.67 827.53
  C 1164.98 827.67 1168.40 828.28 1171.46 828.40
  Q 1182.44 828.85 1193.41 829.55
  C 1204.51 830.27 1219.02 830.76 1231.79 831.96
  C 1237.35 832.49 1241.19 831.37 1245.56 835.96
  C 1249.03 839.62 1247.21 842.55 1244.34 846.06
  C 1240.24 851.05 1236.74 857.56 1233.75 861.92
  C 1220.31 881.57 1207.09 901.16 1193.35 922.42
  C 1187.93 930.81 1181.97 938.59 1176.63 947.19
  C 1173.76 951.82 1170.59 956.26 1167.72 960.89
  Z
  M 1016.64 982.08
  A 0.12 0.12 0.0 0 0 1016.80 982.26
  C 1018.23 981.47 1019.43 980.97 1021.15 981.07
  Q 1036.97 981.91 1052.76 982.96
  Q 1072.13 984.25 1091.50 985.43
  C 1099.57 985.92 1106.96 986.61 1114.18 986.89
  Q 1125.73 987.34 1137.26 988.43
  Q 1138.22 988.53 1139.79 989.51
  Q 1140.28 989.81 1140.58 989.32
  Q 1141.45 987.90 1142.34 986.54
  C 1159.69 960.12 1177.26 933.86 1194.66 907.47
  Q 1209.08 885.60 1223.93 864.02
  Q 1225.51 861.72 1228.27 857.26
  C 1232.06 851.14 1236.72 847.84 1240.74 842.73
  Q 1241.68 841.53 1241.79 840.32
  A 1.02 1.02 0.0 0 0 1240.75 839.22
  C 1236.30 839.31 1230.59 838.66 1227.53 838.49
  Q 1166.51 835.07 1149.50 833.92
  C 1144.83 833.61 1139.97 833.51 1136.50 833.23
  C 1132.07 832.87 1127.40 833.02 1123.06 832.02
  A 1.91 1.89 23.8 0 0 1121.07 832.78
  L 1016.64 982.08
  Z"
/>
<path fill="#fec5fe" d="
  M 141.74 886.39
  L 141.67 895.47
  Q 139.34 894.95 136.93 893.34
  L 136.88 884.30
  Q 136.93 884.15 137.06 884.06
  Q 137.23 883.94 137.41 884.04
  L 141.74 886.39
  Z"
/>
<path fill="#fec5fe" d="
  M 141.79 902.70
  L 141.67 907.78
  L 141.58 908.02
  Q 141.44 908.40 141.11 908.17
  C 140.28 907.60 137.52 906.76 137.20 906.35
  Q 136.98 906.08 136.88 905.70
  L 136.79 900.08
  Q 139.57 900.57 141.79 902.70
  Z"
/>
<path fill="#fec5fe" d="
  M 277.04 1117.85
  L 304.19 1125.68
  A 0.31 0.31 0.0 0 1 304.23 1126.26
  L 278.19 1137.25
  A 0.31 0.31 0.0 0 0 278.02 1137.45
  L 270.19 1164.60
  A 0.31 0.31 0.0 0 1 269.61 1164.64
  L 258.62 1138.60
  A 0.31 0.31 0.0 0 0 258.42 1138.43
  L 231.27 1130.60
  A 0.31 0.31 0.0 0 1 231.23 1130.02
  L 257.27 1119.03
  A 0.31 0.31 0.0 0 0 257.44 1118.83
  L 265.27 1091.68
  A 0.31 0.31 0.0 0 1 265.85 1091.64
  L 276.84 1117.68
  A 0.31 0.31 0.0 0 0 277.04 1117.85
  Z"
/>
<path fill="#000000" d="
  M 1208.72 1229.80
  L 1235.87 1237.64
  A 0.32 0.32 0.0 0 1 1235.90 1238.24
  L 1209.88 1249.25
  A 0.32 0.32 0.0 0 0 1209.69 1249.45
  L 1201.85 1276.60
  A 0.32 0.32 0.0 0 1 1201.25 1276.63
  L 1190.24 1250.61
  A 0.32 0.32 0.0 0 0 1190.04 1250.42
  L 1162.89 1242.58
  A 0.32 0.32 0.0 0 1 1162.86 1241.98
  L 1188.88 1230.97
  A 0.32 0.32 0.0 0 0 1189.07 1230.77
  L 1196.91 1203.62
  A 0.32 0.32 0.0 0 1 1197.51 1203.59
  L 1208.52 1229.61
  A 0.32 0.32 0.0 0 0 1208.72 1229.80
  Z"
/>
<path fill="#000000" d="
  M 191.95 1358.05
  Q 215.47 1366.17 238.75 1366.17
  Q 317.32 1366.20 396.06 1366.18
  L 394.55 1370.95
  Q 315.45 1370.96 236.50 1370.94
  Q 221.54 1370.94 203.44 1366.93
  L 191.95 1358.05
  Z"
/>
</svg>
