<?xml version="1.0" encoding="UTF-8" standalone="no"?>
<!DOCTYPE svg PUBLIC "-//W3C//DTD SVG 1.1//EN" "http://www.w3.org/Graphics/SVG/1.1/DTD/svg11.dtd">
<svg xmlns="http://www.w3.org/2000/svg" version="1.1" viewBox="0.00 0.00 1352.00 1550.00">
<g stroke-width="2.00" fill="none" stroke-linecap="butt">
<path stroke="#806280" vector-effect="non-scaling-stroke" d="
  M 1249.70 181.68
  L 1250.81 190.99"
/>
<path stroke="#806280" vector-effect="non-scaling-stroke" d="
  M 1250.81 787.55
  L 1250.04 786.49
  Q 1249.57 785.85 1249.36 786.62
  L 1246.12 798.51"
/>
<path stroke="#806280" vector-effect="non-scaling-stroke" d="
  M 1244.72 184.17
  L 1243.29 174.99"
/>
<path stroke="#806280" vector-effect="non-scaling-stroke" d="
  M 56.68 1139.08
  L 51.72 1141.27"
/>
<path stroke="#806280" vector-effect="non-scaling-stroke" d="
  M 194.67 1479.88
  L 186.63 1479.03"
/>
<path stroke="#806280" vector-effect="non-scaling-stroke" d="
  M 56.69 1170.73
  L 51.70 1169.05"
/>
<path stroke="#806280" vector-effect="non-scaling-stroke" d="
  M 192.09 1484.92
  L 200.35 1485.30"
/>
<path stroke="#806280" vector-effect="non-scaling-stroke" d="
  M 798.44 1485.29
  C 797.80 1484.19 797.44 1483.51 796.12 1483.11
  Q 791.10 1481.57 786.29 1480.27"
/>
<path stroke="#806280" vector-effect="non-scaling-stroke" d="
  M 808.89 1404.49
  Q 808.66 1403.41 809.16 1402.64
  Q 809.47 1402.14 809.73 1402.67
  L 810.54 1404.37"
/>
<path stroke="#806280" vector-effect="non-scaling-stroke" d="
  M 833.56 1480.25
  Q 830.70 1480.61 829.58 1485.24"
/>
<path stroke="#806280" vector-effect="non-scaling-stroke" d="
  M 1250.83 899.12
  L 1246.15 887.68"
/>
<path stroke="#806280" vector-effect="non-scaling-stroke" d="
  M 1230.44 836.31
  L 1220.54 840.66"
/>
<path stroke="#806280" vector-effect="non-scaling-stroke" d="
  M 1217.82 861.85
  L 1236.75 867.40"
/>
</g>
<path fill="#000000" d="
  M 1249.70 181.68
  L 1250.81 190.99
  L 1250.81 787.55
  L 1250.04 786.49
  Q 1249.57 785.85 1249.36 786.62
  L 1246.12 798.51
  Q 1245.90 796.63 1245.90 791.50
  Q 1245.91 496.25 1245.90 201.00
  Q 1245.90 193.46 1244.72 184.17
  L 1243.29 174.99
  C 1231.94 115.13 1186.98 69.98 1127.91 57.07
  A 0.64 0.63 13.9 0 0 1127.16 57.52
  L 1121.87 75.80
  Q 1121.60 76.73 1121.22 75.84
  L 1112.40 55.10
  A 0.66 0.65 -8.3 0 0 1111.86 54.70
  Q 1105.66 54.05 1099.25 54.05
  Q 656.50 53.98 213.75 53.98
  Q 199.63 53.98 193.76 54.42
  C 122.24 59.82 64.69 115.67 57.41 187.27
  Q 56.70 194.26 56.70 207.25
  Q 56.64 673.16 56.68 1139.08
  L 51.72 1141.27
  Q 51.73 674.85 51.72 208.76
  Q 51.72 195.07 52.24 188.77
  C 58.77 110.14 124.14 49.14 203.50 49.12
  Q 646.50 49.00 1089.50 49.00
  Q 1090.12 49.00 1091.51 48.42
  Q 1092.06 48.18 1091.47 48.05
  L 1090.29 47.78
  Q 1089.67 47.63 1090.26 47.38
  L 1110.79 38.72
  Q 1111.24 38.53 1111.37 38.06
  L 1117.70 16.24
  Q 1117.95 15.39 1118.29 16.21
  L 1127.06 36.92
  A 1.42 1.41 86.8 0 0 1127.98 37.75
  L 1149.75 44.08
  Q 1150.45 44.28 1149.78 44.56
  L 1132.03 52.05
  Q 1131.13 52.44 1132.08 52.66
  C 1195.13 67.48 1240.70 117.59 1249.70 181.68
  Z"
/>
<path fill="#ffc4ff" d="
  M 469.38 102.54
  L 483.08 106.50
  A 0.31 0.31 0.0 0 1 483.11 107.08
  L 469.98 112.64
  A 0.31 0.31 0.0 0 0 469.80 112.84
  L 465.84 126.54
  A 0.31 0.31 0.0 0 1 465.26 126.57
  L 459.70 113.44
  A 0.31 0.31 0.0 0 0 459.50 113.26
  L 445.80 109.30
  A 0.31 0.31 0.0 0 1 445.77 108.72
  L 458.90 103.16
  A 0.31 0.31 0.0 0 0 459.08 102.96
  L 463.04 89.26
  A 0.31 0.31 0.0 0 1 463.62 89.23
  L 469.18 102.36
  A 0.31 0.31 0.0 0 0 469.38 102.54
  Z"
/>
<path fill="#ffc4ff" d="
  M 1243.29 174.99
  L 1244.72 184.17
  C 1219.62 157.86 1186.19 141.80 1149.98 138.59
  Q 1143.51 138.02 1130.00 138.02
  Q 718.88 138.00 307.76 138.02
  Q 294.52 138.02 287.78 138.67
  C 220.14 145.14 165.67 196.14 155.07 263.54
  A 0.65 0.64 -77.2 0 0 155.52 264.26
  L 183.20 272.27
  Q 183.53 272.36 183.22 272.49
  L 153.94 284.93
  A 1.11 1.11 0.0 0 0 153.27 285.95
  Q 153.27 826.77 153.27 1367.75
  Q 153.27 1381.51 153.75 1387.73
  Q 157.87 1440.68 194.67 1479.88
  L 186.63 1479.03
  C 164.52 1453.79 151.13 1422.15 148.77 1388.74
  Q 148.37 1383.17 148.37 1368.75
  Q 148.37 828.36 148.38 287.92
  A 0.44 0.43 -11.8 0 0 147.77 287.53
  L 138.80 291.41
  A 1.46 1.43 -3.7 0 0 137.98 292.33
  L 124.52 338.71
  Q 124.45 338.94 124.36 338.72
  L 105.38 293.95
  A 0.85 0.85 0.0 0 0 104.83 293.47
  L 58.53 280.00
  Q 57.92 279.82 58.51 279.57
  L 102.76 260.78
  A 1.11 1.10 87.2 0 0 103.40 260.07
  L 116.92 213.55
  Q 117.00 213.29 117.10 213.54
  L 135.89 257.81
  A 1.80 1.79 86.8 0 0 137.05 258.85
  L 149.28 262.41
  A 0.65 0.65 0.0 0 0 150.11 261.89
  C 161.49 192.30 217.64 139.50 288.02 133.64
  Q 294.27 133.12 307.99 133.12
  Q 719.69 133.14 1131.38 133.11
  Q 1144.62 133.11 1151.36 133.72
  Q 1203.59 138.44 1243.29 174.99
  Z"
/>
<path fill="#000000" d="
  M 1230.44 836.31
  L 1220.54 840.66
  Q 1218.54 837.14 1217.09 833.64
  C 1212.98 823.75 1208.01 814.30 1203.74 804.51
  Q 1192.33 778.34 1180.57 752.32
  C 1177.05 744.54 1173.01 735.90 1169.68 728.98
  Q 1158.76 706.32 1148.30 683.43
  C 1142.16 669.99 1135.56 656.22 1129.34 642.52
  C 1127.16 637.70 1124.01 632.24 1122.15 627.83
  C 1117.47 616.74 1111.45 605.42 1106.91 595.23
  C 1098.49 576.34 1089.13 557.90 1080.68 539.02
  Q 1079.05 535.38 1077.34 531.79
  Q 1061.63 498.89 1045.87 466.01
  Q 1026.24 425.05 1006.28 384.25
  C 996.05 363.31 986.96 344.77 977.44 325.00
  C 972.80 315.36 967.94 305.84 963.22 296.24
  Q 947.40 264.10 931.55 231.98
  Q 927.36 223.48 924.43 219.65
  C 919.51 213.22 912.90 206.55 904.51 205.18
  Q 896.00 203.80 887.42 203.08
  C 878.60 202.34 870.99 201.33 862.76 200.58
  Q 832.39 197.81 802.00 195.24
  C 798.66 194.96 795.36 195.06 792.68 194.67
  Q 779.27 192.73 765.74 192.46
  C 758.38 192.32 750.98 190.87 743.59 190.77
  C 740.43 190.73 737.28 189.85 734.45 189.71
  Q 712.44 188.65 690.46 186.95
  C 687.57 186.72 684.04 186.90 681.59 186.63
  C 673.19 185.71 666.46 185.01 659.33 185.09
  C 654.49 185.14 648.88 183.54 645.50 183.50
  Q 634.43 183.36 631.50 183.02
  C 630.16 182.86 628.43 183.23 626.85 183.08
  Q 619.81 182.40 612.74 182.36
  C 610.94 182.35 609.48 181.63 607.65 181.64
  Q 603.57 181.66 599.51 181.22
  C 598.27 181.08 597.35 181.53 596.01 181.22
  C 592.81 180.49 589.42 181.15 586.67 180.97
  Q 582.34 180.69 577.99 180.60
  Q 574.67 180.54 571.36 180.23
  Q 567.10 179.83 564.77 179.71
  C 558.87 179.40 552.92 178.50 547.02 178.63
  C 539.71 178.78 532.64 178.17 525.36 177.87
  C 521.90 177.73 517.16 176.84 512.92 177.06
  C 509.01 177.26 505.26 177.22 501.57 176.50
  Q 500.66 176.33 499.90 176.37
  Q 494.49 176.63 489.09 176.12
  Q 487.30 175.95 484.10 174.76
  C 479.28 172.96 473.82 174.67 468.95 175.11
  Q 467.02 175.28 462.75 178.67
  Q 462.39 178.96 462.22 179.39
  C 461.00 182.49 461.31 184.30 460.85 186.89
  C 460.60 188.35 461.24 189.66 461.13 191.18
  C 460.69 196.93 462.22 200.12 464.32 204.61
  C 465.97 208.12 466.78 212.19 468.33 215.92
  C 558.51 432.83 651.50 648.43 746.05 863.47
  C 747.22 866.14 748.30 869.41 749.62 872.24
  Q 754.93 883.61 759.74 895.19
  C 762.62 902.11 766.57 903.40 773.25 905.52
  C 776.19 906.46 780.92 905.84 784.06 905.34
  C 790.35 904.33 796.92 904.53 803.37 902.82
  Q 809.15 901.29 812.25 900.89
  Q 827.03 898.99 841.86 897.36
  C 845.33 896.97 849.50 896.13 853.39 895.79
  C 864.32 894.82 874.87 893.52 888.00 892.23
  C 889.21 892.11 890.87 891.52 892.35 891.39
  Q 909.57 889.91 914.12 889.36
  Q 920.90 888.53 924.00 888.55
  C 926.46 888.56 929.53 887.59 932.69 887.50
  C 935.01 887.43 937.34 886.82 939.45 886.69
  C 948.71 886.12 957.79 884.61 967.02 884.00
  C 972.47 883.63 977.41 882.75 983.73 882.45
  C 994.66 881.95 1005.62 880.29 1016.49 879.10
  C 1018.88 878.83 1021.13 879.24 1023.57 878.94
  C 1028.88 878.29 1034.19 877.95 1039.51 877.34
  Q 1048.43 876.33 1057.37 875.61
  C 1066.22 874.91 1077.29 874.50 1087.26 873.29
  Q 1099.93 871.76 1117.54 871.10
  C 1120.99 870.97 1124.69 870.26 1128.33 870.04
  C 1135.91 869.56 1143.04 868.55 1150.46 868.28
  C 1151.99 868.23 1153.81 867.75 1155.61 867.91
  Q 1158.50 868.17 1159.41 868.10
  Q 1169.40 867.34 1179.36 866.17
  C 1181.02 865.98 1183.10 866.14 1184.98 865.75
  C 1187.56 865.22 1189.76 865.74 1192.31 865.03
  A 1.43 1.40 47.5 0 1 1193.22 865.08
  Q 1195.66 866.09 1198.09 865.12
  A 1.39 1.39 0.0 0 1 1199.02 865.09
  Q 1201.58 865.92 1203.98 864.82
  Q 1204.49 864.59 1204.93 864.93
  Q 1206.29 865.96 1207.72 865.47
  Q 1212.41 863.84 1217.82 861.85
  L 1236.75 867.40
  C 1235.18 869.94 1235.87 872.13 1233.20 874.70
  Q 1216.17 891.12 1198.01 906.27
  C 1192.96 910.48 1180.60 910.58 1174.21 911.62
  C 1171.90 912.00 1169.49 911.88 1167.28 912.20
  Q 1163.95 912.69 1160.58 912.75
  C 1158.62 912.79 1155.96 913.36 1153.65 913.28
  C 1147.14 913.03 1140.36 913.47 1133.75 914.38
  Q 1122.93 915.86 1112.02 916.52
  Q 1099.12 917.30 1086.27 918.53
  Q 1068.78 920.21 1051.26 921.51
  C 1046.19 921.89 1039.50 922.82 1033.57 923.27
  C 1021.76 924.15 1009.85 925.46 998.07 926.69
  Q 993.44 927.18 988.78 927.30
  C 982.95 927.46 976.95 928.85 971.10 929.21
  C 967.15 929.44 963.46 929.58 959.37 930.26
  C 957.44 930.59 955.29 930.53 953.55 930.74
  Q 938.61 932.61 923.60 933.60
  Q 922.21 933.69 920.42 933.98
  C 913.84 935.04 907.19 935.45 900.57 936.15
  C 888.77 937.40 873.41 938.13 863.25 939.93
  Q 857.83 940.89 855.02 941.18
  Q 848.52 941.86 842.00 942.42
  C 831.99 943.29 821.72 945.07 811.50 946.01
  C 810.20 946.13 808.80 946.63 807.38 946.72
  Q 802.63 947.04 795.50 948.08
  C 788.80 949.05 778.78 949.72 770.58 951.08
  C 765.55 951.91 759.94 953.78 756.20 952.47
  Q 755.74 952.31 755.26 952.41
  Q 753.72 952.73 752.23 953.17
  C 748.01 954.43 742.99 952.14 739.39 950.04
  Q 736.96 948.63 735.09 945.96
  Q 732.02 941.58 729.16 937.09
  C 728.35 935.81 726.24 934.88 725.21 933.30
  Q 724.62 932.39 724.14 931.41
  Q 719.28 921.52 715.63 911.13
  C 714.30 907.33 712.14 904.16 710.73 900.42
  Q 709.92 898.28 708.83 896.27
  C 707.89 894.52 707.57 892.77 706.80 890.96
  C 700.72 876.63 694.03 862.52 688.14 848.12
  C 686.11 843.16 683.66 838.52 681.81 833.48
  C 681.04 831.40 679.72 829.70 679.01 827.66
  C 677.94 824.56 676.09 821.73 675.14 818.72
  C 673.78 814.47 671.65 810.60 670.16 806.39
  C 667.68 799.39 664.30 793.53 661.87 786.79
  C 658.67 777.92 653.95 769.96 649.94 759.78
  C 643.10 742.43 635.56 725.29 627.97 708.25
  C 626.85 705.74 626.48 702.64 624.85 699.81
  C 621.11 693.34 618.76 685.26 616.21 679.77
  C 614.20 675.43 612.04 671.32 610.33 666.85
  C 604.71 652.22 598.97 639.92 591.89 621.88
  Q 590.10 617.30 588.70 614.31
  Q 585.73 608.01 583.07 601.57
  Q 578.08 589.52 572.98 577.50
  C 572.16 575.57 570.04 571.66 569.05 568.50
  Q 568.24 565.93 567.45 564.27
  C 564.24 557.54 562.08 550.51 558.97 543.77
  C 557.71 541.05 556.88 537.89 555.85 535.45
  C 549.47 520.26 543.16 505.00 536.58 489.89
  Q 530.72 476.47 525.24 462.90
  Q 520.02 450.00 514.94 437.04
  C 512.64 431.17 508.83 424.13 506.48 417.29
  C 505.65 414.85 504.06 412.31 503.39 410.30
  Q 502.56 407.79 501.67 406.00
  C 498.89 400.38 496.88 394.26 494.66 388.39
  C 490.96 378.65 486.12 368.26 482.20 358.00
  C 481.49 356.13 480.14 354.14 479.42 351.92
  C 478.63 349.46 476.86 346.44 476.58 343.99
  C 476.21 340.79 473.42 337.16 472.24 333.90
  C 470.23 328.36 467.20 323.25 465.50 317.65
  C 464.16 313.26 461.66 309.34 460.02 304.98
  C 456.79 296.32 452.98 287.87 449.95 279.15
  C 447.42 271.88 443.59 265.05 441.16 257.79
  C 439.36 252.43 437.12 247.34 435.17 241.95
  C 434.17 239.21 432.94 236.77 432.39 233.90
  C 431.08 227.07 427.43 215.15 431.36 209.14
  C 434.18 204.83 437.25 200.69 439.81 196.31
  Q 445.25 187.00 451.00 177.89
  Q 455.00 171.55 458.43 168.89
  C 465.43 163.46 474.23 162.59 482.94 164.29
  C 485.93 164.87 488.45 164.80 491.33 164.73
  C 493.80 164.67 496.61 165.42 499.39 165.31
  C 505.30 165.09 511.49 166.76 517.62 167.07
  C 555.02 169.00 592.15 173.21 628.99 172.29
  Q 639.17 172.03 647.51 172.59
  Q 663.62 173.68 679.72 174.85
  C 683.27 175.11 689.03 176.07 693.84 175.99
  Q 695.62 175.96 698.65 176.25
  C 700.82 176.45 703.04 176.16 705.12 176.39
  Q 712.88 177.27 726.25 177.56
  Q 727.86 177.60 733.59 178.52
  C 735.92 178.90 737.98 178.30 740.18 178.71
  C 742.69 179.17 745.06 179.02 747.72 179.41
  C 749.57 179.68 751.35 179.43 753.08 179.69
  C 757.32 180.33 760.47 180.12 764.19 180.58
  Q 769.31 181.21 770.33 181.28
  Q 789.41 182.63 808.50 183.74
  Q 809.80 183.82 812.35 184.35
  C 814.77 184.85 817.36 184.80 819.92 185.28
  Q 822.06 185.69 823.62 185.71
  Q 835.80 185.82 839.50 186.49
  C 845.36 187.55 850.96 187.55 856.65 188.19
  C 859.91 188.56 863.62 188.60 867.11 189.09
  Q 870.57 189.58 873.55 189.68
  Q 876.80 189.79 880.03 190.14
  Q 890.98 191.35 902.00 191.71
  Q 906.37 191.85 910.29 193.68
  C 919.70 198.06 926.56 203.71 933.00 212.39
  Q 941.35 223.63 946.82 235.21
  Q 957.72 258.25 962.42 267.59
  C 963.15 269.04 963.69 270.76 964.47 272.31
  Q 972.72 288.85 981.15 305.30
  C 982.30 307.54 983.20 310.16 984.20 312.27
  C 991.36 327.28 996.45 336.88 1000.93 346.50
  Q 1004.00 353.06 1004.40 353.85
  C 1010.02 364.97 1015.77 377.99 1020.42 387.53
  C 1028.73 404.61 1037.21 421.61 1045.25 438.83
  Q 1068.24 488.07 1078.06 508.21
  C 1086.55 525.61 1092.52 538.92 1100.16 554.09
  C 1103.90 561.51 1108.05 571.78 1112.93 581.73
  C 1115.55 587.09 1117.96 593.20 1120.25 597.98
  Q 1123.22 604.18 1126.24 610.34
  C 1128.39 614.73 1131.30 621.76 1134.43 627.76
  Q 1139.62 637.74 1153.01 667.46
  C 1156.53 675.26 1161.42 684.67 1165.24 693.48
  Q 1167.84 699.47 1171.88 707.68
  C 1174.97 713.96 1177.86 721.29 1180.42 726.78
  Q 1189.05 745.27 1197.82 763.69
  C 1198.60 765.33 1199.13 767.15 1199.92 768.68
  C 1204.84 778.27 1208.83 787.17 1214.23 797.65
  Q 1217.52 804.01 1219.94 809.90
  Q 1225.35 823.03 1230.44 836.31
  Z
  M 1181.49 901.03
  Q 1182.69 901.66 1183.23 901.52
  C 1197.10 898.20 1206.06 889.85 1215.74 879.80
  C 1217.18 878.30 1224.84 872.02 1225.43 868.93
  Q 1225.85 866.72 1224.20 868.25
  C 1219.25 872.83 1213.12 873.86 1205.15 874.80
  C 1199.81 875.43 1194.28 875.65 1188.97 876.46
  C 1186.69 876.80 1184.40 876.59 1182.06 876.81
  Q 1178.49 877.15 1176.90 877.16
  C 1163.88 877.24 1148.66 879.28 1138.18 879.96
  Q 1110.68 881.74 1083.25 884.47
  Q 1078.51 884.95 1073.75 885.21
  C 1067.35 885.57 1060.60 886.70 1053.92 886.94
  C 1051.88 887.01 1049.61 887.55 1047.25 887.72
  Q 1038.06 888.38 1021.88 890.01
  C 1016.72 890.53 1011.55 890.55 1006.43 891.33
  C 1003.61 891.76 1000.86 891.54 998.07 892.11
  Q 996.81 892.38 995.63 892.44
  C 981.03 893.19 967.12 895.24 950.92 896.55
  C 949.19 896.69 946.44 896.67 944.21 897.03
  C 932.06 898.98 919.51 899.67 907.24 900.65
  Q 893.44 901.75 886.50 902.94
  C 880.69 903.94 875.10 904.30 869.25 904.76
  Q 861.64 905.36 842.94 907.96
  C 838.41 908.59 833.16 909.08 828.27 909.69
  Q 814.58 911.39 800.85 912.78
  C 795.35 913.34 790.00 914.38 784.58 915.31
  Q 783.06 915.57 780.90 915.28
  C 777.71 914.85 774.60 915.71 771.89 915.25
  C 766.09 914.28 761.04 912.21 756.63 908.22
  C 754.25 906.08 751.37 904.12 749.70 901.37
  C 747.73 898.11 746.34 894.14 744.95 891.05
  Q 742.81 886.30 742.03 884.22
  C 738.20 874.12 733.35 864.44 729.40 854.53
  C 725.61 845.03 721.28 835.66 717.14 826.29
  C 715.46 822.48 711.98 815.43 709.84 809.77
  C 707.97 804.85 705.71 800.71 703.45 796.19
  C 702.96 795.20 702.76 794.04 702.28 792.97
  Q 696.87 781.00 692.14 768.74
  C 688.83 760.14 684.25 751.55 680.90 742.71
  C 677.21 732.99 672.30 723.68 668.48 713.95
  C 666.48 708.86 663.89 704.46 661.97 699.77
  C 658.66 691.68 655.11 683.71 651.95 675.56
  C 651.03 673.19 649.50 670.38 648.58 667.65
  C 646.32 660.91 642.54 655.30 640.17 648.55
  C 637.88 642.01 634.16 635.34 631.91 629.65
  Q 623.84 609.30 615.00 589.28
  C 614.40 587.92 613.14 586.07 612.67 584.26
  C 611.60 580.14 609.79 575.77 607.95 571.95
  Q 603.32 562.33 599.37 552.41
  C 597.44 547.55 594.50 541.82 592.30 536.00
  Q 590.61 531.54 585.55 519.88
  C 583.81 515.86 581.13 508.37 578.19 502.29
  Q 575.26 496.21 571.02 484.09
  C 570.42 482.39 569.25 480.67 568.65 478.80
  C 567.51 475.26 565.85 472.62 564.59 469.33
  C 562.67 464.30 560.00 459.95 558.46 454.73
  C 557.95 453.01 556.69 451.64 556.06 449.92
  C 550.23 433.99 542.35 418.44 537.67 405.56
  C 534.55 397.01 530.89 389.68 527.90 381.51
  C 525.52 375.01 522.03 368.24 519.71 362.58
  C 517.28 356.63 514.70 351.00 512.42 344.74
  C 510.20 338.67 506.58 330.83 504.98 326.87
  Q 502.85 321.58 500.68 316.31
  C 500.12 314.93 498.99 313.57 498.48 311.94
  Q 496.58 305.92 493.86 300.24
  C 492.18 296.74 491.74 293.25 489.72 289.68
  C 486.33 283.68 484.59 276.62 482.11 271.10
  C 478.83 263.83 475.03 256.41 472.76 248.75
  Q 472.34 247.31 471.94 246.40
  Q 467.71 236.51 463.49 226.61
  C 459.29 216.77 455.95 206.50 451.41 196.80
  A 0.35 0.34 -39.0 0 0 450.82 196.74
  Q 449.10 199.01 447.49 201.66
  C 445.23 205.41 439.45 213.34 439.30 217.57
  Q 439.00 225.82 442.94 232.32
  Q 445.26 236.16 445.85 239.38
  C 446.28 241.76 449.03 245.60 450.02 248.43
  C 451.78 253.40 453.31 258.43 455.42 263.25
  Q 459.71 273.02 467.50 291.73
  C 472.07 302.69 474.67 310.26 478.70 319.75
  Q 480.92 324.98 482.77 329.75
  Q 492.37 354.47 503.10 378.72
  Q 505.45 384.02 507.32 388.71
  Q 509.34 393.75 511.35 398.78
  Q 517.44 414.01 524.10 429.01
  Q 526.01 433.31 527.73 437.69
  C 530.45 444.66 533.43 450.98 536.27 457.64
  C 538.08 461.89 541.64 469.26 543.78 475.35
  C 544.52 477.48 545.58 479.35 546.59 481.32
  C 548.84 485.72 549.79 490.48 552.23 494.81
  C 553.64 497.33 554.86 501.12 555.57 502.71
  Q 559.49 511.51 563.47 520.29
  C 565.54 524.85 567.27 530.33 569.47 535.26
  Q 573.27 543.74 574.31 546.33
  C 578.81 557.61 583.94 568.56 588.62 579.75
  C 592.15 588.21 595.44 596.23 599.44 605.01
  Q 603.86 614.73 605.51 619.25
  C 607.89 625.75 611.26 632.97 613.00 637.31
  Q 616.85 646.97 621.09 656.47
  C 621.76 657.98 622.83 659.56 623.47 661.25
  C 626.60 669.61 630.42 677.62 633.71 685.92
  Q 635.46 690.34 637.38 694.68
  C 638.96 698.25 639.91 702.05 641.60 705.54
  C 646.45 715.54 650.27 726.05 654.65 736.25
  C 662.52 754.61 670.00 773.84 678.06 792.50
  C 681.44 800.33 685.25 810.23 689.16 818.98
  Q 691.24 823.65 693.17 828.64
  Q 695.05 833.53 697.08 838.36
  Q 698.63 842.03 701.60 849.68
  Q 702.94 853.14 705.82 859.23
  C 709.63 867.31 712.49 875.58 716.16 883.66
  C 718.45 888.70 719.99 894.03 722.42 899.00
  C 724.69 903.63 726.49 908.56 728.71 913.00
  Q 732.78 921.15 736.84 931.96
  C 740.75 942.38 750.17 945.22 760.68 943.06
  C 767.89 941.59 775.00 941.51 782.24 939.68
  C 783.21 939.44 783.89 938.83 784.98 938.70
  Q 797.71 937.19 810.42 935.50
  C 814.30 934.98 820.01 934.59 824.78 933.72
  C 829.40 932.87 833.84 932.84 838.72 932.09
  C 842.27 931.54 846.07 931.41 849.41 930.94
  Q 854.52 930.22 859.65 929.76
  C 864.28 929.34 869.17 928.33 874.01 927.91
  C 883.33 927.10 891.06 925.86 899.55 925.53
  C 902.58 925.41 905.41 924.51 908.43 924.44
  C 911.26 924.38 914.65 923.62 916.75 923.48
  C 924.61 922.98 932.25 921.97 940.05 921.02
  C 942.11 920.77 944.58 920.88 946.85 920.56
  C 953.45 919.63 960.06 919.23 966.71 918.81
  C 970.42 918.58 974.72 917.58 978.84 917.45
  C 980.26 917.40 981.52 916.84 983.00 916.77
  C 987.66 916.55 991.97 915.65 996.76 915.70
  C 1001.97 915.74 1007.14 914.57 1012.10 914.50
  C 1014.22 914.47 1016.15 913.62 1018.36 913.53
  Q 1021.79 913.39 1025.17 912.89
  C 1030.38 912.14 1036.31 911.76 1041.52 911.60
  Q 1047.00 911.44 1055.00 910.50
  Q 1061.67 909.72 1084.01 907.89
  C 1088.36 907.53 1094.26 907.73 1099.00 906.97
  C 1103.38 906.26 1108.18 906.21 1111.66 905.80
  Q 1121.05 904.71 1130.49 904.13
  C 1132.35 904.01 1134.46 904.41 1136.53 904.19
  Q 1139.19 903.91 1140.99 903.87
  C 1143.29 903.81 1145.50 903.19 1147.69 903.11
  Q 1151.71 902.97 1155.68 902.25
  C 1157.41 901.94 1159.25 902.17 1161.04 901.87
  C 1163.75 901.43 1165.78 901.55 1168.27 901.26
  C 1169.99 901.07 1171.44 901.65 1173.19 901.51
  C 1175.88 901.30 1178.08 901.62 1180.50 900.93
  Q 1181.01 900.78 1181.49 901.03
  Z"
/>
<path fill="#ffc4ff" d="
  M 1249.70 181.68
  C 1272.59 206.22 1286.73 238.20 1289.78 271.52
  Q 1290.37 278.08 1290.38 291.51
  Q 1290.38 564.37 1290.37 837.78
  A 1.23 1.22 8.3 0 0 1291.25 838.95
  L 1315.69 846.02
  Q 1316.15 846.15 1315.71 846.34
  L 1290.83 856.84
  A 0.77 0.76 -11.8 0 0 1290.37 857.54
  Q 1290.38 1114.51 1290.38 1371.13
  Q 1290.38 1384.68 1289.82 1391.12
  C 1283.45 1463.89 1226.83 1521.41 1154.21 1529.41
  Q 1147.07 1530.20 1134.25 1530.20
  Q 719.31 1530.23 304.37 1530.21
  Q 291.84 1530.21 284.41 1529.36
  Q 231.02 1523.29 192.09 1484.92
  L 200.35 1485.30
  Q 237.43 1519.42 286.77 1524.52
  Q 293.83 1525.25 306.75 1525.25
  Q 560.87 1525.27 814.96 1525.26
  Q 815.49 1525.26 815.28 1524.77
  L 798.44 1485.29
  C 797.80 1484.19 797.44 1483.51 796.12 1483.11
  Q 791.10 1481.57 786.29 1480.27
  L 750.54 1469.63
  Q 750.12 1469.51 750.52 1469.34
  L 794.97 1450.46
  A 1.57 1.57 0.0 0 0 795.85 1449.47
  L 808.89 1404.49
  Q 808.66 1403.41 809.16 1402.64
  Q 809.47 1402.14 809.73 1402.67
  L 810.54 1404.37
  Q 810.88 1406.40 811.14 1407.02
  Q 819.80 1427.40 828.31 1447.40
  A 1.89 1.88 -3.3 0 0 829.52 1448.47
  L 875.50 1461.83
  Q 876.05 1461.99 875.52 1462.22
  L 833.56 1480.25
  Q 830.70 1480.61 829.58 1485.24
  L 817.95 1524.84
  A 0.32 0.32 0.0 0 0 818.26 1525.25
  Q 975.27 1525.28 1132.50 1525.24
  Q 1145.43 1525.24 1152.48 1524.51
  C 1224.19 1517.05 1279.93 1459.27 1285.08 1387.49
  Q 1285.49 1381.81 1285.49 1367.50
  Q 1285.50 1113.81 1285.49 860.15
  Q 1285.49 859.12 1284.54 859.53
  L 1271.63 865.08
  A 1.97 1.93 86.9 0 0 1270.52 866.34
  L 1257.07 912.55
  Q 1256.92 913.07 1256.75 912.55
  Q 1254.50 905.70 1250.83 899.12
  L 1246.15 887.68
  L 1237.88 867.83
  Q 1237.67 867.32 1237.13 867.37
  L 1236.75 867.40
  L 1217.82 861.85
  L 1190.79 853.79
  Q 1190.28 853.64 1190.77 853.43
  L 1220.54 840.66
  L 1230.44 836.31
  Q 1232.73 835.88 1234.28 835.03
  Q 1235.77 834.23 1236.45 831.98
  Q 1241.54 815.28 1246.12 798.51
  L 1249.36 786.62
  Q 1249.57 785.85 1250.04 786.49
  L 1250.81 787.55
  Q 1250.74 789.81 1251.25 791.02
  Q 1259.90 811.40 1268.40 831.39
  A 2.33 2.32 86.6 0 0 1269.88 832.71
  L 1284.57 836.99
  Q 1285.49 837.26 1285.49 836.30
  Q 1285.50 565.85 1285.49 295.50
  Q 1285.49 281.56 1285.03 275.51
  Q 1281.41 228.04 1250.81 190.99
  L 1249.70 181.68
  Z"
/>
<path fill="#000000" d="
  M 1099.59 603.69
  C 1106.70 617.31 1113.34 631.27 1119.77 645.23
  C 1123.19 652.66 1127.64 661.08 1131.29 669.18
  C 1134.70 676.78 1138.89 685.11 1142.95 694.02
  Q 1157.36 725.61 1180.59 771.16
  Q 1182.87 775.64 1189.19 791.82
  C 1191.35 797.33 1194.22 802.53 1196.84 807.88
  Q 1198.04 810.36 1198.07 812.85
  C 1198.12 819.58 1196.67 824.25 1190.50 827.52
  Q 1181.90 832.09 1172.75 833.22
  Q 1155.41 835.35 1143.75 835.52
  Q 1134.45 835.65 1126.92 836.26
  C 1104.77 838.04 1082.60 839.21 1060.45 841.12
  C 1054.86 841.61 1047.25 841.82 1040.65 842.62
  C 1036.89 843.07 1032.86 842.92 1028.98 843.33
  Q 1019.50 844.33 1010.01 845.18
  Q 1004.35 845.68 998.67 845.96
  C 990.48 846.35 982.87 847.20 974.95 847.78
  C 961.94 848.73 947.80 850.35 936.25 850.97
  C 933.23 851.13 929.98 851.73 927.91 851.89
  Q 910.92 853.24 893.93 854.60
  C 885.43 855.28 873.86 856.73 863.79 857.55
  Q 856.72 858.13 851.74 858.70
  Q 827.02 861.55 802.25 863.96
  C 796.18 864.55 789.61 866.49 783.62 865.88
  C 781.26 865.64 779.03 866.29 776.82 865.91
  Q 771.54 865.00 766.83 862.57
  C 763.65 860.93 760.82 857.92 758.02 855.42
  C 754.43 852.20 753.34 847.10 751.29 842.93
  C 748.21 836.64 745.92 829.99 742.95 823.63
  C 735.76 808.19 729.24 792.46 721.95 777.05
  C 719.72 772.33 718.06 767.68 715.61 762.84
  C 709.97 751.71 705.11 739.77 701.36 730.33
  C 699.80 726.40 697.69 722.92 696.16 719.07
  C 691.33 706.98 684.80 694.57 681.17 685.57
  C 677.68 676.92 673.87 669.46 670.36 661.24
  Q 667.28 654.01 664.07 646.85
  Q 662.71 643.79 661.58 640.64
  C 659.56 635.00 656.44 630.43 654.39 624.99
  C 651.61 617.59 647.61 609.90 644.93 603.36
  C 638.87 588.52 632.18 574.15 625.99 559.20
  C 622.56 550.89 618.77 543.14 615.14 534.50
  C 613.37 530.29 611.15 526.18 609.53 522.07
  Q 606.23 513.75 602.50 505.63
  C 601.39 503.22 600.67 500.40 599.62 498.13
  Q 595.39 488.98 586.69 467.78
  C 584.81 463.21 580.93 455.89 578.10 448.41
  C 577.29 446.26 576.03 444.33 575.29 442.30
  Q 573.22 436.61 571.83 433.70
  Q 563.60 416.43 556.78 398.55
  C 554.64 392.94 551.67 387.88 549.77 382.28
  C 547.51 375.58 544.61 370.68 542.19 364.95
  C 538.57 356.36 535.14 347.44 531.37 339.07
  Q 528.76 333.26 526.36 327.36
  C 524.53 322.85 521.66 317.30 519.83 312.00
  C 519.00 309.59 517.45 307.17 516.78 305.23
  Q 514.16 297.64 512.06 294.46
  Q 510.85 292.62 509.56 288.13
  C 507.20 279.85 502.59 272.28 499.48 264.26
  Q 495.90 255.01 494.30 251.31
  Q 485.58 231.17 477.74 210.66
  Q 476.30 206.89 475.40 202.95
  C 474.72 200.00 477.67 196.23 479.24 193.75
  C 484.60 185.29 494.47 182.07 504.24 183.83
  C 509.12 184.71 513.52 184.46 518.31 185.01
  C 520.86 185.31 523.43 185.14 525.88 185.55
  C 535.47 187.17 547.03 187.42 554.70 188.18
  C 582.63 190.94 613.49 193.58 639.50 192.95
  Q 649.02 192.71 656.59 193.35
  C 667.02 194.22 677.46 194.89 687.87 195.97
  Q 694.29 196.64 702.16 197.07
  C 709.45 197.47 717.13 198.34 724.75 198.58
  C 728.50 198.69 733.04 199.55 737.24 199.70
  C 747.18 200.06 756.54 201.25 767.24 202.28
  C 779.14 203.42 791.07 204.26 803.00 205.02
  Q 803.92 205.08 806.17 205.64
  C 808.46 206.21 810.76 206.01 813.14 206.49
  Q 815.41 206.95 816.91 206.99
  C 828.48 207.32 839.84 209.08 851.36 209.93
  Q 853.26 210.07 856.25 210.47
  Q 869.32 212.23 889.51 213.36
  C 890.68 213.42 892.49 213.86 893.77 214.40
  C 913.60 222.85 923.20 241.84 932.01 260.10
  C 942.68 282.21 954.21 303.89 964.80 326.03
  C 972.44 341.99 979.72 355.60 988.29 373.66
  C 1000.15 398.66 1012.77 423.30 1024.71 448.28
  C 1036.38 472.69 1048.59 496.66 1060.13 521.35
  C 1063.87 529.36 1069.83 540.46 1074.50 550.70
  Q 1077.63 557.54 1080.92 564.31
  C 1085.76 574.25 1090.81 585.54 1096.20 595.96
  C 1097.47 598.41 1098.41 601.44 1099.59 603.69
  Z
  M 1132.47 694.62
  C 1115.77 659.98 1099.65 625.29 1082.42 590.62
  Q 1079.50 584.75 1077.06 579.41
  C 1071.23 566.60 1064.22 552.62 1058.84 541.34
  Q 1052.42 527.88 1043.30 509.19
  Q 996.14 412.55 956.48 332.74
  C 942.79 305.18 928.77 277.77 914.95 250.27
  C 910.20 240.82 902.50 228.53 892.00 225.80
  Q 889.02 225.02 881.98 224.23
  Q 840.28 219.50 798.50 215.52
  Q 795.17 215.20 793.01 215.08
  C 783.76 214.59 774.65 212.71 767.50 212.54
  Q 759.45 212.35 754.18 211.49
  C 752.30 211.18 750.33 211.39 748.39 211.13
  Q 745.82 210.79 744.08 210.74
  C 740.84 210.65 737.55 209.77 734.63 209.61
  C 719.63 208.80 704.72 207.40 689.74 206.45
  C 681.27 205.91 674.76 204.76 664.49 204.57
  C 660.36 204.49 656.75 203.24 652.37 203.29
  C 647.72 203.34 643.02 202.72 638.36 202.43
  Q 622.18 201.43 606.00 200.27
  C 604.95 200.19 603.89 200.45 602.94 200.38
  Q 592.76 199.66 582.57 199.04
  C 577.51 198.74 568.53 197.57 561.34 197.87
  Q 559.51 197.95 557.68 197.79
  C 552.32 197.31 546.90 197.16 541.58 196.50
  C 536.23 195.84 530.67 196.25 525.14 195.67
  C 520.97 195.23 516.75 195.38 512.54 194.90
  Q 510.75 194.69 507.63 193.56
  C 503.26 191.96 498.14 193.34 493.74 193.89
  Q 492.01 194.10 488.17 197.10
  Q 487.76 197.42 487.64 197.92
  Q 486.81 201.29 486.99 206.76
  C 487.18 212.18 487.20 214.30 489.66 219.42
  C 491.73 223.71 492.93 228.55 494.82 233.00
  Q 616.95 520.52 745.94 805.02
  C 752.71 819.94 759.66 834.83 766.27 849.82
  Q 767.31 852.17 769.43 853.55
  Q 777.07 858.53 786.13 857.03
  C 792.30 856.00 798.39 856.42 804.60 854.99
  Q 811.02 853.51 813.95 853.17
  Q 848.06 849.21 882.24 845.96
  C 891.16 845.11 900.09 844.38 909.00 843.46
  C 911.10 843.24 913.66 843.42 916.00 843.10
  C 924.81 841.90 934.50 841.45 942.51 840.60
  Q 954.05 839.37 965.63 838.64
  C 978.79 837.82 991.50 836.01 1004.51 835.49
  C 1011.86 835.19 1021.61 833.97 1026.52 833.59
  Q 1032.80 833.11 1039.08 832.62
  C 1040.66 832.49 1042.45 832.83 1043.75 832.71
  Q 1061.91 831.13 1080.08 829.79
  C 1084.06 829.50 1089.22 829.70 1093.79 829.20
  C 1099.30 828.59 1104.20 828.43 1109.74 827.81
  C 1117.67 826.92 1127.00 827.23 1134.73 826.60
  Q 1144.44 825.81 1154.15 825.05
  C 1158.25 824.73 1163.07 825.27 1167.57 824.88
  C 1169.07 824.76 1170.70 825.33 1172.36 824.91
  C 1178.03 823.49 1182.04 821.02 1187.00 818.18
  A 0.89 0.88 -18.2 0 0 1187.44 817.32
  Q 1186.73 811.30 1185.84 809.24
  C 1179.54 794.68 1171.96 779.90 1165.77 766.25
  C 1154.88 742.25 1143.91 718.36 1132.47 694.62
  Z"
/>
<rect fill="#000000" x="-5.56" y="-27.43" transform="translate(473.42,280.67) rotate(-22.6)" width="11.12" height="54.86" rx="5.09"/>
<path fill="#ffc4ff" d="
  M 1099.97 283.11
  L 1113.72 287.05
  A 0.31 0.31 0.0 0 1 1113.75 287.63
  L 1100.57 293.17
  A 0.31 0.31 0.0 0 0 1100.39 293.37
  L 1096.45 307.12
  A 0.31 0.31 0.0 0 1 1095.87 307.15
  L 1090.33 293.97
  A 0.31 0.31 0.0 0 0 1090.13 293.79
  L 1076.38 289.85
  A 0.31 0.31 0.0 0 1 1076.35 289.27
  L 1089.53 283.73
  A 0.31 0.31 0.0 0 0 1089.71 283.53
  L 1093.65 269.78
  A 0.31 0.31 0.0 0 1 1094.23 269.75
  L 1099.77 282.93
  A 0.31 0.31 0.0 0 0 1099.97 283.11
  Z"
/>
<rect fill="#000000" x="-5.53" y="-71.66" transform="translate(519.51,392.66) rotate(-22.7)" width="11.06" height="143.32" rx="5.48"/>
<path fill="#000000" d="
  M 852.62 459.50
  C 851.97 454.31 851.53 450.24 850.64 443.99
  Q 849.72 437.53 850.60 430.97
  C 851.34 425.41 856.33 423.06 861.49 423.72
  C 875.86 425.57 886.25 433.32 896.23 443.26
  Q 909.57 456.55 913.94 462.31
  C 928.10 480.95 943.28 498.61 950.51 520.77
  Q 951.19 522.85 952.38 530.52
  Q 953.62 538.55 950.45 544.43
  C 947.02 550.77 943.60 557.55 938.30 562.55
  C 922.76 577.20 902.08 583.27 881.25 584.47
  Q 880.38 584.52 879.08 584.00
  Q 878.64 583.82 878.28 584.13
  C 875.25 586.78 868.80 584.71 865.41 584.69
  C 852.44 584.61 839.07 583.21 826.56 579.62
  Q 822.01 578.31 817.48 576.93
  Q 795.43 570.23 778.07 559.43
  C 770.11 554.48 757.47 546.48 750.21 539.06
  Q 735.87 524.41 729.35 504.46
  Q 724.65 490.07 724.13 485.68
  C 722.99 476.26 719.85 467.71 720.06 458.45
  Q 720.11 455.96 719.97 451.56
  C 719.84 447.63 720.56 444.37 721.08 440.32
  C 721.90 433.89 723.32 428.79 729.36 425.76
  Q 737.81 421.53 746.43 425.56
  C 750.68 427.55 755.77 433.13 759.84 437.07
  C 766.58 443.59 772.50 451.72 778.27 459.09
  A 1.75 1.75 0.0 0 0 780.00 459.72
  Q 790.61 457.54 801.59 457.87
  Q 805.22 457.98 808.42 457.84
  C 817.75 457.41 826.93 457.77 836.25 457.84
  Q 844.35 457.90 852.19 459.88
  Q 852.69 460.01 852.62 459.50
  Z
  M 896.72 522.66
  Q 901.43 513.53 895.24 506.85
  Q 893.38 504.85 892.31 503.29
  C 888.01 497.06 880.00 493.26 872.52 492.43
  C 869.52 492.09 862.92 493.32 860.63 494.84
  Q 856.89 497.31 857.38 502.22
  C 858.51 513.59 870.51 521.49 880.58 524.33
  C 883.48 525.15 889.17 525.87 891.52 524.88
  Q 893.91 523.88 895.76 523.42
  Q 896.41 523.26 896.72 522.66
  Z
  M 815.84 505.93
  C 810.55 496.52 799.69 491.35 789.01 492.79
  Q 781.77 493.76 778.57 500.17
  C 775.56 506.18 782.31 514.77 786.72 519.29
  Q 793.01 525.75 801.88 526.27
  C 804.58 526.43 807.60 527.05 810.38 525.66
  C 814.95 523.38 819.63 517.62 818.45 512.09
  Q 817.94 509.65 815.84 505.93
  Z"
/>
<path fill="#000000" d="
  M 876.92 521.43
  C 871.27 519.24 864.95 515.21 862.32 509.87
  C 860.96 507.11 858.74 498.62 863.00 497.01
  C 873.58 493.02 887.89 496.74 893.21 507.38
  C 896.29 513.54 896.19 519.76 888.40 521.84
  Q 882.22 523.49 876.92 521.43
  Z"
/>
<path fill="#000000" d="
  M 816.15 512.67
  Q 817.18 515.82 815.25 519.26
  C 812.97 523.30 804.66 524.17 800.35 523.41
  C 792.52 522.04 783.55 513.67 781.74 505.75
  C 780.73 501.31 783.40 498.21 787.55 497.09
  C 800.55 493.59 812.07 500.14 816.15 512.67
  Z"
/>
<path fill="#000000" d="
  M 437.56 613.86
  L 459.63 620.25
  A 0.34 0.34 0.0 0 1 459.66 620.89
  L 438.51 629.85
  A 0.34 0.34 0.0 0 0 438.32 630.06
  L 431.93 652.13
  A 0.34 0.34 0.0 0 1 431.29 652.16
  L 422.33 631.01
  A 0.34 0.34 0.0 0 0 422.12 630.82
  L 400.05 624.43
  A 0.34 0.34 0.0 0 1 400.02 623.79
  L 421.17 614.83
  A 0.34 0.34 0.0 0 0 421.36 614.62
  L 427.75 592.55
  A 0.34 0.34 0.0 0 1 428.39 592.52
  L 437.35 613.67
  A 0.34 0.34 0.0 0 0 437.56 613.86
  Z"
/>
<path fill="#000000" d="
  M 810.54 1404.37
  L 809.73 1402.67
  Q 809.47 1402.14 809.16 1402.64
  Q 808.66 1403.41 808.89 1404.49
  C 806.96 1404.30 805.73 1405.53 803.66 1405.64
  C 800.31 1405.81 797.07 1406.65 793.74 1406.94
  C 791.24 1407.16 788.80 1407.81 786.40 1407.95
  C 780.56 1408.29 775.12 1408.73 769.06 1409.91
  Q 759.47 1411.78 749.77 1412.95
  Q 739.38 1414.20 729.03 1415.76
  Q 709.55 1418.70 690.02 1421.32
  Q 687.03 1421.72 683.51 1422.40
  C 678.77 1423.32 675.54 1423.38 671.63 1424.13
  C 663.40 1425.72 655.03 1426.70 646.75 1428.06
  C 640.99 1429.00 634.99 1429.52 629.46 1430.47
  C 620.91 1431.94 611.64 1433.08 603.78 1434.45
  C 596.95 1435.65 589.64 1437.09 582.75 1437.53
  C 581.08 1437.64 578.92 1438.32 576.68 1438.46
  C 574.38 1438.61 571.90 1439.40 570.07 1439.69
  C 552.14 1442.61 534.16 1445.03 516.31 1448.23
  Q 516.28 1448.23 501.65 1450.62
  Q 495.37 1451.65 486.33 1453.34
  Q 474.99 1455.47 440.51 1461.23
  Q 436.15 1461.96 426.85 1464.31
  C 425.34 1464.69 424.47 1464.26 423.04 1463.91
  A 1.54 1.51 -49.2 0 0 422.08 1463.99
  C 419.83 1464.98 417.81 1465.81 415.31 1465.11
  C 412.52 1464.32 407.16 1462.57 405.43 1459.82
  C 401.24 1453.17 397.30 1447.05 394.63 1439.46
  Q 275.03 1099.56 156.41 759.31
  Q 154.31 753.29 155.49 747.68
  C 156.43 743.20 160.43 739.14 162.44 735.48
  Q 168.63 724.24 175.24 713.24
  Q 178.49 707.83 181.46 705.33
  C 187.76 700.03 195.70 699.20 203.87 700.93
  C 207.40 701.68 210.69 701.04 214.45 701.60
  C 216.33 701.88 218.11 701.50 219.84 701.72
  Q 223.15 702.16 226.46 702.65
  C 232.26 703.53 237.53 703.24 243.14 703.75
  C 273.29 706.47 304.72 708.78 332.50 707.74
  Q 341.78 707.40 347.72 707.82
  C 357.94 708.55 368.17 709.00 378.38 709.95
  C 386.33 710.70 394.74 710.68 402.97 711.35
  C 408.67 711.81 415.06 711.65 421.10 712.27
  C 429.42 713.12 437.90 713.35 446.25 713.93
  C 452.50 714.36 460.51 715.70 466.25 715.50
  Q 469.32 715.39 471.54 715.68
  C 474.14 716.02 476.62 715.76 478.50 716.01
  C 483.13 716.64 488.59 715.95 493.32 717.10
  Q 495.28 717.57 497.76 717.66
  C 499.87 717.73 501.74 718.44 503.77 718.41
  Q 514.04 718.26 517.51 718.81
  Q 521.07 719.37 523.27 719.47
  C 533.34 719.94 540.65 721.11 549.01 721.57
  Q 554.44 721.88 559.86 722.37
  C 565.86 722.93 575.31 721.72 580.64 724.34
  C 595.45 731.63 604.02 744.53 610.67 758.78
  C 615.13 768.34 619.07 778.20 623.48 787.68
  Q 626.38 793.90 629.14 800.19
  Q 635.87 815.57 642.87 830.82
  C 647.88 841.72 652.24 852.87 657.57 863.65
  C 658.88 866.31 659.82 869.35 660.93 871.75
  Q 664.95 880.44 668.71 889.25
  C 678.88 913.10 689.76 936.60 699.99 960.42
  C 713.99 993.05 723.41 1013.96 732.12 1034.27
  C 738.39 1048.88 744.76 1062.51 750.70 1076.80
  C 759.03 1096.80 767.81 1116.61 776.40 1136.50
  C 780.35 1145.64 784.30 1154.38 788.26 1163.92
  C 792.48 1174.11 797.42 1184.11 801.37 1194.40
  C 804.26 1201.94 807.68 1208.69 810.62 1215.94
  Q 815.31 1227.49 816.31 1229.80
  C 825.27 1250.51 834.03 1271.32 843.64 1291.75
  C 848.40 1301.86 851.87 1311.29 855.39 1321.38
  C 857.71 1328.04 860.81 1334.30 863.61 1340.78
  Q 864.07 1341.85 864.22 1343.01
  Q 865.42 1352.52 862.80 1361.59
  C 861.71 1365.34 859.24 1367.86 856.58 1370.57
  Q 842.82 1384.57 828.41 1397.91
  Q 826.63 1399.55 824.49 1400.71
  Q 820.67 1402.78 810.54 1404.37
  Z
  M 726.74 1047.52
  C 683.89 949.85 645.83 863.35 596.75 755.00
  C 594.13 749.22 587.59 741.09 581.35 737.52
  Q 578.17 735.70 576.76 735.76
  C 573.82 735.89 570.81 734.93 568.41 734.72
  Q 527.35 731.09 486.25 727.97
  Q 482.99 727.72 480.91 727.67
  C 472.95 727.47 465.06 725.97 457.03 725.74
  Q 450.11 725.55 445.51 725.12
  C 439.06 724.51 434.51 724.60 429.60 724.00
  Q 425.58 723.50 425.24 723.49
  C 410.99 722.83 396.76 721.89 382.52 721.16
  C 374.21 720.73 365.65 719.44 356.50 719.74
  Q 354.12 719.81 348.37 718.58
  C 345.80 718.03 341.47 718.56 338.54 718.40
  Q 328.03 717.85 317.51 717.49
  C 316.20 717.44 314.89 717.11 313.50 717.05
  C 299.25 716.40 285.03 716.03 270.81 715.04
  Q 264.90 714.63 254.17 714.42
  Q 245.83 714.25 237.52 713.39
  C 232.48 712.86 226.49 713.61 221.06 712.89
  C 216.70 712.32 212.60 712.63 208.28 712.27
  Q 206.64 712.13 203.92 711.00
  C 199.11 709.02 189.68 710.96 185.62 714.20
  C 181.92 717.16 182.91 733.09 184.61 737.13
  C 186.61 741.87 187.81 747.50 189.25 751.60
  Q 277.39 1002.96 370.67 1252.46
  Q 394.02 1314.90 417.45 1377.32
  C 418.33 1379.65 419.08 1382.55 419.98 1384.75
  Q 424.65 1396.22 428.78 1407.89
  C 430.91 1413.93 433.64 1414.81 439.28 1416.80
  C 442.95 1418.09 447.03 1417.23 450.72 1416.55
  C 457.20 1415.36 463.40 1414.92 469.75 1412.86
  C 470.54 1412.61 471.65 1411.69 472.23 1411.63
  C 483.21 1410.45 494.25 1407.85 505.20 1406.16
  C 507.27 1405.84 510.06 1404.79 511.74 1404.70
  Q 514.61 1404.55 520.50 1403.48
  Q 525.26 1402.62 542.29 1399.99
  C 545.80 1399.45 550.09 1398.41 554.06 1397.88
  C 561.45 1396.91 567.10 1395.86 573.63 1394.98
  C 592.47 1392.44 611.18 1388.76 630.04 1386.40
  C 642.20 1384.88 654.01 1382.33 666.12 1381.07
  C 676.67 1379.98 687.79 1377.76 697.36 1376.37
  Q 700.03 1375.98 706.67 1375.34
  C 713.51 1374.69 722.86 1373.04 727.07 1372.44
  C 736.53 1371.10 745.85 1369.85 755.35 1368.80
  C 758.33 1368.47 761.66 1367.66 764.90 1367.29
  C 772.31 1366.43 779.61 1365.00 787.05 1364.34
  C 798.76 1363.29 808.52 1361.62 819.32 1360.06
  C 823.47 1359.45 828.28 1359.66 832.79 1359.02
  C 834.19 1358.82 835.50 1359.38 836.77 1358.99
  Q 844.98 1356.43 852.48 1350.51
  Q 852.85 1350.22 852.86 1349.74
  Q 853.01 1344.06 851.63 1340.72
  C 844.53 1323.44 836.36 1304.98 828.74 1285.77
  Q 818.38 1259.66 804.16 1227.26
  C 789.64 1194.18 775.66 1160.85 761.32 1127.69
  C 757.09 1117.92 752.88 1108.68 748.66 1098.40
  C 743.92 1086.87 738.48 1075.17 733.85 1064.11
  Q 730.36 1055.79 726.74 1047.52
  Z
  M 173.97 732.58
  C 170.01 737.32 167.05 743.97 163.96 750.57
  C 162.88 752.87 163.30 757.82 163.85 760.23
  Q 164.77 764.21 166.59 767.86
  Q 167.63 769.93 168.18 772.39
  C 169.04 776.25 171.28 780.24 172.15 783.32
  C 173.53 788.20 174.79 793.02 176.60 797.82
  Q 185.64 821.82 193.44 846.26
  C 195.35 852.25 198.04 859.40 200.06 866.07
  C 201.51 870.88 203.52 875.81 205.20 881.02
  Q 209.88 895.54 216.29 911.83
  C 217.70 915.39 218.78 919.35 220.15 923.09
  C 224.98 936.29 229.11 949.70 234.12 962.85
  C 235.41 966.21 236.52 970.18 237.96 973.81
  C 240.53 980.24 242.22 985.21 245.22 993.32
  C 246.86 997.79 248.33 1003.11 250.53 1007.98
  C 252.39 1012.09 253.36 1016.55 255.00 1020.81
  C 258.23 1029.21 261.25 1037.68 264.54 1046.05
  C 266.39 1050.74 267.77 1056.19 269.67 1061.19
  Q 272.91 1069.72 273.82 1072.45
  C 277.70 1084.03 282.65 1096.64 286.27 1106.90
  Q 291.83 1122.61 297.68 1138.20
  C 299.21 1142.28 300.51 1147.30 302.25 1151.78
  Q 304.85 1158.50 305.95 1161.85
  C 308.79 1170.53 312.44 1178.91 315.34 1187.53
  C 317.51 1193.97 319.99 1200.22 322.17 1206.71
  Q 323.72 1211.34 325.44 1215.92
  C 326.53 1218.80 327.23 1222.25 328.48 1225.36
  Q 330.85 1231.28 331.18 1232.26
  Q 335.13 1244.05 339.38 1255.72
  Q 342.69 1264.81 345.90 1273.93
  C 349.56 1284.35 352.11 1292.82 357.18 1306.28
  C 360.05 1313.91 362.75 1322.32 365.68 1330.32
  Q 368.98 1339.35 371.95 1348.37
  C 376.45 1362.03 381.90 1375.32 386.39 1388.97
  C 388.00 1393.86 391.03 1401.01 392.79 1407.24
  C 393.85 1410.98 395.51 1414.32 396.81 1417.98
  C 399.29 1425.02 402.18 1431.27 404.62 1438.03
  C 406.17 1442.31 407.14 1448.33 411.02 1451.97
  C 416.06 1456.70 422.16 1455.62 428.59 1454.26
  C 434.76 1452.96 440.77 1452.38 446.88 1450.60
  C 447.94 1450.29 449.38 1449.21 450.19 1449.12
  C 458.17 1448.26 465.98 1446.26 473.89 1445.00
  C 477.65 1444.40 481.58 1444.08 485.23 1443.10
  C 488.97 1442.09 492.32 1441.84 495.99 1441.20
  Q 508.66 1438.99 521.37 1436.99
  C 523.34 1436.68 525.63 1435.98 527.84 1435.68
  Q 539.34 1434.10 550.75 1432.00
  C 552.22 1431.73 554.12 1431.79 555.73 1431.48
  C 565.92 1429.54 577.07 1428.12 586.40 1426.46
  Q 599.96 1424.04 604.22 1423.62
  Q 614.82 1422.56 625.28 1420.69
  C 630.94 1419.67 637.36 1417.80 643.08 1417.76
  C 646.36 1417.75 649.59 1416.92 652.82 1416.49
  C 663.94 1415.01 674.89 1412.42 682.50 1411.93
  Q 688.28 1411.56 696.54 1410.08
  Q 704.06 1408.73 725.76 1405.84
  C 727.22 1405.64 728.72 1405.73 730.08 1405.52
  Q 747.58 1402.75 765.13 1400.29
  C 766.78 1400.05 768.66 1400.40 770.00 1400.19
  Q 776.33 1399.18 782.68 1398.32
  C 785.37 1397.96 788.73 1396.97 791.89 1396.79
  C 793.71 1396.68 795.25 1395.71 797.25 1395.91
  C 798.47 1396.03 799.15 1395.67 800.27 1395.47
  C 802.33 1395.12 803.56 1396.30 805.90 1395.26
  A 1.44 1.42 -51.3 0 1 806.77 1395.16
  Q 809.03 1395.60 811.09 1394.65
  Q 811.63 1394.40 812.18 1394.64
  L 813.06 1395.01
  Q 813.54 1395.22 814.05 1395.06
  C 826.55 1390.96 834.44 1383.28 843.18 1373.45
  C 844.69 1371.75 853.15 1364.07 853.18 1360.99
  Q 853.19 1360.24 852.57 1360.66
  C 849.81 1362.51 847.80 1364.75 844.50 1365.75
  C 838.88 1367.47 833.96 1367.97 828.80 1369.07
  C 820.85 1370.75 812.49 1371.66 804.25 1372.18
  C 795.99 1372.71 786.78 1374.84 781.00 1375.53
  Q 751.93 1378.98 723.01 1383.50
  C 718.42 1384.22 712.96 1384.68 707.94 1385.49
  C 695.65 1387.49 683.33 1389.24 671.00 1391.03
  C 661.40 1392.42 653.10 1393.07 644.41 1394.97
  Q 643.06 1395.27 642.06 1395.35
  Q 635.47 1395.87 628.96 1396.96
  Q 620.25 1398.40 611.54 1399.88
  C 607.19 1400.62 602.02 1401.00 597.29 1401.81
  C 577.75 1405.16 557.97 1407.22 538.54 1411.12
  C 536.97 1411.43 535.24 1411.39 533.56 1411.74
  Q 530.57 1412.38 529.90 1412.47
  C 519.73 1413.81 509.78 1415.83 499.68 1417.53
  C 488.33 1419.45 476.97 1421.36 465.59 1423.19
  C 460.07 1424.08 454.81 1425.38 449.42 1426.59
  C 448.03 1426.90 447.07 1426.69 445.79 1426.26
  Q 445.30 1426.10 444.81 1426.26
  C 439.94 1427.87 434.17 1426.14 429.82 1423.88
  C 426.65 1422.23 423.92 1419.00 421.15 1416.44
  C 417.96 1413.49 416.94 1407.58 415.31 1403.65
  C 412.50 1396.90 410.54 1389.81 407.90 1382.97
  Q 403.94 1372.72 402.41 1368.38
  Q 395.56 1349.02 387.93 1329.95
  C 387.12 1327.92 386.50 1325.78 385.88 1323.70
  C 384.76 1319.95 382.65 1316.41 381.31 1312.64
  C 378.16 1303.72 374.79 1294.90 371.88 1285.89
  C 369.82 1279.53 366.90 1273.63 365.04 1267.20
  C 364.36 1264.88 363.05 1262.82 362.52 1260.50
  Q 362.18 1258.99 361.78 1258.02
  Q 355.34 1242.32 353.21 1235.74
  Q 350.81 1228.33 348.51 1223.28
  C 347.23 1220.47 346.62 1217.58 345.49 1214.70
  C 343.19 1208.79 341.53 1203.59 339.44 1198.06
  C 338.85 1196.48 338.52 1194.53 337.75 1192.77
  C 336.28 1189.42 335.94 1186.52 334.60 1183.52
  Q 332.59 1179.02 330.61 1174.51
  C 329.55 1172.10 329.06 1169.53 328.37 1166.98
  C 327.92 1165.33 326.86 1163.96 326.34 1162.20
  Q 325.62 1159.78 325.04 1158.60
  C 322.83 1154.20 321.33 1148.30 320.16 1145.00
  Q 314.14 1127.90 307.68 1110.97
  Q 307.38 1110.18 306.98 1109.39
  C 306.09 1107.65 306.31 1105.45 305.50 1103.47
  Q 304.54 1101.11 304.07 1099.39
  C 303.39 1096.82 301.90 1094.40 301.14 1092.13
  Q 299.25 1086.44 296.93 1080.89
  C 295.78 1078.12 295.27 1074.87 294.01 1071.93
  C 291.03 1064.97 288.72 1057.97 286.31 1050.79
  C 285.33 1047.88 283.63 1044.27 282.66 1040.85
  Q 281.24 1035.84 280.23 1033.33
  Q 275.76 1022.23 272.43 1010.73
  C 271.98 1009.17 270.99 1007.60 270.57 1005.90
  C 269.70 1002.38 268.15 999.63 267.09 996.31
  C 265.57 991.52 263.11 987.27 262.14 982.14
  C 261.86 980.64 260.70 979.61 260.24 978.08
  C 255.39 962.13 248.71 947.14 243.89 930.80
  Q 242.47 925.97 240.53 921.32
  C 237.40 913.77 235.66 906.04 232.35 898.57
  C 230.93 895.38 230.15 891.77 229.03 889.01
  C 225.83 881.08 223.41 872.41 220.60 864.88
  Q 217.57 856.76 214.97 848.49
  C 214.52 847.06 213.49 846.00 213.11 844.50
  Q 211.85 839.37 209.93 834.47
  C 208.13 829.87 207.21 824.34 204.75 819.65
  Q 203.50 817.27 201.50 809.50
  Q 200.74 806.53 197.82 799.62
  C 195.97 795.24 194.54 790.63 192.81 786.13
  C 192.21 784.58 192.18 782.78 191.71 781.51
  Q 187.87 770.94 184.08 760.35
  C 183.07 757.53 182.16 754.01 180.99 750.88
  C 178.70 744.77 177.17 738.63 174.62 732.67
  Q 174.37 732.10 173.97 732.58
  Z"
/>
<path fill="#000000" d="
  M 546.25 751.12
  C 558.55 749.92 570.80 757.18 579.75 766.00
  C 591.55 777.64 599.64 800.49 584.32 813.34
  C 577.37 819.16 569.44 819.90 561.06 817.75
  C 542.61 813.03 530.25 791.97 529.10 774.25
  C 528.35 762.74 534.09 752.31 546.25 751.12
  Z
  M 535.51 763.74
  C 525.32 784.74 549.01 820.16 573.74 813.74
  C 576.67 812.98 578.40 812.33 579.74 809.41
  Q 583.62 800.98 581.49 792.73
  Q 576.03 771.59 554.67 763.60
  Q 546.25 760.44 537.48 762.32
  Q 536.05 762.62 535.51 763.74
  Z"
/>
<path fill="#000000" d="
  M 475.17 892.93
  Q 476.03 893.17 475.84 892.30
  C 474.57 886.41 472.52 879.49 473.04 873.74
  C 473.66 866.69 483.60 870.16 487.28 872.20
  C 496.18 877.14 503.92 886.01 510.48 893.66
  C 520.12 904.90 532.45 919.71 534.72 934.74
  C 535.38 939.13 533.84 944.05 532.19 948.62
  C 527.59 961.44 517.26 970.41 504.43 974.61
  Q 501.57 975.54 498.69 976.46
  C 491.36 978.78 480.03 978.62 472.51 977.27
  C 455.79 974.27 442.99 966.52 430.15 955.84
  C 414.73 943.01 409.72 922.83 404.95 904.09
  Q 401.74 891.45 402.70 877.75
  C 403.20 870.52 410.68 867.78 416.26 871.69
  C 422.56 876.10 429.91 886.38 434.59 893.23
  A 2.11 2.10 -23.0 0 0 436.76 894.10
  Q 441.63 893.07 445.25 892.86
  Q 455.99 892.24 466.75 891.97
  Q 471.24 891.86 475.17 892.93
  Z
  M 503.4649 932.3883
  A 13.40 8.52 38.1 0 0 498.1771 917.4153
  A 13.40 8.52 38.1 0 0 482.3751 915.8517
  A 13.40 8.52 38.1 0 0 487.6629 930.8247
  A 13.40 8.52 38.1 0 0 503.4649 932.3883
  Z
  M 458.5199 937.9790
  A 13.44 9.44 47.5 0 0 456.3999 921.6924
  A 13.44 9.44 47.5 0 0 440.3601 918.1610
  A 13.44 9.44 47.5 0 0 442.4801 934.4476
  A 13.44 9.44 47.5 0 0 458.5199 937.9790
  Z"
/>
<path fill="#000000" d="
  M 1189.02 888.00
  C 1186.31 894.83 1161.06 907.21 1162.58 892.46
  Q 1162.63 891.98 1162.94 891.61
  Q 1169.51 883.51 1180.49 882.23
  C 1183.88 881.83 1190.96 883.08 1189.02 888.00
  Z"
/>
<path fill="#000000" d="
  M 1246.15 887.68
  L 1250.83 899.12
  Q 1250.81 1114.17 1250.80 1328.99
  Q 1250.80 1341.96 1250.05 1348.97
  C 1242.29 1421.49 1184.65 1478.08 1112.22 1484.65
  Q 1105.68 1485.25 1092.25 1485.25
  Q 961.15 1485.26 829.58 1485.24
  Q 830.70 1480.61 833.56 1480.25
  Q 963.12 1480.32 1092.25 1480.26
  Q 1105.31 1480.26 1112.22 1479.57
  C 1188.53 1472.01 1245.70 1408.17 1245.75 1331.75
  Q 1245.90 1111.88 1245.83 892.00
  Q 1245.83 889.90 1246.15 887.68
  Z"
/>
<path fill="#000000" d="
  M 969.90 903.36
  Q 976.20 901.73 980.48 901.51
  C 990.17 901.03 999.87 899.68 1009.50 898.47
  C 1012.91 898.04 1021.45 897.63 1022.16 902.29
  Q 1022.48 904.33 1021.09 905.88
  Q 1020.11 906.98 1017.99 907.16
  Q 994.49 909.16 969.70 911.29
  A 2.78 2.78 0.0 0 1 966.69 908.68
  L 966.64 907.82
  Q 966.44 904.25 969.90 903.36
  Z"
/>
<ellipse fill="#000000" cx="0.00" cy="0.00" transform="translate(492.71,924.08) rotate(37.5)" rx="10.94" ry="7.42"/>
<ellipse fill="#000000" cx="0.00" cy="0.00" transform="translate(449.92,928.31) rotate(43.4)" rx="11.40" ry="7.62"/>
<path fill="#000000" d="
  M 814.56 922.58
  L 806.03 929.79
  A 1.83 1.83 0.0 0 1 805.06 930.20
  L 802.45 930.52
  A 1.83 1.83 0.0 0 1 801.06 927.29
  L 809.44 920.28
  A 1.83 1.83 0.0 0 1 810.29 919.88
  L 813.05 919.38
  A 1.83 1.83 0.0 0 1 814.56 922.58
  Z"
/>
<path fill="#000000" d="
  M 803.31 923.17
  C 801.48 925.15 792.21 934.13 789.40 931.75
  A 2.07 2.07 0.0 0 1 789.35 928.65
  C 792.45 925.82 798.17 919.95 802.73 921.17
  A 1.22 1.22 0.0 0 1 803.31 923.17
  Z"
/>
<path fill="#000000" d="
  M 777.54 929.83
  C 780.30 927.13 786.91 920.65 791.17 922.25
  A 1.21 1.21 0.0 0 1 791.59 924.25
  C 789.08 926.74 782.10 933.72 778.45 932.95
  A 1.84 1.84 0.0 0 1 777.54 929.83
  Z"
/>
<path fill="#000000" d="
  M 865.40 1091.13
  L 887.42 1097.55
  A 0.34 0.34 0.0 0 1 887.46 1098.19
  L 866.35 1107.17
  A 0.34 0.34 0.0 0 0 866.16 1107.39
  L 859.74 1129.41
  A 0.34 0.34 0.0 0 1 859.10 1129.45
  L 850.12 1108.34
  A 0.34 0.34 0.0 0 0 849.90 1108.15
  L 827.88 1101.73
  A 0.34 0.34 0.0 0 1 827.84 1101.09
  L 848.95 1092.11
  A 0.34 0.34 0.0 0 0 849.14 1091.89
  L 855.56 1069.87
  A 0.34 0.34 0.0 0 1 856.20 1069.83
  L 865.18 1090.94
  A 0.34 0.34 0.0 0 0 865.40 1091.13
  Z"
/>
<path fill="#ffc4ff" d="
  M 56.69 1170.73
  L 51.70 1169.05
  L 13.74 1157.93
  Q 13.24 1157.78 13.72 1157.57
  L 51.72 1141.27
  L 56.68 1139.08
  C 57.95 1139.18 58.66 1138.80 59.02 1137.53
  Q 64.73 1117.88 70.52 1098.26
  Q 71.54 1094.82 72.22 1091.28
  Q 72.30 1090.83 72.48 1091.25
  L 91.57 1136.24
  A 0.83 0.81 -2.9 0 0 92.10 1136.71
  L 138.69 1150.25
  Q 139.00 1150.34 138.70 1150.47
  L 94.31 1169.33
  A 1.42 1.41 86.9 0 0 93.50 1170.24
  L 80.07 1216.43
  Q 79.94 1216.88 79.76 1216.45
  Q 70.63 1194.96 61.49 1173.45
  C 60.49 1171.09 59.14 1170.52 56.69 1170.73
  Z"
/>
<path fill="#000000" d="
  M 51.70 1169.05
  L 56.69 1170.73
  Q 56.63 1249.39 56.69 1328.00
  Q 56.70 1340.50 57.57 1347.96
  C 65.04 1412.68 111.68 1464.24 175.71 1477.40
  Q 181.01 1478.49 186.63 1479.03
  L 194.67 1479.88
  Q 199.66 1480.28 204.50 1480.28
  Q 495.31 1480.29 786.29 1480.27
  Q 791.10 1481.57 796.12 1483.11
  C 797.44 1483.51 797.80 1484.19 798.44 1485.29
  L 200.35 1485.30
  L 192.09 1484.92
  C 118.11 1478.70 59.43 1421.29 52.33 1347.23
  Q 51.69 1340.49 51.70 1327.24
  Q 51.76 1248.39 51.70 1169.05
  Z"
/>
<path fill="#ffc4ff" d="
  M 307.99 1344.84
  L 319.68 1348.17
  A 0.33 0.33 0.0 0 1 319.72 1348.79
  L 308.51 1353.48
  A 0.33 0.33 0.0 0 0 308.32 1353.69
  L 304.99 1365.38
  A 0.33 0.33 0.0 0 1 304.37 1365.42
  L 299.68 1354.21
  A 0.33 0.33 0.0 0 0 299.47 1354.02
  L 287.78 1350.69
  A 0.33 0.33 0.0 0 1 287.74 1350.07
  L 298.95 1345.38
  A 0.33 0.33 0.0 0 0 299.14 1345.17
  L 302.47 1333.48
  A 0.33 0.33 0.0 0 1 303.09 1333.44
  L 307.78 1344.65
  A 0.33 0.33 0.0 0 0 307.99 1344.84
  Z"
/>
<rect fill="#000000" x="-9.39" y="-2.52" transform="translate(823.25,1381.88) rotate(-44.5)" width="18.78" height="5.04" rx="2.46"/>
<rect fill="#000000" x="-9.43" y="-2.52" transform="translate(812.96,1382.44) rotate(-44.7)" width="18.86" height="5.04" rx="2.46"/>
<rect fill="#000000" x="-9.34" y="-2.53" transform="translate(802.34,1383.59) rotate(-44.3)" width="18.68" height="5.06" rx="2.46"/>
<path fill="#000000" d="
  M 641.99 1402.61
  Q 642.50 1401.66 643.50 1401.52
  Q 665.13 1398.47 686.60 1395.34
  A 2.04 2.03 -19.9 0 1 688.62 1396.28
  C 692.22 1402.07 685.29 1406.55 680.39 1407.14
  Q 667.05 1408.73 652.14 1411.84
  C 648.57 1412.59 642.31 1413.67 640.48 1409.42
  C 639.28 1406.61 640.69 1405.00 641.99 1402.61
  Z"
/>
<path fill="#000000" d="
  M 485.06 1440.06
  C 482.05 1441.68 477.67 1443.78 474.02 1442.82
  C 470.29 1441.85 470.11 1438.07 472.10 1435.34
  Q 478.23 1426.88 487.96 1422.95
  C 489.91 1422.16 494.12 1421.01 495.03 1423.74
  Q 496.83 1429.11 493.20 1432.92
  C 491.10 1435.12 487.94 1438.51 485.06 1440.06
  Z"
/>
</svg>
