<?xml version="1.0" encoding="UTF-8" standalone="no"?>
<!DOCTYPE svg PUBLIC "-//W3C//DTD SVG 1.1//EN" "http://www.w3.org/Graphics/SVG/1.1/DTD/svg11.dtd">
<svg xmlns="http://www.w3.org/2000/svg" version="1.1" viewBox="0.00 0.00 1223.00 1714.00">
<g stroke-width="2.00" fill="none" stroke-linecap="butt">
<path stroke="#806280" vector-effect="non-scaling-stroke" d="
  M 240.25 69.17
  Q 240.71 73.20 248.42 74.04"
/>
<path stroke="#806280" vector-effect="non-scaling-stroke" d="
  M 224.25 75.05
  L 228.71 73.13
  Q 229.18 72.93 229.34 72.44
  L 230.32 69.41"
/>
<path stroke="#806280" vector-effect="non-scaling-stroke" d="
  M 224.68 1633.14
  L 234.10 1638.90"
/>
<path stroke="#806280" vector-effect="non-scaling-stroke" d="
  M 1096.66 213.24
  L 1090.52 202.55"
/>
<path stroke="#806280" vector-effect="non-scaling-stroke" d="
  M 236.81 1634.19
  L 246.36 1639.04"
/>
<path stroke="#806280" vector-effect="non-scaling-stroke" d="
  M 1096.76 807.19
  L 1091.88 823.26"
/>
<path stroke="#806280" vector-effect="non-scaling-stroke" d="
  M 1091.86 715.36
  L 1096.77 726.76"
/>
<path stroke="#806280" vector-effect="non-scaling-stroke" d="
  M 1096.82 226.29
  L 1091.86 215.75"
/>
</g>
<path fill="#ffc4ff" d="
  M 240.25 69.17
  Q 240.71 73.20 248.42 74.04
  L 257.91 76.96
  Q 258.96 77.28 257.95 77.71
  L 242.58 84.25
  Q 242.12 84.44 241.98 84.92
  L 237.27 101.23
  Q 237.10 101.81 236.86 101.25
  L 230.27 85.71
  Q 230.03 85.15 229.45 84.98
  L 213.25 80.27
  Q 212.64 80.10 213.22 79.84
  L 224.25 75.05
  L 228.71 73.13
  Q 229.18 72.93 229.34 72.44
  L 230.32 69.41
  L 234.16 56.34
  Q 234.35 55.70 234.62 56.31
  L 240.25 69.17
  Z"
/>
<path fill="#000000" d="
  M 240.25 69.17
  Q 593.48 69.15 946.50 69.17
  C 1027.14 69.18 1092.63 133.18 1096.66 213.24
  L 1090.52 202.55
  C 1081.30 128.80 1018.55 74.04 944.50 74.04
  Q 596.46 74.03 248.42 74.04
  Q 240.71 73.20 240.25 69.17
  Z"
/>
<path fill="#000000" d="
  M 230.32 69.41
  L 229.34 72.44
  Q 229.18 72.93 228.71 73.13
  L 224.25 75.05
  C 168.46 81.53 122.26 117.88 102.89 170.30
  Q 93.69 195.20 93.69 219.50
  Q 93.69 848.75 93.69 1477.99
  Q 93.69 1492.14 94.12 1497.99
  C 99.31 1568.57 154.16 1625.48 224.68 1633.14
  L 234.10 1638.90
  C 159.03 1636.17 97.79 1578.75 89.55 1504.21
  Q 88.75 1497.00 88.75 1484.24
  Q 88.75 856.13 88.75 228.01
  Q 88.75 214.24 89.26 208.02
  C 95.39 133.13 155.10 74.32 230.32 69.41
  Z"
/>
<path fill="#ffc4ff" d="
  M 74.76 106.72
  L 91.24 111.48
  A 0.31 0.31 0.0 0 1 91.27 112.06
  L 75.48 118.75
  A 0.31 0.31 0.0 0 0 75.30 118.94
  L 70.54 135.42
  A 0.31 0.31 0.0 0 1 69.96 135.45
  L 63.27 119.66
  A 0.31 0.31 0.0 0 0 63.08 119.48
  L 46.60 114.72
  A 0.31 0.31 0.0 0 1 46.57 114.14
  L 62.36 107.45
  A 0.31 0.31 0.0 0 0 62.54 107.26
  L 67.30 90.78
  A 0.31 0.31 0.0 0 1 67.88 90.75
  L 74.57 106.54
  A 0.31 0.31 0.0 0 0 74.76 106.72
  Z"
/>
<path fill="#ffc4ff" d="
  M 1090.52 202.55
  L 1096.66 213.24
  C 1107.29 234.86 1114.13 257.51 1114.13 280.50
  Q 1114.13 512.81 1114.13 745.29
  A 0.94 0.93 8.4 0 0 1114.80 746.18
  L 1151.71 756.87
  Q 1152.09 756.98 1151.72 757.14
  L 1114.76 772.85
  A 1.02 1.02 0.0 0 0 1114.13 773.79
  Q 1114.13 1137.60 1114.13 1501.26
  Q 1114.13 1514.72 1113.54 1521.22
  C 1106.96 1593.67 1049.97 1650.91 977.60 1658.00
  Q 970.83 1658.66 957.63 1658.66
  Q 632.44 1658.66 307.25 1658.67
  Q 269.15 1658.67 234.10 1638.90
  L 224.68 1633.14
  C 187.68 1607.90 163.78 1568.53 158.77 1524.21
  Q 157.96 1517.01 157.96 1504.25
  Q 157.95 1068.71 157.96 633.19
  A 0.65 0.65 0.0 0 0 157.48 632.56
  L 149.26 630.21
  Q 148.69 630.04 149.24 629.81
  L 157.43 626.36
  Q 157.96 626.14 157.96 625.57
  Q 157.95 456.63 157.96 287.50
  Q 157.96 274.76 158.78 267.54
  Q 163.09 229.47 185.17 197.30
  A 0.43 0.43 0.0 0 0 184.94 196.65
  L 139.29 183.37
  Q 138.73 183.21 139.26 182.98
  L 185.00 163.55
  A 1.65 1.61 -4.2 0 0 185.93 162.50
  L 199.88 114.55
  Q 199.97 114.22 200.11 114.54
  L 219.72 160.76
  A 0.84 0.84 0.0 0 0 220.98 161.12
  Q 253.80 138.06 293.03 133.77
  Q 300.18 132.99 313.01 132.99
  Q 635.26 132.99 957.50 132.99
  Q 970.79 132.99 977.48 133.63
  C 1023.89 138.09 1064.92 163.36 1090.52 202.55
  Z
  M 236.81 1634.19
  L 246.36 1639.04
  Q 246.41 1639.46 246.74 1639.61
  C 268.63 1649.79 290.24 1653.76 314.25 1653.76
  Q 636.01 1653.79 957.76 1653.76
  Q 970.59 1653.76 977.73 1652.99
  C 1046.72 1645.58 1100.81 1591.38 1108.45 1522.46
  Q 1109.25 1515.31 1109.25 1502.50
  Q 1109.28 1139.23 1109.25 775.90
  A 0.59 0.59 0.0 0 0 1108.39 775.37
  L 1105.56 776.81
  A 1.24 1.21 -6.5 0 0 1104.93 777.58
  L 1096.76 807.19
  L 1091.88 823.26
  Q 1091.72 824.33 1091.13 825.14
  Q 1090.72 825.70 1090.45 825.06
  L 1071.17 779.69
  A 1.65 1.62 -3.0 0 0 1070.13 778.77
  L 1022.05 764.79
  Q 1021.85 764.73 1022.04 764.64
  L 1068.21 745.04
  A 1.49 1.46 -4.1 0 0 1069.05 744.09
  L 1083.06 695.80
  Q 1083.18 695.40 1083.35 695.78
  L 1091.86 715.36
  L 1096.77 726.76
  L 1102.98 742.25
  A 1.11 1.09 87.0 0 0 1103.69 742.90
  L 1108.50 744.37
  A 0.59 0.59 0.0 0 0 1109.26 743.81
  Q 1109.27 512.89 1109.26 282.00
  Q 1109.26 254.06 1096.82 226.29
  L 1091.86 215.75
  Q 1090.73 213.19 1088.59 209.66
  C 1063.66 168.37 1021.09 141.71 972.73 138.21
  Q 966.96 137.80 952.75 137.79
  Q 635.25 137.77 317.75 137.80
  Q 304.10 137.80 297.77 138.35
  Q 260.45 141.59 228.31 162.36
  Q 226.92 163.26 228.51 163.73
  L 268.70 175.39
  Q 268.93 175.46 268.71 175.56
  L 222.49 195.22
  A 1.24 1.22 86.5 0 0 221.79 196.02
  L 207.77 244.20
  Q 207.70 244.47 207.59 244.21
  L 189.58 201.81
  Q 189.06 200.58 188.33 201.70
  Q 166.64 234.88 163.32 272.76
  Q 162.76 279.07 162.76 292.74
  Q 162.75 458.28 162.76 623.83
  A 0.18 0.18 0.0 0 0 163.01 624.00
  L 168.57 621.62
  Q 169.05 621.41 169.20 620.91
  L 175.02 600.76
  Q 175.16 600.26 175.36 600.74
  L 183.59 620.06
  Q 183.80 620.56 184.33 620.72
  L 203.86 626.39
  Q 204.91 626.69 203.90 627.12
  L 185.10 635.12
  A 1.05 1.02 -3.4 0 0 184.51 635.77
  L 178.79 655.56
  Q 178.53 656.46 178.16 655.60
  L 170.14 636.70
  Q 169.90 636.14 169.31 635.97
  L 163.27 634.26
  Q 162.76 634.11 162.76 634.64
  Q 162.76 1066.45 162.76 1498.25
  Q 162.76 1512.12 163.25 1518.23
  C 167.14 1566.64 194.44 1610.28 236.81 1634.19
  Z"
/>
<path fill="#ffc4ff" d="
  M 912.50 183.86
  L 932.70 189.67
  A 0.34 0.34 0.0 0 1 932.73 190.31
  L 913.37 198.47
  A 0.34 0.34 0.0 0 0 913.17 198.69
  L 907.36 218.89
  A 0.34 0.34 0.0 0 1 906.72 218.92
  L 898.56 199.56
  A 0.34 0.34 0.0 0 0 898.34 199.36
  L 878.14 193.55
  A 0.34 0.34 0.0 0 1 878.11 192.91
  L 897.47 184.75
  A 0.34 0.34 0.0 0 0 897.67 184.53
  L 903.48 164.33
  A 0.34 0.34 0.0 0 1 904.12 164.30
  L 912.28 183.66
  A 0.34 0.34 0.0 0 0 912.50 183.86
  Z"
/>
<path fill="#000000" fill-opacity="0.933" d="
  M 894.60 235.91
  C 901.77 242.45 907.36 249.96 913.20 257.67
  Q 914.37 259.21 915.76 261.75
  C 916.83 263.70 918.21 265.41 919.07 267.35
  Q 923.74 277.88 927.15 288.88
  Q 928.08 291.87 927.93 294.76
  Q 927.78 297.75 927.37 300.72
  C 926.03 310.31 915.27 315.16 909.75 321.50
  Q 899.80 332.90 888.99 343.49
  Q 888.11 344.35 887.15 345.14
  Q 886.76 345.46 886.75 345.96
  Q 886.52 359.31 886.12 372.64
  C 885.88 380.82 885.03 389.64 884.42 399.00
  C 884.18 402.56 885.83 402.39 887.82 404.24
  C 893.58 409.57 899.60 414.74 904.85 420.40
  Q 908.46 424.30 912.01 428.25
  C 915.35 431.96 915.64 434.84 917.02 439.19
  C 918.38 443.48 918.51 447.47 918.64 451.87
  C 918.69 453.75 918.04 455.39 917.62 457.22
  C 915.19 467.73 906.81 471.72 898.70 476.92
  Q 890.52 482.17 881.63 486.00
  C 875.36 488.71 868.53 492.47 861.54 494.78
  Q 859.07 495.60 855.31 495.74
  C 851.34 495.88 846.81 496.85 843.56 497.16
  Q 830.42 498.42 825.75 497.72
  C 818.97 496.70 811.92 496.32 805.48 495.00
  C 796.12 493.08 786.52 491.40 777.34 488.77
  C 764.82 485.17 753.01 480.78 741.00 475.74
  C 731.81 471.89 723.64 466.97 716.07 460.49
  C 712.28 457.25 708.50 454.76 704.89 452.05
  C 701.95 449.84 698.89 446.40 695.59 443.85
  Q 695.16 443.52 694.72 443.83
  L 693.79 444.49
  Q 693.32 444.82 692.75 444.88
  C 685.57 445.58 677.93 446.39 671.07 445.44
  Q 657.66 443.58 647.76 436.80
  C 636.63 429.19 627.12 422.08 618.81 412.19
  C 612.81 405.06 609.46 397.27 608.49 387.87
  C 608.01 383.25 607.20 378.58 607.45 373.93
  C 607.80 367.62 607.91 361.15 609.45 353.33
  Q 610.77 346.57 612.87 337.18
  C 615.32 326.24 618.11 315.60 623.79 305.94
  C 627.60 299.44 634.62 295.86 639.98 291.41
  C 641.31 290.30 643.20 290.92 644.75 290.70
  C 646.61 290.43 647.89 289.72 649.53 291.16
  A 1.71 1.70 41.3 0 0 651.93 291.01
  C 653.20 289.59 653.64 288.24 653.76 286.19
  Q 654.28 277.75 657.35 267.77
  Q 663.35 248.30 671.47 235.50
  Q 674.42 230.84 682.51 223.51
  C 688.98 217.64 695.45 211.50 702.09 206.16
  Q 722.65 189.64 744.31 174.56
  C 748.24 171.81 751.32 169.85 755.56 169.65
  Q 758.61 169.51 759.90 169.31
  C 772.55 167.35 788.36 165.61 800.46 171.00
  C 804.13 172.63 808.89 176.57 813.35 179.12
  C 823.00 184.63 832.31 190.85 841.76 196.69
  C 843.81 197.95 845.68 199.73 847.52 200.92
  C 864.02 211.60 880.03 222.64 894.60 235.91
  Z
  M 812.07 184.23
  C 809.29 182.47 804.25 178.25 799.78 176.86
  C 782.80 171.58 757.46 171.86 742.33 183.33
  C 728.81 193.57 705.07 211.74 687.35 226.98
  C 686.16 228.00 685.29 229.19 684.32 230.41
  C 682.17 233.11 679.00 235.00 677.22 237.74
  Q 675.31 240.67 670.00 251.42
  C 668.03 255.39 666.67 259.88 664.89 264.13
  C 662.87 268.95 660.42 278.25 660.37 284.89
  Q 660.35 288.05 659.56 289.94
  Q 657.71 294.40 654.34 298.35
  A 2.29 2.29 0.0 0 1 651.31 298.76
  C 648.69 296.99 645.51 295.62 642.85 298.16
  Q 642.49 298.51 642.01 298.65
  C 636.91 300.16 629.39 306.10 627.39 311.14
  C 624.18 319.26 622.61 325.65 619.63 336.24
  C 617.16 345.00 615.95 354.06 614.79 363.08
  Q 614.04 368.98 614.00 374.97
  C 613.98 380.34 613.49 386.60 614.81 391.53
  C 619.61 409.44 638.29 422.06 652.24 432.49
  Q 655.24 434.72 658.16 435.61
  C 660.58 436.35 662.84 437.44 665.00 437.92
  C 674.82 440.09 683.77 440.88 692.79 438.19
  A 0.65 0.65 0.0 0 0 693.15 437.22
  Q 683.95 422.65 677.88 406.91
  C 674.00 396.84 670.95 384.36 667.90 373.01
  Q 666.37 367.34 665.64 361.35
  A 2.03 2.03 0.0 0 1 668.27 359.17
  Q 669.41 359.54 670.05 361.47
  C 673.26 371.14 676.12 381.09 679.46 390.50
  C 682.78 399.85 685.62 409.69 689.99 418.21
  Q 693.31 424.67 697.02 430.93
  Q 702.74 440.57 708.24 446.25
  Q 710.06 448.13 714.10 451.10
  C 718.27 454.18 722.84 459.05 727.00 461.21
  Q 748.01 472.14 770.52 479.35
  C 776.94 481.40 785.28 483.20 792.60 485.43
  Q 798.36 487.18 815.86 489.42
  C 828.88 491.08 840.63 491.31 853.08 488.97
  C 855.99 488.42 858.74 488.79 861.60 487.76
  C 874.58 483.09 887.86 477.96 899.52 470.49
  C 906.47 466.04 910.39 461.20 911.93 453.40
  C 913.09 447.51 911.04 434.98 906.52 430.49
  Q 894.33 418.39 881.57 406.90
  C 880.45 405.90 879.21 405.36 877.96 404.70
  A 2.38 2.38 0.0 0 1 876.71 402.36
  C 877.47 394.52 878.31 387.05 878.79 378.88
  C 879.18 372.14 879.92 365.02 880.11 358.70
  C 880.21 355.46 879.71 345.04 881.55 342.80
  Q 884.41 339.32 889.37 334.13
  C 894.89 328.34 900.42 321.67 906.36 315.77
  C 913.84 308.33 921.35 307.58 921.91 294.99
  C 922.03 292.22 921.21 289.40 920.68 286.67
  Q 920.19 284.09 919.36 281.94
  C 911.17 260.67 897.68 243.57 878.93 230.08
  C 856.94 214.25 834.00 198.09 812.07 184.23
  Z"
/>
<path fill="#000000" d="
  M 706.05 274.58
  Q 704.88 271.60 705.51 267.51
  Q 707.10 257.16 708.50 253.01
  Q 710.42 247.35 712.17 241.64
  Q 714.09 235.36 720.69 223.69
  Q 731.65 204.27 750.31 192.09
  Q 753.23 190.18 763.54 185.27
  Q 771.39 181.52 779.96 181.59
  C 783.73 181.62 788.25 182.67 792.50 183.37
  Q 795.16 183.80 797.42 184.51
  Q 809.41 188.27 815.77 191.71
  C 828.93 198.85 841.15 206.35 852.27 215.15
  C 858.02 219.69 864.62 224.07 870.52 228.98
  C 886.14 242.00 903.48 256.64 912.41 275.07
  Q 914.62 279.62 915.71 284.91
  C 917.27 292.46 917.98 300.33 910.96 304.65
  C 902.87 309.62 889.64 306.63 880.56 305.89
  C 876.33 305.55 872.03 305.11 867.80 304.70
  Q 867.15 304.64 867.46 305.21
  C 869.21 308.43 869.29 313.23 869.25 317.00
  C 869.22 319.07 869.69 321.01 869.56 323.00
  Q 869.25 327.94 869.01 332.89
  C 868.87 335.80 868.08 339.28 868.09 342.58
  C 868.10 349.80 866.98 357.24 866.06 364.39
  C 865.85 366.00 866.23 367.72 866.10 369.20
  C 865.42 377.16 864.56 386.72 861.43 394.03
  A 2.26 2.26 0.0 0 0 862.11 396.69
  Q 868.83 401.97 875.06 406.84
  C 883.38 413.32 890.06 419.44 896.93 426.57
  C 902.53 432.38 907.28 439.66 905.21 447.94
  C 901.86 461.32 893.63 466.82 880.29 467.80
  Q 878.14 467.96 874.04 468.66
  Q 870.92 469.20 861.25 468.62
  C 860.31 468.57 859.05 469.16 857.87 469.14
  C 848.67 469.03 841.89 467.70 834.38 466.32
  C 832.30 465.94 828.02 464.48 824.70 464.64
  C 819.89 464.87 814.32 462.85 809.59 461.84
  C 807.21 461.33 803.93 460.23 801.01 459.67
  Q 798.76 459.24 797.56 458.88
  C 776.58 452.65 755.54 439.87 743.25 421.29
  C 735.68 409.83 727.43 397.83 721.82 386.01
  C 707.96 356.79 701.43 324.78 703.49 292.41
  C 703.84 286.80 701.86 280.30 705.16 275.24
  Q 705.35 274.96 705.57 274.90
  Q 705.71 274.85 705.87 274.85
  Q 706.16 274.85 706.05 274.58
  Z
  M 786.17 255.70
  C 780.54 268.72 788.22 284.17 797.70 293.03
  C 804.58 299.47 819.94 303.90 824.01 292.28
  C 826.88 284.11 827.41 277.12 824.07 269.17
  C 821.46 262.95 818.76 259.55 813.47 255.87
  Q 812.50 255.19 808.92 252.08
  C 802.58 246.59 795.62 248.27 788.48 251.46
  Q 788.01 251.66 787.79 252.12
  Q 787.18 253.38 786.17 255.70
  Z
  M 811.97 394.77
  C 816.40 391.66 818.87 385.05 819.08 379.75
  Q 819.73 363.72 807.83 354.04
  C 805.23 351.92 800.26 349.33 797.03 348.45
  C 789.76 346.47 782.21 350.92 777.94 357.14
  Q 775.67 360.45 775.21 364.73
  C 773.44 380.84 783.89 391.39 797.77 397.26
  C 803.06 399.50 807.47 397.91 811.97 394.77
  Z"
/>
<path fill="#000000" d="
  M 373.35 205.32
  L 395.29 211.64
  A 0.32 0.32 0.0 0 1 395.32 212.24
  L 374.29 221.12
  A 0.32 0.32 0.0 0 0 374.11 221.32
  L 367.79 243.26
  A 0.32 0.32 0.0 0 1 367.19 243.29
  L 358.31 222.26
  A 0.32 0.32 0.0 0 0 358.11 222.08
  L 336.17 215.76
  A 0.32 0.32 0.0 0 1 336.14 215.16
  L 357.17 206.28
  A 0.32 0.32 0.0 0 0 357.35 206.08
  L 363.67 184.14
  A 0.32 0.32 0.0 0 1 364.27 184.11
  L 373.15 205.14
  A 0.32 0.32 0.0 0 0 373.35 205.32
  Z"
/>
<path fill="#000000" d="
  M 1091.86 215.75
  L 1096.82 226.29
  L 1096.77 726.76
  L 1091.86 715.36
  L 1091.86 215.75
  Z"
/>
<path fill="#000000" d="
  M 815.95 295.13
  C 808.21 296.64 799.59 293.92 794.79 287.25
  C 788.68 278.75 784.81 269.13 789.93 259.15
  C 792.50 254.16 796.87 252.38 802.23 253.24
  C 820.79 256.22 826.83 277.02 819.62 292.37
  C 818.95 293.81 817.60 294.81 815.95 295.13
  Z"
/>
<path fill="#ffc4ff" d="
  M 336.02 340.88
  L 356.20 346.70
  A 0.34 0.34 0.0 0 1 356.24 347.34
  L 336.89 355.51
  A 0.34 0.34 0.0 0 0 336.69 355.73
  L 330.87 375.91
  A 0.34 0.34 0.0 0 1 330.23 375.95
  L 322.06 356.60
  A 0.34 0.34 0.0 0 0 321.84 356.40
  L 301.66 350.58
  A 0.34 0.34 0.0 0 1 301.62 349.94
  L 320.97 341.77
  A 0.34 0.34 0.0 0 0 321.17 341.55
  L 326.99 321.37
  A 0.34 0.34 0.0 0 1 327.63 321.33
  L 335.80 340.68
  A 0.34 0.34 0.0 0 0 336.02 340.88
  Z"
/>
<path fill="#000000" d="
  M 812.33 386.55
  C 806.41 401.09 791.07 390.31 784.85 383.42
  C 778.67 376.59 777.04 367.84 780.32 359.33
  C 783.08 352.18 789.17 348.81 796.59 351.57
  C 811.64 357.16 818.51 371.38 812.33 386.55
  Z"
/>
<path fill="#000000" fill-opacity="0.933" d="
  M 542.24 740.97
  C 546.50 742.94 556.46 756.90 558.00 761.49
  C 559.63 766.37 561.76 771.00 562.34 776.01
  Q 563.34 784.78 563.10 793.58
  C 562.66 810.29 560.57 831.67 546.52 843.07
  Q 543.98 845.13 541.52 847.25
  C 527.40 859.39 509.01 866.72 493.30 872.57
  C 487.25 874.82 478.18 877.62 470.13 878.16
  Q 466.13 878.44 461.99 877.35
  Q 455.77 875.73 449.71 873.58
  C 446.70 872.51 445.34 870.16 443.34 867.87
  Q 442.96 867.44 442.97 866.88
  L 442.99 864.75
  Q 443.00 864.32 442.60 864.18
  Q 439.64 863.11 437.48 864.42
  Q 428.36 869.95 420.55 872.42
  Q 405.46 877.20 398.11 877.87
  C 392.21 878.40 385.83 880.32 380.00 879.40
  C 349.51 874.60 321.84 865.14 291.16 854.35
  Q 286.00 852.54 282.75 848.81
  Q 278.85 844.34 278.72 844.20
  C 269.11 834.73 256.84 818.40 257.58 805.55
  Q 257.86 800.63 257.69 798.46
  Q 256.53 784.44 256.14 770.38
  C 256.04 767.15 255.21 761.37 255.81 756.67
  C 255.93 755.79 255.76 754.90 255.72 754.00
  Q 254.61 727.13 256.44 702.75
  C 257.16 693.19 259.33 683.73 262.80 673.20
  Q 265.58 664.77 268.42 659.45
  C 272.61 651.62 279.78 639.62 287.34 634.96
  C 289.47 633.64 291.43 632.09 293.93 631.65
  Q 300.97 630.43 306.07 632.12
  Q 315.18 635.14 327.88 636.14
  Q 335.56 636.74 348.55 639.47
  C 349.40 639.64 349.66 639.81 350.31 640.36
  Q 350.71 640.70 351.15 640.40
  Q 360.86 633.70 370.68 627.16
  C 378.79 621.75 388.28 616.36 397.05 610.83
  C 399.61 609.22 398.50 608.82 398.79 606.46
  C 399.78 598.27 400.61 590.00 402.33 582.10
  Q 403.67 575.95 405.16 569.84
  Q 405.54 568.28 406.41 566.94
  C 412.38 557.66 422.60 548.59 434.10 549.22
  Q 438.02 549.43 445.58 552.36
  Q 452.64 555.10 456.67 556.86
  C 463.34 559.78 469.79 564.25 476.11 567.72
  C 481.71 570.80 487.47 573.81 491.66 578.75
  C 499.54 588.03 507.79 596.59 513.43 607.56
  C 515.29 611.18 517.99 615.64 520.01 620.25
  C 527.08 636.40 532.06 647.37 535.97 662.38
  C 539.97 677.75 544.59 693.28 543.58 709.00
  Q 542.93 719.21 542.98 726.60
  C 543.00 731.01 541.70 735.56 541.77 740.25
  Q 541.78 740.76 542.24 740.97
  Z
  M 553.37 819.87
  C 555.93 812.10 556.36 802.39 556.58 794.24
  C 556.73 788.66 557.57 782.89 556.61 777.61
  C 554.62 766.66 547.69 752.94 538.41 745.77
  A 0.61 0.61 0.0 0 0 537.49 745.98
  C 535.84 749.31 534.66 753.10 533.11 756.10
  Q 527.67 766.68 521.04 776.52
  C 514.55 786.15 505.64 796.10 497.59 805.59
  C 495.92 807.56 492.13 812.31 490.13 812.67
  Q 488.68 812.92 488.02 811.25
  A 2.28 2.26 52.6 0 1 488.30 809.09
  C 494.74 800.24 501.65 791.76 507.86 782.94
  Q 512.62 776.20 517.56 769.58
  Q 521.01 764.96 522.01 763.01
  C 529.27 748.75 536.55 735.04 536.96 719.55
  C 537.08 715.00 538.41 709.90 537.84 705.22
  Q 535.07 682.37 527.74 659.15
  C 525.33 651.51 521.70 642.47 518.70 634.15
  C 517.82 631.69 516.26 629.32 515.16 626.82
  C 512.97 621.82 510.72 617.84 508.38 613.34
  Q 500.93 599.06 489.83 587.41
  Q 487.00 584.45 484.42 581.25
  C 482.93 579.41 480.78 577.89 479.18 576.83
  C 470.37 571.03 458.35 563.26 446.83 558.21
  Q 440.62 555.49 438.75 555.36
  Q 428.18 554.59 420.95 559.90
  C 417.29 562.58 410.09 570.26 409.19 575.75
  Q 406.99 589.12 404.29 609.52
  C 404.17 610.44 404.39 611.70 404.76 612.41
  A 2.45 2.45 0.0 0 1 403.74 615.70
  C 397.61 618.98 391.10 622.51 385.22 626.24
  C 375.16 632.63 364.77 638.37 354.93 645.13
  C 352.78 646.60 351.44 645.72 349.33 645.65
  Q 347.23 645.58 346.70 645.48
  C 336.74 643.57 326.62 642.85 316.58 641.51
  C 311.18 640.79 305.70 637.56 300.99 637.01
  C 282.23 634.81 267.73 672.11 264.21 686.05
  C 262.13 694.31 260.82 706.20 260.79 714.25
  Q 260.70 735.35 260.76 756.44
  C 260.76 758.29 261.15 760.53 261.05 762.67
  C 260.54 774.18 261.46 785.73 261.54 797.25
  C 261.64 812.37 271.84 828.81 282.46 839.14
  C 287.48 844.02 294.43 849.49 299.68 851.09
  Q 322.39 857.99 345.08 865.00
  C 350.74 866.75 357.64 868.48 363.86 870.43
  C 368.46 871.87 373.02 871.70 377.59 872.91
  C 383.46 874.47 389.13 873.25 397.24 871.98
  Q 401.15 871.37 403.80 870.69
  C 414.05 868.02 423.24 865.65 431.80 860.21
  C 436.32 857.33 441.09 857.05 446.36 857.70
  A 1.66 1.65 1.3 0 1 447.80 859.20
  C 448.04 862.00 448.14 865.45 451.37 866.78
  C 453.98 867.85 456.22 869.54 458.74 870.38
  Q 463.01 871.81 466.81 872.66
  A 9.72 9.66 -45.7 0 0 471.26 872.59
  C 479.38 870.55 486.54 867.69 494.94 864.89
  Q 500.59 863.00 503.85 861.56
  Q 518.42 855.13 526.58 850.09
  Q 539.60 842.05 542.85 838.87
  C 547.98 833.85 551.21 826.43 553.37 819.87
  Z"
/>
<path fill="#000000" d="
  M 329.67 678.22
  Q 331.98 675.21 335.64 672.38
  Q 344.16 665.81 353.54 660.57
  C 359.10 657.47 363.91 654.11 369.30 651.28
  C 381.35 644.96 392.58 635.80 406.18 632.86
  Q 406.66 632.76 406.81 632.30
  Q 407.77 629.43 407.73 627.50
  Q 407.58 620.68 408.39 613.91
  Q 408.51 612.85 408.32 611.59
  C 407.91 608.94 408.73 605.74 408.94 603.04
  C 409.34 597.74 410.51 592.78 411.27 587.63
  C 413.08 575.40 418.43 565.93 431.65 564.15
  C 440.95 562.90 447.85 567.29 453.97 573.79
  C 459.60 579.78 463.35 585.27 469.26 593.36
  C 475.00 601.24 478.37 609.48 482.77 619.56
  C 483.61 621.49 485.07 623.24 485.91 625.06
  C 490.57 635.25 495.35 647.41 498.31 659.00
  Q 500.05 665.80 500.81 677.93
  C 501.18 683.90 500.58 690.06 500.22 696.18
  C 500.11 698.14 499.50 700.02 499.22 702.03
  C 498.77 705.35 498.15 708.15 497.12 710.64
  Q 491.54 724.14 486.07 737.68
  Q 480.09 752.48 473.52 761.51
  Q 469.45 767.11 465.67 772.91
  Q 462.75 777.37 448.53 792.76
  Q 434.05 808.41 415.83 819.30
  C 411.10 822.13 405.99 826.47 400.37 829.10
  Q 394.88 831.66 392.12 833.12
  C 383.58 837.65 373.93 840.53 364.69 842.95
  C 348.54 847.17 331.58 847.54 316.00 844.47
  C 307.97 842.88 298.80 837.45 291.56 833.63
  C 276.89 825.88 271.09 809.37 267.64 794.22
  C 265.20 783.46 264.85 771.87 263.74 760.75
  C 263.59 759.33 265.26 757.21 264.04 755.55
  Q 263.73 755.13 263.80 754.62
  Q 264.36 750.41 263.81 746.20
  C 263.59 744.50 264.54 743.47 264.61 741.86
  C 264.82 737.23 264.47 732.23 264.68 728.06
  Q 266.02 700.81 271.37 677.83
  Q 275.20 661.37 287.57 648.76
  C 301.74 634.33 312.41 649.23 318.64 660.99
  C 322.01 667.35 324.87 672.37 328.19 678.13
  Q 328.86 679.29 329.67 678.22
  Z
  M 407.87 716.12
  C 411.92 720.53 419.98 724.95 425.74 722.98
  C 433.05 720.49 440.56 714.03 443.62 706.83
  C 446.01 701.24 446.44 694.54 445.87 688.75
  Q 444.70 676.97 433.67 673.19
  Q 429.97 671.92 427.47 672.52
  C 415.23 675.50 405.69 684.61 403.80 697.10
  C 402.91 703.00 403.55 711.42 407.87 716.12
  Z
  M 348.93 721.81
  Q 348.52 721.67 346.50 721.65
  C 344.09 721.63 341.07 723.17 338.44 724.02
  C 332.94 725.81 328.45 729.48 325.35 734.37
  Q 321.29 740.76 320.59 743.52
  Q 320.09 745.47 320.08 752.48
  C 320.07 755.00 318.68 757.87 319.32 760.53
  Q 321.60 769.99 330.17 774.55
  A 2.90 2.88 55.3 0 0 331.91 774.87
  Q 341.82 773.63 348.66 766.15
  C 357.48 756.51 363.47 741.91 357.36 729.20
  Q 354.71 723.67 348.93 721.81
  Z"
/>
<path fill="#000000" d="
  M 418.37 720.12
  C 413.97 720.38 409.61 715.37 408.33 711.50
  C 404.96 701.28 407.26 690.04 415.78 683.21
  C 420.61 679.33 428.93 675.46 434.95 678.05
  C 442.87 681.45 442.40 693.86 440.90 700.99
  C 438.44 712.71 430.43 719.43 418.37 720.12
  Z"
/>
<path fill="#ffc4ff" d="
  M 662.25 728.59
  L 682.52 734.39
  A 0.32 0.32 0.0 0 1 682.55 735.00
  L 663.11 743.16
  A 0.32 0.32 0.0 0 0 662.93 743.37
  L 657.13 763.64
  A 0.32 0.32 0.0 0 1 656.52 763.67
  L 648.36 744.23
  A 0.32 0.32 0.0 0 0 648.15 744.05
  L 627.88 738.25
  A 0.32 0.32 0.0 0 1 627.85 737.64
  L 647.29 729.48
  A 0.32 0.32 0.0 0 0 647.47 729.27
  L 653.27 709.00
  A 0.32 0.32 0.0 0 1 653.88 708.97
  L 662.04 728.41
  A 0.32 0.32 0.0 0 0 662.25 728.59
  Z"
/>
<path fill="#000000" d="
  M 333.50 769.69
  C 330.26 770.02 326.01 765.72 324.58 763.15
  C 320.70 756.17 320.63 748.89 324.35 741.68
  Q 330.33 730.09 343.62 726.15
  Q 349.76 724.33 352.92 729.58
  C 358.63 739.05 358.86 744.95 353.93 754.81
  C 349.62 763.41 343.53 768.66 333.50 769.69
  Z"
/>
<path fill="#000000" d="
  M 1096.76 807.19
  Q 1096.77 1145.62 1096.76 1484.00
  Q 1096.76 1496.72 1095.97 1503.98
  C 1087.55 1580.55 1023.59 1638.97 946.00 1638.98
  Q 596.21 1639.02 246.36 1639.04
  L 236.81 1634.19
  Q 586.24 1634.13 935.25 1634.18
  Q 949.10 1634.18 955.24 1633.71
  Q 1007.00 1629.74 1045.63 1594.22
  A 0.88 0.87 57.5 0 0 1045.85 1593.22
  L 1037.93 1574.56
  A 1.02 0.99 85.8 0 0 1037.29 1573.99
  L 1016.08 1567.83
  Q 1014.84 1567.47 1016.03 1566.97
  L 1036.34 1558.34
  A 1.10 1.10 0.0 0 0 1036.96 1557.65
  Q 1040.02 1547.01 1042.98 1536.49
  Q 1043.09 1536.08 1043.41 1535.88
  Q 1043.66 1535.73 1043.77 1536.00
  L 1052.55 1556.72
  A 1.08 1.05 86.2 0 0 1053.24 1557.34
  L 1070.55 1562.38
  A 0.74 0.73 23.4 0 0 1071.39 1562.05
  Q 1088.99 1531.82 1091.48 1497.24
  Q 1091.88 1491.64 1091.88 1477.26
  Q 1091.86 1150.25 1091.88 823.26
  L 1096.76 807.19
  Z
  M 1048.77 1590.20
  A 0.64 0.64 0.0 0 0 1049.89 1590.78
  L 1067.97 1568.43
  A 0.64 0.64 0.0 0 0 1067.22 1567.44
  L 1053.99 1573.06
  A 0.64 0.64 0.0 0 0 1053.63 1573.47
  L 1048.77 1590.20
  Z"
/>
<path fill="#000000" d="
  M 412.69 1174.96
  Q 415.01 1174.55 412.85 1173.60
  C 408.36 1171.63 404.79 1168.54 400.49 1166.47
  C 398.21 1165.37 394.64 1164.43 393.48 1161.98
  C 392.25 1159.40 391.61 1158.51 390.35 1156.63
  C 386.97 1151.62 386.60 1141.78 387.92 1135.88
  C 389.96 1126.83 391.79 1117.77 394.14 1108.80
  C 395.13 1105.02 395.83 1101.08 396.81 1097.43
  C 399.11 1088.90 400.42 1080.52 402.92 1071.76
  C 404.83 1065.07 405.80 1057.60 407.21 1051.54
  C 408.79 1044.76 410.41 1036.60 411.88 1031.24
  Q 413.56 1025.10 414.71 1018.85
  C 415.77 1013.10 417.32 1006.87 418.73 1001.01
  Q 421.94 987.66 425.08 974.29
  C 425.80 971.25 430.52 965.86 433.26 964.17
  C 439.08 960.59 448.38 961.65 454.84 962.62
  C 456.20 962.82 457.42 962.47 458.50 962.57
  C 463.93 963.05 469.77 962.29 473.69 962.18
  C 490.37 961.69 507.06 961.12 523.74 960.89
  C 527.93 960.83 535.43 960.42 541.25 960.57
  Q 544.64 960.66 548.22 960.27
  Q 555.09 959.52 562.00 959.80
  C 566.22 959.97 570.70 959.05 574.90 959.41
  C 582.20 960.02 589.94 959.16 597.32 959.20
  C 602.36 959.23 607.21 958.30 612.11 958.51
  C 620.38 958.86 628.59 957.92 636.96 958.06
  C 646.13 958.21 656.16 957.25 664.35 957.20
  Q 686.10 957.05 703.25 956.31
  C 705.50 956.21 707.53 956.39 709.57 956.17
  C 712.98 955.80 716.62 956.30 719.66 956.06
  C 722.07 955.87 724.12 955.70 726.79 955.83
  C 729.74 955.98 732.80 955.34 735.40 955.31
  C 746.38 955.18 757.45 954.66 768.41 955.14
  C 771.04 955.26 773.98 954.66 776.19 954.56
  Q 785.84 954.16 795.50 953.75
  Q 800.38 953.54 805.24 954.01
  C 806.72 954.15 808.02 953.67 809.25 953.67
  Q 816.07 953.63 822.89 953.55
  C 824.39 953.53 827.80 953.01 830.22 953.28
  C 833.57 953.64 836.54 952.47 840.08 952.98
  C 843.02 953.41 845.10 952.55 847.88 952.53
  C 853.63 952.51 859.44 952.16 865.18 952.65
  Q 866.05 952.73 866.84 952.63
  C 871.03 952.15 875.44 952.29 879.37 951.95
  C 896.97 950.42 917.21 950.85 936.16 951.24
  C 942.14 951.36 948.37 950.93 954.50 950.83
  C 958.14 950.76 959.02 951.81 961.79 953.35
  Q 967.62 956.61 973.54 959.68
  Q 974.99 960.44 977.02 964.22
  Q 982.51 974.48 988.24 984.61
  C 993.64 994.14 1000.43 1007.79 1007.44 1018.92
  C 1012.68 1027.24 1014.18 1036.59 1019.53 1045.98
  C 1020.46 1047.60 1020.12 1052.97 1020.84 1055.62
  Q 1022.90 1063.31 1024.91 1071.02
  C 1026.42 1076.81 1026.33 1083.96 1027.73 1090.35
  C 1028.65 1094.51 1028.28 1099.08 1028.65 1103.38
  C 1028.83 1105.46 1028.15 1107.23 1028.31 1109.20
  Q 1028.76 1114.73 1027.67 1122.46
  C 1027.38 1124.53 1027.42 1127.39 1026.98 1129.83
  C 1024.91 1141.21 1021.47 1153.71 1015.83 1163.87
  C 1014.61 1166.07 1013.77 1168.28 1012.23 1170.25
  Q 1004.68 1179.88 995.81 1188.30
  C 989.13 1194.65 983.65 1197.42 976.76 1201.54
  C 970.79 1205.10 965.85 1206.65 960.20 1206.47
  A 0.80 0.80 0.0 0 0 959.38 1207.41
  C 959.62 1208.71 960.50 1210.00 960.88 1210.83
  C 969.61 1229.82 979.24 1248.36 987.91 1267.36
  C 993.63 1279.89 1000.80 1294.24 1005.73 1304.60
  Q 1024.10 1343.19 1042.92 1381.57
  Q 1046.86 1389.62 1049.67 1399.34
  C 1052.56 1409.32 1053.20 1419.34 1052.84 1429.65
  C 1052.62 1435.65 1051.03 1445.01 1048.21 1450.52
  C 1042.05 1462.59 1035.39 1474.49 1029.48 1486.67
  Q 1027.45 1490.83 1025.31 1494.93
  Q 1018.43 1508.07 1011.71 1521.29
  Q 1009.85 1524.95 1007.95 1528.59
  Q 993.34 1556.50 979.25 1583.71
  A 13.91 13.87 81.3 0 1 976.74 1587.14
  C 969.41 1594.50 960.95 1603.36 951.28 1606.25
  Q 938.81 1609.97 934.50 1609.91
  C 930.43 1609.85 926.29 1610.30 922.26 1609.77
  C 920.16 1609.49 918.44 1609.15 916.27 1609.60
  C 910.18 1610.87 904.47 1608.54 898.52 1608.11
  C 893.31 1607.73 888.52 1606.95 883.50 1606.77
  C 881.74 1606.71 880.11 1606.13 878.48 1606.07
  C 871.42 1605.83 866.45 1605.06 860.51 1604.54
  C 851.21 1603.71 842.09 1602.03 832.73 1601.42
  C 829.26 1601.20 825.52 1600.39 821.85 1600.13
  C 818.03 1599.86 813.89 1599.18 809.50 1598.96
  C 808.74 1598.92 807.81 1598.27 806.79 1598.27
  C 799.41 1598.26 791.91 1596.82 784.52 1596.31
  C 777.77 1595.85 771.37 1594.41 764.69 1593.98
  Q 755.87 1593.41 747.10 1592.27
  C 746.15 1592.15 745.26 1592.63 744.34 1592.41
  C 739.76 1591.37 734.21 1591.15 730.56 1590.66
  C 725.69 1590.00 719.88 1589.71 715.26 1588.29
  C 713.23 1587.67 711.35 1588.39 709.58 1588.20
  C 702.54 1587.42 695.25 1586.95 688.49 1586.11
  Q 672.90 1584.18 657.27 1582.63
  Q 657.15 1582.62 650.28 1581.64
  C 647.01 1581.17 643.78 1581.33 640.61 1580.87
  C 636.34 1580.26 632.20 1580.32 627.91 1579.59
  C 623.30 1578.82 618.73 1578.95 614.16 1578.13
  Q 611.22 1577.61 608.25 1577.31
  C 591.78 1575.64 575.26 1574.33 558.83 1572.27
  C 549.76 1571.13 540.59 1570.41 531.59 1569.25
  Q 522.85 1568.12 519.75 1568.01
  C 517.56 1567.93 515.61 1567.31 513.74 1567.24
  C 509.18 1567.07 504.52 1566.17 500.24 1566.04
  C 493.02 1565.83 488.36 1565.66 481.99 1563.67
  Q 471.89 1560.51 461.82 1557.25
  C 450.88 1553.71 441.36 1544.61 433.41 1535.87
  Q 424.11 1525.64 415.06 1515.18
  C 409.06 1508.24 404.36 1499.88 399.08 1492.34
  C 385.49 1472.95 372.09 1453.40 358.92 1433.72
  C 353.84 1426.12 347.92 1418.14 343.22 1411.25
  Q 328.12 1389.08 312.39 1367.35
  Q 306.10 1358.67 303.79 1353.72
  C 300.95 1347.66 302.68 1337.04 304.72 1330.78
  Q 306.25 1326.07 311.39 1317.72
  Q 328.86 1289.38 346.48 1261.12
  Q 349.52 1256.25 353.41 1249.38
  C 362.09 1234.04 372.80 1220.01 381.26 1204.56
  C 383.75 1200.01 386.65 1195.69 389.39 1191.28
  C 390.39 1189.66 392.79 1188.01 393.37 1186.55
  Q 395.47 1181.27 399.86 1177.86
  C 401.33 1176.71 403.25 1176.28 405.00 1175.47
  C 406.83 1174.63 408.42 1174.96 410.36 1174.39
  A 1.32 1.30 49.8 0 1 411.33 1174.48
  Q 412.37 1175.02 412.69 1174.96
  Z
  M 397.42 1139.73
  C 396.98 1140.97 396.30 1141.94 396.34 1143.50
  Q 396.47 1148.06 398.25 1152.18
  C 400.72 1157.92 406.12 1155.20 410.70 1155.96
  Q 413.38 1156.40 415.34 1156.30
  C 417.75 1156.18 420.21 1155.93 422.61 1156.19
  C 424.51 1156.39 426.30 1155.88 428.15 1156.10
  C 432.07 1156.56 435.79 1155.82 439.57 1155.93
  Q 442.16 1156.01 444.75 1155.81
  C 446.71 1155.65 448.64 1156.33 450.79 1155.95
  C 452.19 1155.71 453.29 1156.39 454.87 1156.13
  C 459.40 1155.40 463.52 1156.22 468.09 1155.93
  C 470.74 1155.77 473.15 1156.53 475.66 1156.32
  C 477.59 1156.16 480.22 1156.45 481.51 1156.43
  Q 488.44 1156.34 495.39 1156.23
  C 496.46 1156.21 497.58 1155.70 498.81 1155.90
  C 503.44 1156.68 508.21 1156.02 512.92 1156.32
  C 515.69 1156.50 518.94 1156.13 521.24 1156.22
  Q 532.31 1156.66 543.38 1156.17
  C 544.50 1156.12 545.16 1156.61 546.40 1156.41
  C 548.65 1156.03 550.81 1156.64 552.86 1156.54
  C 556.07 1156.39 559.48 1156.80 562.38 1156.74
  Q 574.00 1156.51 585.62 1156.72
  C 598.72 1156.94 611.62 1156.28 624.00 1156.73
  C 626.70 1156.83 629.30 1156.48 631.68 1156.63
  C 638.65 1157.08 645.69 1156.45 652.60 1157.30
  Q 655.51 1157.67 658.43 1157.44
  Q 669.15 1156.60 679.91 1156.83
  Q 712.71 1157.54 745.53 1157.48
  C 751.70 1157.47 759.44 1157.86 766.42 1157.74
  C 786.67 1157.40 806.89 1157.65 827.13 1157.80
  C 832.98 1157.85 841.39 1157.34 848.57 1157.72
  C 851.85 1157.89 855.44 1157.31 858.94 1157.53
  Q 862.18 1157.74 865.71 1157.58
  C 869.37 1157.43 873.09 1158.23 876.44 1158.18
  Q 905.09 1157.77 933.75 1158.11
  C 938.26 1158.17 940.63 1157.37 942.77 1153.51
  Q 944.41 1150.56 944.39 1147.58
  Q 944.36 1143.24 944.40 1142.92
  C 945.01 1137.61 945.29 1132.16 946.15 1127.06
  C 947.50 1119.02 949.28 1110.85 950.09 1102.74
  C 950.69 1096.79 951.75 1090.75 952.49 1084.79
  C 952.82 1082.09 953.62 1078.76 953.88 1075.69
  C 954.38 1069.78 955.50 1064.74 956.26 1059.20
  Q 956.67 1056.15 957.92 1049.55
  C 959.10 1043.28 958.75 1036.79 960.39 1030.61
  Q 961.27 1027.33 961.51 1024.27
  Q 962.14 1016.31 963.48 1008.45
  Q 964.03 1005.25 964.65 999.19
  C 965.49 991.10 971.80 971.56 964.78 965.75
  Q 957.06 959.38 947.00 958.78
  Q 938.08 958.25 919.48 959.45
  Q 917.93 959.55 915.13 960.50
  C 912.18 961.50 909.25 960.96 906.59 961.17
  Q 904.67 961.32 902.75 961.37
  Q 876.75 962.04 850.76 962.69
  Q 850.66 962.69 847.26 962.60
  C 844.32 962.52 841.72 963.67 838.64 963.26
  Q 836.87 963.02 835.35 963.18
  C 829.99 963.75 824.29 963.55 818.89 963.54
  C 815.19 963.53 810.92 963.99 806.25 963.97
  Q 801.10 963.94 785.08 964.66
  C 782.76 964.77 780.22 964.43 777.75 964.48
  C 757.08 964.85 738.85 966.02 715.75 966.20
  C 698.13 966.34 680.11 967.33 662.25 967.41
  C 654.03 967.44 641.44 968.21 630.13 968.34
  Q 619.05 968.46 608.00 969.01
  C 602.20 969.30 595.75 969.19 590.66 969.37
  Q 577.36 969.85 564.07 970.17
  C 557.37 970.33 544.93 970.21 535.00 970.77
  Q 524.12 971.39 509.50 971.42
  C 507.08 971.42 504.63 972.04 502.16 971.92
  Q 491.19 971.41 486.75 971.57
  C 474.85 972.00 462.88 974.49 450.98 972.94
  C 448.82 972.66 446.81 972.89 444.64 972.39
  Q 443.50 972.12 442.34 972.17
  C 439.09 972.31 436.19 971.27 435.15 975.62
  Q 430.40 995.41 426.08 1015.30
  C 424.29 1023.50 422.18 1031.74 420.23 1039.95
  C 419.63 1042.49 419.62 1045.48 418.86 1048.27
  C 415.66 1060.07 413.30 1072.16 410.33 1084.04
  C 408.55 1091.19 407.00 1098.66 405.26 1105.96
  C 404.05 1111.02 402.93 1117.47 401.42 1123.14
  C 400.09 1128.11 399.37 1134.30 397.42 1139.73
  Z
  M 978.00 983.14
  Q 977.56 982.52 977.44 983.27
  C 976.59 988.60 975.83 993.03 975.29 999.29
  C 974.90 1003.83 973.64 1008.42 973.22 1012.60
  Q 972.29 1021.90 971.25 1028.25
  C 970.99 1029.89 970.05 1031.15 969.99 1032.98
  C 969.75 1040.01 968.19 1045.22 967.57 1051.46
  C 967.13 1055.96 966.46 1059.48 965.66 1063.52
  C 965.30 1065.32 965.32 1067.47 964.83 1069.46
  Q 964.39 1071.24 964.30 1073.12
  C 964.21 1074.90 963.53 1076.44 963.50 1078.14
  C 963.45 1080.90 962.68 1083.44 962.48 1086.15
  C 962.07 1091.55 961.08 1096.56 960.31 1101.77
  Q 959.80 1105.22 959.09 1108.64
  C 958.42 1111.85 958.85 1114.96 958.19 1118.30
  Q 956.84 1125.21 956.18 1132.21
  Q 955.92 1134.95 955.17 1138.20
  C 952.85 1148.18 953.99 1158.49 943.64 1164.36
  Q 942.38 1165.08 941.20 1166.05
  C 938.43 1168.34 932.54 1167.86 929.01 1168.10
  Q 924.30 1168.43 919.48 1168.33
  Q 904.49 1168.02 889.50 1168.44
  Q 887.44 1168.49 881.50 1168.09
  Q 873.15 1167.52 864.71 1168.01
  A 0.74 0.73 78.7 0 0 864.06 1168.99
  L 865.23 1172.21
  A 1.40 1.38 -32.0 0 1 864.88 1173.69
  Q 863.53 1174.96 862.75 1176.63
  Q 862.53 1177.12 863.04 1177.27
  C 866.34 1178.24 869.85 1177.48 872.28 1177.53
  Q 889.64 1177.92 907.00 1178.50
  Q 915.61 1178.78 924.15 1177.81
  Q 928.88 1177.27 935.53 1178.95
  C 939.87 1180.04 948.51 1182.93 949.83 1187.23
  Q 951.53 1192.76 954.69 1197.73
  A 1.22 1.20 71.7 0 0 955.80 1198.30
  C 960.59 1198.03 965.14 1198.00 969.75 1196.27
  Q 974.53 1194.48 976.01 1193.83
  C 983.08 1190.72 988.92 1184.24 994.19 1178.53
  C 1006.56 1165.15 1014.22 1149.26 1017.81 1131.34
  C 1019.84 1121.18 1020.03 1112.23 1020.14 1102.59
  Q 1020.19 1097.94 1019.77 1092.94
  C 1019.39 1088.50 1019.22 1084.03 1018.41 1079.73
  C 1015.68 1065.26 1012.46 1051.10 1006.95 1037.41
  Q 1004.58 1031.53 999.61 1023.13
  Q 990.06 1006.95 981.67 990.16
  C 980.60 988.02 979.71 985.51 978.00 983.14
  Z
  M 418.06 1166.27
  Q 416.84 1166.58 417.98 1167.13
  Q 420.37 1168.28 421.34 1170.06
  C 422.14 1171.51 421.15 1174.19 424.26 1174.22
  C 428.33 1174.25 433.08 1173.35 437.91 1173.67
  Q 444.34 1174.08 450.65 1173.63
  Q 452.56 1173.49 451.08 1172.28
  Q 448.81 1170.40 450.38 1168.01
  Q 450.66 1167.59 450.50 1167.11
  C 450.08 1165.89 449.14 1165.76 447.94 1166.08
  C 444.98 1166.89 442.93 1165.50 439.91 1166.10
  Q 437.97 1166.49 436.01 1166.16
  C 434.16 1165.85 432.68 1166.29 430.88 1166.10
  C 427.04 1165.71 421.70 1165.32 418.06 1166.27
  Z
  M 534.32 1172.53
  L 533.96 1172.86
  Q 533.54 1173.24 533.91 1173.66
  Q 534.69 1174.53 536.00 1174.49
  Q 553.63 1173.90 571.25 1174.49
  Q 582.34 1174.85 589.76 1174.79
  C 603.83 1174.68 611.41 1174.75 622.26 1174.99
  C 629.61 1175.16 639.58 1174.63 648.26 1175.17
  C 654.38 1175.55 660.92 1175.52 667.06 1175.39
  C 669.49 1175.34 672.21 1175.69 674.84 1175.61
  C 684.06 1175.32 693.84 1175.65 706.25 1175.58
  Q 714.71 1175.54 746.61 1176.17
  C 750.74 1176.25 755.64 1175.84 760.17 1175.96
  C 768.31 1176.18 774.05 1176.07 780.99 1176.20
  Q 781.58 1176.21 781.89 1175.93
  Q 782.35 1175.51 781.80 1175.23
  Q 779.52 1174.04 779.29 1171.49
  Q 779.24 1170.99 779.50 1170.55
  L 780.64 1168.63
  Q 781.04 1167.94 780.25 1167.83
  C 772.74 1166.74 766.52 1168.22 757.93 1167.43
  C 756.66 1167.32 755.46 1167.75 754.16 1167.66
  Q 751.89 1167.50 751.84 1167.50
  C 730.37 1167.64 708.88 1166.99 687.43 1167.39
  C 684.15 1167.45 680.31 1167.00 676.74 1167.11
  C 665.44 1167.46 654.19 1166.64 642.84 1167.05
  C 640.58 1167.13 637.99 1166.69 635.47 1166.87
  C 630.08 1167.27 624.97 1167.00 619.66 1167.14
  C 611.81 1167.35 603.94 1166.48 596.02 1166.63
  Q 571.45 1167.09 546.88 1166.51
  C 543.47 1166.43 538.20 1166.00 533.76 1166.29
  A 0.69 0.69 0.0 0 0 533.30 1167.44
  Q 535.08 1169.36 534.70 1171.84
  Q 534.63 1172.25 534.32 1172.53
  Z
  M 704.75 1382.89
  C 707.03 1383.13 709.25 1382.67 711.54 1383.32
  C 713.62 1383.91 716.44 1383.75 717.76 1383.89
  Q 724.99 1384.69 732.26 1384.62
  C 736.59 1384.58 740.84 1385.28 745.22 1385.40
  C 749.78 1385.53 754.54 1386.43 759.30 1386.34
  C 762.62 1386.27 766.87 1387.70 769.76 1387.59
  Q 781.15 1387.18 792.45 1388.68
  Q 793.95 1388.88 797.33 1390.11
  Q 801.08 1391.48 805.25 1390.81
  Q 826.69 1387.33 843.69 1373.95
  Q 844.41 1373.38 844.84 1372.57
  Q 848.01 1366.52 851.26 1360.51
  C 856.17 1351.46 862.48 1341.83 867.54 1332.08
  C 874.70 1318.27 881.08 1307.58 888.43 1295.54
  C 891.85 1289.95 894.59 1283.81 897.71 1278.28
  C 910.22 1256.09 922.99 1234.03 935.73 1211.97
  C 937.30 1209.25 940.29 1207.76 941.32 1205.26
  C 942.64 1202.08 942.10 1199.12 941.61 1195.01
  C 941.20 1191.57 937.05 1189.38 934.08 1188.65
  A 1.58 1.55 40.4 0 0 933.09 1188.72
  Q 929.03 1190.40 924.96 1189.03
  C 923.29 1188.47 921.63 1189.34 919.90 1189.24
  Q 915.18 1188.97 910.46 1188.72
  C 904.90 1188.43 898.32 1189.20 892.15 1188.85
  C 880.32 1188.19 868.36 1188.55 856.50 1188.24
  C 855.22 1188.20 853.52 1188.74 852.50 1188.59
  Q 848.48 1187.99 844.43 1188.05
  C 842.15 1188.08 839.58 1187.36 837.75 1187.47
  C 833.71 1187.71 829.79 1188.07 825.75 1187.60
  C 823.20 1187.30 820.24 1187.89 817.57 1187.75
  C 813.11 1187.51 808.74 1188.00 803.99 1187.51
  Q 798.32 1186.91 790.76 1187.56
  C 787.44 1187.84 784.15 1187.21 780.75 1187.29
  C 773.81 1187.46 767.25 1187.66 760.76 1187.00
  C 755.10 1186.42 749.59 1186.89 744.00 1186.54
  C 741.90 1186.42 739.78 1187.32 737.66 1187.15
  C 735.87 1187.02 734.24 1186.61 732.44 1186.75
  Q 728.10 1187.07 723.77 1186.52
  Q 722.71 1186.38 719.50 1186.71
  Q 712.86 1187.41 703.05 1186.19
  C 700.66 1185.89 698.30 1186.25 695.81 1186.12
  C 691.49 1185.88 686.41 1185.57 682.21 1186.07
  C 679.43 1186.39 676.91 1185.79 674.27 1186.04
  C 669.87 1186.44 665.44 1185.92 661.00 1186.18
  C 658.53 1186.32 656.74 1185.28 654.15 1185.60
  C 650.40 1186.07 646.76 1185.41 642.48 1185.80
  C 641.15 1185.93 639.98 1185.36 638.58 1185.45
  Q 636.28 1185.60 635.72 1185.56
  C 631.33 1185.23 626.77 1185.89 622.76 1185.71
  Q 612.40 1185.26 602.03 1185.55
  C 599.77 1185.62 597.31 1185.21 594.91 1185.28
  Q 590.81 1185.39 589.59 1185.33
  C 584.08 1185.08 580.08 1185.44 575.34 1185.28
  Q 570.80 1185.14 568.17 1185.22
  Q 553.22 1185.70 538.27 1184.84
  Q 536.09 1184.72 533.35 1184.83
  C 529.25 1184.99 524.81 1184.76 521.07 1184.90
  Q 514.65 1185.14 508.24 1184.91
  C 499.27 1184.58 490.13 1184.92 481.07 1184.45
  Q 477.38 1184.26 474.91 1184.40
  C 467.53 1184.80 461.80 1184.11 455.25 1184.56
  C 452.45 1184.75 449.98 1184.44 447.26 1184.25
  C 445.67 1184.14 443.98 1184.83 442.12 1184.07
  A 1.21 1.21 0.0 0 0 441.22 1184.07
  Q 438.53 1185.17 435.74 1184.27
  A 1.88 1.85 -41.6 0 0 434.72 1184.22
  C 430.47 1185.15 427.20 1184.36 423.26 1184.66
  C 420.76 1184.86 417.54 1183.03 415.07 1182.80
  Q 405.43 1181.91 400.64 1190.04
  Q 399.90 1191.31 399.42 1194.20
  C 398.82 1197.88 397.02 1199.73 395.21 1202.67
  C 379.92 1227.49 364.72 1252.36 349.18 1277.02
  Q 343.14 1286.61 333.67 1302.43
  C 330.03 1308.52 322.85 1318.51 317.63 1327.68
  Q 315.46 1331.48 313.21 1335.23
  Q 312.95 1335.65 313.01 1336.14
  C 313.40 1339.12 313.08 1341.94 314.29 1344.63
  C 318.54 1354.08 328.73 1358.47 338.70 1360.32
  C 343.92 1361.30 350.13 1358.72 354.50 1359.08
  C 360.08 1359.53 365.80 1359.31 371.14 1359.91
  Q 376.39 1360.50 381.65 1360.97
  C 382.40 1361.04 383.17 1361.41 384.00 1361.48
  C 394.09 1362.31 404.17 1362.97 414.20 1364.32
  C 416.09 1364.58 418.34 1364.50 420.41 1364.86
  C 428.20 1366.23 436.61 1366.78 444.68 1366.75
  Q 452.70 1366.71 456.25 1367.48
  Q 458.04 1367.87 459.42 1367.86
  C 463.96 1367.83 468.40 1368.73 472.97 1368.75
  C 477.18 1368.77 481.50 1369.71 486.04 1369.63
  C 497.10 1369.42 508.21 1371.25 519.91 1371.29
  Q 524.89 1371.31 532.05 1371.99
  C 537.59 1372.52 543.37 1372.49 548.62 1373.04
  C 553.66 1373.57 559.29 1374.46 564.32 1374.11
  C 566.47 1373.97 568.44 1374.53 570.63 1374.37
  C 572.58 1374.22 575.32 1374.66 576.60 1374.72
  Q 595.31 1375.65 602.25 1376.41
  C 607.51 1377.00 612.25 1376.63 617.08 1377.19
  C 623.28 1377.92 629.53 1377.77 635.75 1378.50
  C 639.57 1378.94 643.79 1378.89 647.83 1379.46
  C 650.65 1379.85 653.58 1379.16 656.63 1379.92
  C 658.05 1380.27 659.41 1379.64 660.92 1379.85
  C 664.97 1380.41 668.80 1380.96 673.05 1380.96
  Q 679.78 1380.95 686.51 1381.46
  C 692.59 1381.92 698.69 1382.25 704.75 1382.89
  Z
  M 345.22 1368.80
  C 337.24 1367.82 327.55 1368.19 321.19 1362.93
  Q 321.12 1362.88 321.10 1362.97
  Q 321.01 1363.39 321.13 1363.59
  Q 322.18 1365.32 324.09 1367.59
  C 325.53 1369.31 325.77 1371.57 327.02 1373.45
  C 332.80 1382.19 339.92 1391.62 345.07 1399.10
  C 354.93 1413.37 364.74 1427.00 374.67 1441.92
  Q 380.62 1450.86 386.90 1459.59
  C 392.39 1467.22 397.23 1474.54 402.39 1482.02
  C 410.71 1494.07 418.77 1507.57 428.76 1519.09
  Q 428.88 1519.23 436.19 1527.94
  Q 446.25 1539.95 460.43 1546.85
  C 464.67 1548.91 469.72 1550.33 474.47 1551.96
  Q 479.81 1553.80 484.44 1554.29
  Q 488.62 1554.74 492.83 1554.93
  C 498.22 1555.17 503.64 1556.50 509.26 1556.74
  Q 512.30 1556.87 516.08 1557.49
  C 519.18 1557.99 522.56 1557.67 525.52 1558.74
  Q 526.73 1559.19 528.08 1559.20
  Q 531.92 1559.24 538.75 1560.06
  C 550.96 1561.54 568.85 1562.99 586.42 1565.02
  C 607.27 1567.44 625.68 1568.72 649.93 1571.87
  Q 650.59 1571.96 656.59 1572.35
  Q 659.27 1572.52 663.25 1573.08
  Q 673.40 1574.50 703.91 1577.53
  C 706.09 1577.75 709.77 1577.81 712.73 1578.45
  C 714.45 1578.82 716.13 1578.42 717.91 1578.84
  C 724.58 1580.39 732.14 1580.37 738.99 1580.74
  C 740.94 1580.85 742.79 1581.59 744.87 1581.76
  C 748.18 1582.05 750.07 1582.31 752.68 1582.47
  C 754.72 1582.59 756.76 1583.24 758.89 1583.41
  Q 762.83 1583.72 763.59 1583.83
  Q 776.16 1585.73 788.86 1586.25
  C 791.58 1586.36 793.96 1587.36 796.76 1587.49
  Q 806.52 1587.96 816.17 1589.51
  C 817.09 1589.66 818.25 1590.19 819.00 1590.24
  Q 822.65 1590.47 826.33 1590.49
  C 827.92 1590.50 829.32 1591.19 831.01 1591.22
  C 835.15 1591.30 839.13 1592.11 843.25 1592.43
  C 858.66 1593.62 874.05 1595.45 889.39 1597.38
  C 896.36 1598.26 902.37 1598.20 910.85 1599.42
  C 912.84 1599.70 914.94 1599.21 917.11 1599.80
  Q 920.90 1600.84 920.99 1600.86
  C 937.27 1603.33 958.63 1599.14 967.46 1583.70
  Q 971.67 1576.33 975.60 1568.81
  C 980.15 1560.09 985.06 1551.47 989.11 1542.52
  C 991.19 1537.93 993.91 1533.59 995.98 1529.16
  Q 997.67 1525.52 998.65 1523.65
  Q 1007.85 1506.04 1017.05 1488.45
  Q 1017.53 1487.53 1018.64 1485.74
  C 1021.15 1481.71 1022.81 1477.54 1024.86 1473.31
  Q 1027.07 1468.74 1029.75 1463.72
  Q 1035.85 1452.30 1041.63 1440.71
  Q 1043.20 1437.55 1043.51 1433.99
  Q 1045.02 1416.15 1039.33 1399.26
  Q 1037.48 1393.80 1034.59 1386.38
  Q 1032.55 1381.18 1028.86 1373.92
  C 1024.22 1364.77 1019.78 1354.13 1015.88 1346.07
  C 996.02 1305.05 976.65 1263.80 956.67 1222.84
  C 954.86 1219.13 952.77 1213.74 950.34 1209.36
  C 949.79 1208.36 948.90 1207.59 948.18 1206.62
  Q 947.87 1206.21 947.78 1206.71
  Q 946.18 1215.30 942.82 1221.06
  Q 926.98 1248.17 911.71 1275.60
  C 901.77 1293.44 891.41 1311.01 881.71 1328.99
  Q 880.15 1331.87 876.39 1338.13
  C 873.03 1343.72 869.51 1350.34 865.83 1356.35
  C 862.07 1362.47 858.83 1368.91 855.11 1375.09
  Q 854.46 1376.17 853.51 1377.00
  C 837.50 1391.11 817.19 1400.27 795.46 1400.49
  C 791.56 1400.52 787.93 1398.78 783.69 1398.63
  Q 778.20 1398.45 772.73 1398.01
  Q 759.56 1396.97 746.37 1396.16
  C 745.16 1396.09 743.48 1395.65 742.08 1395.75
  Q 739.88 1395.89 738.92 1395.78
  C 734.35 1395.25 729.83 1395.59 725.41 1394.94
  Q 719.98 1394.16 714.50 1393.78
  C 712.96 1393.67 710.65 1394.26 709.49 1394.04
  C 705.37 1393.27 700.48 1393.39 697.30 1393.24
  C 692.44 1393.00 687.57 1393.05 682.50 1391.97
  Q 678.38 1391.10 671.96 1391.15
  C 666.57 1391.20 662.13 1390.86 657.17 1390.55
  C 653.62 1390.33 647.95 1390.32 643.31 1389.55
  C 640.84 1389.14 638.51 1389.37 636.00 1389.19
  Q 626.37 1388.50 616.75 1387.71
  Q 615.72 1387.62 613.23 1386.96
  A 1.89 1.84 -43.6 0 0 612.28 1386.95
  C 610.51 1387.36 608.83 1386.84 607.28 1386.91
  Q 600.56 1387.17 594.96 1386.60
  C 588.84 1385.96 583.57 1386.34 577.56 1385.42
  Q 574.35 1384.93 570.89 1384.96
  C 564.46 1385.03 557.13 1384.01 551.70 1383.78
  Q 542.88 1383.40 534.06 1382.90
  Q 533.40 1382.87 531.95 1382.99
  C 530.20 1383.14 527.83 1382.58 526.67 1382.53
  Q 516.51 1382.09 506.40 1380.86
  Q 505.66 1380.77 502.59 1380.72
  C 498.07 1380.66 493.90 1380.20 487.34 1380.14
  C 482.08 1380.09 475.84 1379.17 470.00 1379.27
  C 468.72 1379.30 467.11 1378.63 465.69 1378.58
  Q 453.94 1378.17 442.26 1376.87
  C 440.26 1376.65 437.97 1377.30 435.28 1376.86
  C 433.32 1376.53 431.45 1376.87 429.58 1376.61
  Q 425.90 1376.11 422.16 1376.06
  C 420.70 1376.04 418.78 1377.16 417.56 1376.68
  C 414.02 1375.27 410.78 1373.59 406.99 1373.00
  C 401.12 1372.10 395.38 1371.25 389.29 1370.91
  C 381.39 1370.46 373.52 1370.09 365.67 1369.11
  C 362.15 1368.67 358.81 1369.55 355.45 1369.37
  C 351.99 1369.18 348.55 1369.21 345.22 1368.80
  Z"
/>
<path fill="#000000" d="
  M 327.99 1049.50
  L 376.27 1063.44
  A 0.31 0.31 0.0 0 1 376.31 1064.02
  L 330.01 1083.58
  A 0.31 0.31 0.0 0 0 329.83 1083.78
  L 315.89 1132.06
  A 0.31 0.31 0.0 0 1 315.31 1132.10
  L 295.75 1085.80
  A 0.31 0.31 0.0 0 0 295.55 1085.62
  L 247.27 1071.68
  A 0.31 0.31 0.0 0 1 247.23 1071.10
  L 293.53 1051.54
  A 0.31 0.31 0.0 0 0 293.71 1051.34
  L 307.65 1003.06
  A 0.31 0.31 0.0 0 1 308.23 1003.02
  L 327.79 1049.32
  A 0.31 0.31 0.0 0 0 327.99 1049.50
  Z"
/>
<path fill="#000000" d="
  M 572.30 1208.42
  Q 569.40 1214.22 563.79 1221.03
  Q 562.26 1222.88 560.74 1223.01
  C 552.87 1223.68 552.61 1216.52 555.55 1211.28
  C 559.15 1204.87 561.40 1197.32 570.01 1196.51
  C 572.50 1196.27 574.00 1200.05 574.26 1202.26
  Q 574.48 1204.06 572.30 1208.42
  Z"
/>
<path fill="#000000" d="
  M 594.44 1202.53
  C 594.08 1207.47 588.72 1215.83 585.51 1219.61
  C 582.91 1222.67 582.33 1223.95 578.23 1223.04
  C 573.79 1222.06 573.06 1217.35 574.80 1213.78
  Q 580.17 1202.79 582.47 1200.20
  C 584.31 1198.13 589.88 1195.69 592.59 1197.84
  Q 594.66 1199.48 594.44 1202.53
  Z"
/>
<path fill="#000000" d="
  M 546.19 1338.07
  C 543.90 1344.11 538.79 1348.95 533.06 1351.70
  Q 529.05 1353.62 521.68 1354.87
  Q 508.03 1357.18 495.25 1356.67
  Q 490.46 1356.49 487.14 1356.60
  C 483.75 1356.72 481.51 1356.27 478.45 1355.57
  C 474.40 1354.63 469.63 1355.12 465.44 1354.85
  C 458.55 1354.39 449.74 1353.98 441.79 1352.53
  C 423.45 1349.20 407.94 1343.34 393.18 1331.81
  C 383.51 1324.25 378.79 1314.53 374.98 1303.18
  C 370.97 1291.23 376.79 1278.03 382.33 1268.44
  C 393.05 1249.87 411.31 1233.33 429.48 1222.22
  C 435.83 1218.33 441.21 1214.52 450.04 1209.98
  C 454.41 1207.74 459.53 1205.92 464.24 1203.72
  Q 469.99 1201.04 483.75 1198.81
  C 488.95 1197.97 497.27 1199.47 502.15 1201.65
  C 516.06 1207.87 530.55 1218.81 540.05 1231.20
  C 542.86 1234.88 545.63 1241.82 543.97 1246.58
  C 543.51 1247.92 543.55 1249.23 543.22 1250.44
  Q 541.54 1256.61 539.73 1262.74
  C 538.01 1268.57 545.31 1277.86 549.32 1281.41
  Q 550.98 1282.88 552.67 1287.66
  C 557.34 1300.85 554.12 1312.18 550.50 1325.74
  C 549.33 1330.13 548.07 1333.10 546.19 1338.07
  Z
  M 458.32 1318.87
  C 450.90 1320.77 443.72 1324.86 438.95 1330.41
  Q 434.98 1335.01 434.79 1337.01
  Q 434.51 1340.02 433.81 1342.54
  A 1.07 1.06 12.5 0 0 434.66 1343.87
  Q 442.49 1345.18 450.09 1346.05
  C 452.16 1346.29 454.53 1346.17 456.77 1346.40
  Q 459.54 1346.69 461.73 1346.51
  C 466.96 1346.09 471.30 1347.21 476.17 1347.58
  C 478.80 1347.78 481.60 1348.61 484.46 1348.69
  C 486.30 1348.74 487.68 1349.71 489.50 1349.75
  C 494.86 1349.85 500.72 1349.60 506.37 1348.93
  C 516.43 1347.73 532.16 1348.46 537.40 1337.65
  Q 541.78 1328.61 544.03 1317.09
  C 545.31 1310.51 546.21 1306.23 545.97 1300.57
  C 545.84 1297.71 544.87 1294.43 544.65 1291.26
  A 1.11 1.11 0.0 0 0 543.46 1290.23
  C 539.38 1290.55 535.36 1287.37 532.50 1286.97
  C 524.84 1285.91 513.85 1288.17 507.29 1293.55
  Q 493.13 1305.14 485.89 1309.14
  C 476.93 1314.09 467.67 1316.48 458.32 1318.87
  Z"
/>
<path fill="#000000" d="
  M 616.02 1205.87
  C 614.88 1209.30 607.96 1224.64 602.98 1225.02
  Q 595.95 1225.54 595.82 1218.50
  C 595.76 1215.23 600.70 1207.97 602.77 1204.62
  C 605.03 1200.96 607.94 1198.99 612.02 1198.57
  A 2.80 2.79 -20.3 0 1 614.60 1199.75
  C 615.88 1201.58 616.79 1203.57 616.02 1205.87
  Z"
/>
<path fill="#000000" d="
  M 633.84 1212.12
  C 632.20 1215.50 626.95 1224.90 622.93 1225.44
  Q 620.71 1225.75 619.06 1224.91
  C 614.43 1222.56 616.15 1215.96 618.68 1211.92
  Q 621.42 1207.53 624.07 1203.08
  C 625.24 1201.13 632.54 1197.00 634.95 1200.13
  C 638.00 1204.09 636.05 1207.54 633.84 1212.12
  Z"
/>
<path fill="#000000" d="
  M 637.65 1216.93
  C 639.69 1212.91 643.18 1205.26 646.88 1202.72
  C 648.91 1201.34 653.37 1198.99 655.46 1201.59
  Q 658.01 1204.75 656.53 1208.74
  Q 653.34 1217.30 647.51 1224.24
  Q 645.55 1226.58 643.48 1226.89
  C 637.27 1227.82 635.28 1221.59 637.65 1216.93
  Z"
/>
<path fill="#000000" d="
  M 674.27 1214.69
  Q 671.24 1220.80 666.64 1225.88
  Q 665.88 1226.71 664.84 1226.89
  Q 657.12 1228.21 656.80 1220.52
  C 656.67 1217.24 662.29 1209.57 664.20 1206.36
  Q 667.21 1201.28 673.02 1200.72
  C 674.21 1200.61 675.33 1201.31 675.99 1202.34
  C 678.76 1206.70 676.70 1209.80 674.27 1214.69
  Z"
/>
<path fill="#000000" d="
  M 857.57 1279.54
  C 848.67 1301.61 832.81 1318.65 812.87 1331.60
  C 803.14 1337.91 792.89 1345.64 784.03 1351.06
  C 773.85 1357.29 764.72 1361.86 753.21 1365.78
  C 747.61 1367.69 741.01 1367.39 735.50 1365.51
  Q 731.70 1364.22 726.75 1360.39
  C 713.23 1349.91 693.37 1330.72 698.11 1311.89
  C 699.47 1306.45 700.24 1297.05 695.52 1292.71
  C 687.48 1285.30 678.45 1278.55 680.24 1266.21
  C 682.05 1253.79 686.15 1242.47 691.84 1231.36
  C 693.60 1227.91 695.94 1224.74 698.20 1221.50
  C 700.31 1218.48 703.22 1216.46 705.88 1213.87
  Q 707.46 1212.33 712.51 1210.04
  C 719.02 1207.08 727.82 1205.04 735.78 1204.12
  C 738.91 1203.76 742.10 1203.03 745.09 1202.83
  Q 758.19 1201.96 763.00 1202.53
  Q 767.41 1203.06 770.17 1203.03
  Q 774.26 1202.99 774.34 1202.99
  Q 785.08 1203.50 790.25 1204.48
  Q 807.40 1207.72 812.76 1209.70
  C 818.61 1211.87 825.12 1213.95 830.25 1216.44
  Q 842.38 1222.34 851.13 1231.10
  C 856.77 1236.74 859.09 1243.41 860.00 1251.71
  C 860.46 1255.98 861.26 1260.33 861.01 1264.39
  Q 860.53 1272.21 857.57 1279.54
  Z
  M 705.35 1309.39
  Q 704.68 1311.29 705.06 1313.72
  Q 707.26 1327.68 715.74 1337.98
  Q 723.42 1347.31 732.92 1354.70
  Q 736.81 1357.72 739.44 1358.58
  C 746.77 1360.97 755.56 1357.58 762.73 1353.99
  C 768.93 1350.89 776.72 1347.73 782.26 1343.96
  Q 784.96 1342.13 793.13 1335.23
  Q 793.50 1334.91 793.42 1334.42
  C 790.95 1320.33 787.25 1310.07 775.23 1301.31
  C 770.46 1297.84 761.13 1291.42 755.00 1291.95
  Q 749.08 1292.46 743.15 1292.77
  C 741.87 1292.83 740.51 1293.32 738.99 1293.52
  C 732.62 1294.38 726.14 1295.68 719.98 1294.98
  Q 714.33 1294.34 708.98 1292.74
  A 1.76 1.75 -73.7 0 0 706.79 1293.94
  C 706.44 1295.12 706.27 1296.09 706.47 1297.38
  C 707.10 1301.47 706.75 1305.47 705.35 1309.39
  Z"
/>
<path fill="#000000" d="
  M 218.84 1260.37
  L 240.81 1266.69
  A 0.34 0.34 0.0 0 1 240.85 1267.33
  L 219.78 1276.20
  A 0.34 0.34 0.0 0 0 219.59 1276.42
  L 213.27 1298.39
  A 0.34 0.34 0.0 0 1 212.63 1298.43
  L 203.76 1277.36
  A 0.34 0.34 0.0 0 0 203.54 1277.17
  L 181.57 1270.85
  A 0.34 0.34 0.0 0 1 181.53 1270.21
  L 202.60 1261.34
  A 0.34 0.34 0.0 0 0 202.79 1261.12
  L 209.11 1239.15
  A 0.34 0.34 0.0 0 1 209.75 1239.11
  L 218.62 1260.18
  A 0.34 0.34 0.0 0 0 218.84 1260.37
  Z"
/>
<path fill="#000000" d="
  M 628.76 1318.71
  Q 630.37 1320.84 629.85 1323.13
  C 628.68 1328.24 628.35 1332.36 624.82 1337.03
  C 620.56 1342.67 612.37 1346.88 605.32 1347.66
  C 601.62 1348.07 597.59 1349.00 594.13 1347.31
  Q 585.28 1342.99 580.70 1333.32
  C 578.91 1329.53 580.37 1325.30 580.64 1321.41
  A 4.49 4.45 65.4 0 1 581.51 1319.05
  C 584.15 1315.51 585.28 1311.95 589.77 1309.56
  C 593.82 1307.40 598.02 1304.61 602.23 1303.61
  Q 611.74 1301.37 621.05 1305.19
  C 626.18 1307.29 628.03 1312.74 628.41 1317.80
  Q 628.45 1318.31 628.76 1318.71
  Z
  M 617.53 1315.06
  C 615.45 1313.75 611.59 1312.18 609.00 1312.61
  Q 602.99 1313.61 598.30 1317.15
  C 595.00 1319.64 592.95 1324.01 590.50 1327.58
  A 1.80 1.80 0.0 0 0 590.27 1329.11
  C 592.52 1336.50 601.97 1333.62 606.80 1331.38
  C 612.54 1328.71 615.91 1323.57 618.39 1317.86
  A 2.25 2.25 0.0 0 0 617.53 1315.06
  Z"
/>
<path fill="#ffc4ff" d="
  M 742.76 1430.86
  L 761.47 1436.27
  A 0.32 0.32 0.0 0 1 761.50 1436.88
  L 743.57 1444.47
  A 0.32 0.32 0.0 0 0 743.39 1444.67
  L 737.98 1463.38
  A 0.32 0.32 0.0 0 1 737.37 1463.41
  L 729.78 1445.48
  A 0.32 0.32 0.0 0 0 729.58 1445.30
  L 710.87 1439.89
  A 0.32 0.32 0.0 0 1 710.84 1439.28
  L 728.77 1431.69
  A 0.32 0.32 0.0 0 0 728.95 1431.49
  L 734.36 1412.78
  A 0.32 0.32 0.0 0 1 734.97 1412.75
  L 742.56 1430.68
  A 0.32 0.32 0.0 0 0 742.76 1430.86
  Z"
/>
<path fill="#000000" d="
  M 612.43 1465.29
  Q 613.68 1465.60 613.16 1464.41
  C 610.96 1459.40 607.69 1451.04 608.24 1445.65
  A 2.21 2.21 0.0 0 1 610.60 1443.67
  C 616.17 1444.07 621.61 1447.17 625.87 1450.63
  Q 642.24 1463.89 649.99 1473.74
  C 659.70 1486.09 675.94 1501.93 677.39 1517.44
  C 677.75 1521.33 675.82 1524.57 674.29 1528.07
  C 670.63 1536.44 659.01 1540.66 650.67 1541.39
  C 624.57 1543.66 599.85 1532.42 580.25 1515.70
  C 564.02 1501.86 555.15 1479.66 548.73 1459.93
  C 547.09 1454.89 543.12 1444.93 548.17 1441.38
  C 555.49 1436.24 572.40 1458.11 576.42 1463.09
  A 1.69 1.69 0.0 0 0 578.28 1463.63
  C 580.27 1462.97 582.37 1462.69 584.62 1462.81
  C 593.72 1463.26 603.56 1463.11 612.43 1465.29
  Z
  M 603.2517 1503.2732
  A 12.50 6.89 44.0 0 0 599.0462 1489.6337
  A 12.50 6.89 44.0 0 0 585.2683 1485.9068
  A 12.50 6.89 44.0 0 0 589.4738 1499.5463
  A 12.50 6.89 44.0 0 0 603.2517 1503.2732
  Z
  M 627.36 1499.06
  C 625.44 1496.50 620.70 1488.48 626.75 1488.41
  Q 634.12 1488.31 639.67 1494.08
  C 641.78 1496.27 647.47 1506.02 639.97 1505.63
  Q 636.59 1505.46 633.85 1503.97
  Q 632.81 1503.41 633.68 1504.21
  Q 637.75 1507.89 643.22 1506.70
  C 644.85 1506.35 645.70 1505.42 645.54 1503.75
  C 644.71 1494.91 636.67 1488.96 628.78 1486.70
  C 625.21 1485.67 620.64 1487.32 622.45 1492.02
  Q 624.12 1496.40 626.75 1499.46
  Q 626.91 1499.65 627.11 1499.50
  L 627.32 1499.34
  Q 627.48 1499.22 627.36 1499.06
  Z"
/>
<path fill="#ffc4ff" d="
  M 291.02 1495.97
  L 346.24 1511.90
  A 0.33 0.33 0.0 0 1 346.28 1512.52
  L 293.33 1534.87
  A 0.33 0.33 0.0 0 0 293.14 1535.09
  L 277.21 1590.31
  A 0.33 0.33 0.0 0 1 276.59 1590.35
  L 254.24 1537.40
  A 0.33 0.33 0.0 0 0 254.02 1537.21
  L 198.80 1521.28
  A 0.33 0.33 0.0 0 1 198.76 1520.66
  L 251.71 1498.31
  A 0.33 0.33 0.0 0 0 251.90 1498.09
  L 267.83 1442.87
  A 0.33 0.33 0.0 0 1 268.45 1442.83
  L 290.80 1495.78
  A 0.33 0.33 0.0 0 0 291.02 1495.97
  Z"
/>
<ellipse fill="#000000" cx="0.00" cy="0.00" transform="translate(594.44,1494.69) rotate(41.3)" rx="11.11" ry="5.87"/>
</svg>
