<?xml version="1.0" encoding="UTF-8" standalone="no"?>
<!DOCTYPE svg PUBLIC "-//W3C//DTD SVG 1.1//EN" "http://www.w3.org/Graphics/SVG/1.1/DTD/svg11.dtd">
<svg xmlns="http://www.w3.org/2000/svg" version="1.1" viewBox="0.00 0.00 1457.00 1438.00">
<g stroke-width="2.00" fill="none" stroke-linecap="butt">
<path stroke="#806280" vector-effect="non-scaling-stroke" d="
  M 57.47 44.46
  Q 58.73 47.75 61.67 48.17"
/>
<path stroke="#806280" vector-effect="non-scaling-stroke" d="
  M 41.97 82.52
  L 38.34 74.49"
/>
<path stroke="#806280" vector-effect="non-scaling-stroke" d="
  M 1416.88 83.54
  L 1418.09 92.45"
/>
<path stroke="#806280" vector-effect="non-scaling-stroke" d="
  M 1422.41 97.06
  Q 1423.46 97.81 1423.98 98.78"
/>
<path stroke="#806280" vector-effect="non-scaling-stroke" d="
  M 77.34 1390.83
  L 67.17 1384.66"
/>
<path stroke="#806280" vector-effect="non-scaling-stroke" d="
  M 34.52 635.85
  L 39.85 637.45"
/>
<path stroke="#806280" vector-effect="non-scaling-stroke" d="
  M 59.65 1310.18
  L 59.90 1310.36
  Q 60.22 1310.57 60.58 1310.45
  Q 63.82 1309.33 65.24 1307.64"
/>
<path stroke="#806280" vector-effect="non-scaling-stroke" d="
  M 65.25 1333.26
  L 65.00 1332.76
  Q 64.81 1332.34 64.36 1332.23
  L 60.35 1331.18
  Q 59.87 1331.05 59.75 1331.54
  Q 59.72 1331.66 59.74 1331.80"
/>
<path stroke="#806280" vector-effect="non-scaling-stroke" d="
  M 62.76 1373.84
  Q 66.60 1377.83 71.80 1380.84"
/>
<path stroke="#806280" vector-effect="non-scaling-stroke" d="
  M 1348.42 72.18
  C 1349.01 71.98 1349.52 71.74 1349.76 71.10
  Q 1350.70 68.61 1350.56 66.43"
/>
<path stroke="#806280" vector-effect="non-scaling-stroke" d="
  M 1369.95 66.65
  Q 1369.86 70.00 1372.64 72.39"
/>
<path stroke="#806280" vector-effect="non-scaling-stroke" d="
  M 1411.70 87.02
  L 1409.62 78.34"
/>
<path stroke="#806280" vector-effect="non-scaling-stroke" d="
  M 34.54 614.55
  L 39.84 612.37"
/>
<path stroke="#806280" vector-effect="non-scaling-stroke" d="
  M 677.71 66.50
  L 677.45 66.78
  Q 677.04 67.23 677.56 67.53
  Q 682.87 70.64 688.47 72.18"
/>
<path stroke="#000000" stroke-opacity="0.882" vector-effect="non-scaling-stroke" d="
  M 1013.72 897.08
  Q 1010.76 897.02 1011.11 894.13
  A 0.92 0.92 0.0 0 0 1010.78 893.31
  Q 1010.52 893.10 1010.16 893.07"
/>
<path stroke="#000000" stroke-opacity="0.882" vector-effect="non-scaling-stroke" d="
  M 917.17 1177.01
  Q 915.67 1178.82 915.67 1180.07"
/>
<path stroke="#806280" vector-effect="non-scaling-stroke" d="
  M 344.22 71.93
  Q 350.80 71.22 356.65 68.12
  Q 357.09 67.89 357.56 68.03
  Q 359.73 68.71 361.48 66.97
  A 0.59 0.58 -39.8 0 0 361.55 66.24
  Q 361.32 65.88 360.77 65.98"
/>
<path stroke="#000000" stroke-opacity="0.882" vector-effect="non-scaling-stroke" d="
  M 713.76 845.71
  Q 714.76 845.71 714.88 846.44
  Q 714.93 846.73 714.69 846.89
  Q 714.54 846.98 714.46 847.09
  Q 714.17 847.51 714.66 847.65
  Q 715.60 847.92 715.68 847.26
  Q 715.76 846.71 716.26 846.48
  Q 717.88 845.74 719.08 844.44
  Q 719.44 844.05 719.95 843.89
  Q 721.69 843.35 722.33 841.58
  A 1.23 1.20 85.2 0 1 722.85 840.95
  Q 724.17 840.17 725.25 839.28
  Q 725.63 838.97 725.90 838.56
  Q 726.61 837.50 727.98 837.41
  Q 728.44 837.38 728.66 836.98
  Q 729.75 835.01 731.68 833.80
  Q 731.89 833.67 732.13 833.66
  Q 732.37 833.64 732.60 833.62
  Q 733.04 833.59 733.23 833.20
  L 734.15 831.25
  Q 734.35 830.84 734.81 830.89
  Q 736.12 831.05 736.25 829.63
  A 1.14 1.11 74.2 0 1 736.66 828.87
  Q 737.27 828.38 737.98 828.12
  Q 738.46 827.95 738.85 827.62
  Q 741.36 825.57 743.48 823.10
  A 2.42 0.26 -34.6 0 1 744.48 822.24
  Q 745.12 821.74 745.87 821.59
  A 1.21 1.20 -75.3 0 0 746.58 821.17
  C 747.98 819.40 750.34 818.93 751.21 816.56
  Q 751.39 816.09 751.87 815.97
  Q 753.01 815.68 753.22 814.52
  A 0.47 0.47 0.0 0 1 753.71 814.13
  Q 753.98 814.14 754.24 814.08
  Q 754.70 813.97 755.06 813.68
  L 758.77 810.68
  Q 759.08 810.43 759.09 810.03
  Q 759.10 809.63 759.37 809.37
  A 1.71 0.66 -52.7 0 1 760.23 808.84
  Q 762.37 808.45 763.30 806.60
  Q 763.41 806.38 763.66 806.38
  Q 763.82 806.38 764.02 806.37
  Q 764.56 806.34 764.87 805.89
  Q 765.74 804.65 767.05 804.02
  Q 767.47 803.82 767.67 803.41
  C 769.11 800.54 771.83 800.83 773.31 797.98
  Q 773.74 797.15 774.79 797.07
  Q 775.23 797.03 775.54 796.72
  L 778.59 793.57
  Q 778.96 793.20 779.38 792.90
  L 780.23 792.31
  Q 780.57 792.07 780.72 791.68
  Q 780.97 791.03 781.66 790.70
  Q 782.02 790.52 782.30 790.24
  L 785.77 786.84
  Q 786.35 786.28 785.61 785.96
  Q 784.96 785.68 785.11 784.93
  A 0.45 0.44 -84.9 0 0 784.66 784.39
  Q 783.62 784.42 783.19 783.72"
/>
<path stroke="#000000" stroke-opacity="0.882" vector-effect="non-scaling-stroke" d="
  M 665.13 749.16
  Q 665.15 748.88 664.91 748.65
  Q 664.51 748.26 664.42 748.81
  Q 664.27 749.64 664.49 750.44
  A 0.40 0.40 0.0 0 0 665.21 750.55
  Q 665.58 749.99 665.20 749.43
  Q 665.13 749.31 665.13 749.16"
/>
<path stroke="#000000" stroke-opacity="0.882" vector-effect="non-scaling-stroke" d="
  M 820.0537 755.5810
  A 0.26 0.26 0.0 0 0 819.6889 755.5349
  L 812.7988 760.8794
  A 0.26 0.26 0.0 0 0 812.7527 761.2442
  L 812.8263 761.3390
  A 0.26 0.26 0.0 0 0 813.1911 761.3851
  L 820.0812 756.0406
  A 0.26 0.26 0.0 0 0 820.1273 755.6758
  L 820.0537 755.5810"
/>
<path stroke="#000000" stroke-opacity="0.882" vector-effect="non-scaling-stroke" d="
  M 679.8773 878.2143
  A 1.04 0.44 -20.0 0 0 678.7495 878.1565
  A 1.04 0.44 -20.0 0 0 677.9227 878.9257
  A 1.04 0.44 -20.0 0 0 679.0505 878.9835
  A 1.04 0.44 -20.0 0 0 679.8773 878.2143"
/>
<path stroke="#000000" stroke-opacity="0.882" vector-effect="non-scaling-stroke" d="
  M 577.06 1057.40
  Q 576.68 1057.51 577.33 1058.10
  A 0.40 0.39 45.6 0 0 577.85 1058.11
  L 580.26 1056.07
  A 0.43 0.43 0.0 0 0 579.77 1055.37
  Q 578.43 1056.14 577.32 1057.25
  Q 577.21 1057.36 577.06 1057.40"
/>
<path stroke="#000000" stroke-opacity="0.882" vector-effect="non-scaling-stroke" d="
  M 732.1598 1113.0151
  A 1.31 0.29 1.1 0 0 730.8556 1112.7001
  A 1.31 0.29 1.1 0 0 729.5402 1112.9649
  A 1.31 0.29 1.1 0 0 730.8444 1113.2799
  A 1.31 0.29 1.1 0 0 732.1598 1113.0151"
/>
<path stroke="#000000" stroke-opacity="0.882" vector-effect="non-scaling-stroke" d="
  M 541.01 660.40
  L 537.82 660.04
  Q 537.30 659.98 537.31 659.46
  Q 537.33 657.93 536.56 656.88"
/>
<path stroke="#000000" stroke-opacity="0.882" vector-effect="non-scaling-stroke" d="
  M 525.83 639.06
  L 525.03 638.76
  Q 524.47 638.54 524.97 638.21
  Q 525.66 637.73 525.36 636.75
  Q 525.21 636.28 524.75 636.11
  Q 523.94 635.82 524.21 634.83"
/>
</g>
<path fill="#ffc4ff" d="
  M 57.47 44.46
  Q 58.73 47.75 61.67 48.17
  L 90.22 56.61
  Q 90.91 56.81 90.25 57.09
  L 60.66 69.67
  A 1.67 1.66 -3.5 0 0 59.71 70.74
  L 50.75 101.62
  Q 50.54 102.33 50.25 101.65
  L 41.97 82.52
  L 38.34 74.49
  C 38.33 72.55 37.88 71.42 35.88 70.85
  Q 20.70 66.46 5.55 62.03
  Q 5.12 61.90 5.53 61.73
  L 35.56 48.99
  A 1.21 1.19 87.0 0 0 36.24 48.22
  L 45.35 16.79
  Q 45.47 16.41 45.62 16.77
  L 57.47 44.46
  Z"
/>
<path fill="#000000" d="
  M 1416.88 83.54
  L 1418.09 92.45
  L 1418.20 95.26
  A 0.99 0.97 16.7 0 0 1418.62 96.02
  Q 1420.24 97.13 1422.41 97.06
  Q 1423.46 97.81 1423.98 98.78
  Q 1421.47 99.02 1418.71 100.49
  A 0.92 0.91 -14.4 0 0 1418.23 101.29
  L 1418.23 1203.95
  A 1.04 1.04 0.0 0 0 1418.98 1204.95
  L 1434.73 1209.48
  Q 1435.47 1209.69 1434.76 1210.00
  L 1418.70 1216.76
  A 0.76 0.74 79.1 0 0 1418.24 1217.46
  Q 1418.21 1266.01 1418.24 1314.49
  Q 1418.25 1328.55 1417.35 1334.45
  C 1412.51 1366.12 1386.65 1391.99 1354.96 1396.71
  Q 1349.16 1397.58 1334.99 1397.58
  Q 721.37 1397.57 107.75 1397.47
  C 96.48 1397.47 87.72 1394.59 77.34 1390.83
  L 67.17 1384.66
  C 47.13 1370.20 35.26 1349.53 34.45 1324.58
  Q 34.43 1324.11 33.98 1323.99
  L 30.25 1322.96
  Q 29.31 1322.70 30.24 1322.40
  L 33.52 1321.33
  A 1.45 1.44 81.2 0 0 34.52 1319.95
  L 34.52 635.85
  L 39.85 637.45
  L 39.84 1317.66
  A 0.60 0.60 0.0 0 0 40.67 1318.21
  L 59.65 1310.18
  L 59.90 1310.36
  Q 60.22 1310.57 60.58 1310.45
  Q 63.82 1309.33 65.24 1307.64
  L 74.41 1303.86
  A 1.23 1.22 -3.7 0 0 75.12 1303.06
  L 88.57 1256.89
  Q 88.65 1256.63 88.75 1256.87
  L 107.27 1300.52
  A 2.72 2.69 -3.2 0 0 109.01 1302.06
  L 154.48 1315.28
  Q 154.80 1315.37 154.49 1315.50
  L 110.15 1334.34
  Q 109.72 1334.53 109.59 1334.97
  L 96.22 1380.96
  Q 96.05 1381.54 95.82 1380.98
  L 77.34 1337.48
  A 2.43 2.43 0.0 0 0 75.74 1336.08
  L 65.25 1333.26
  L 65.00 1332.76
  Q 64.81 1332.34 64.36 1332.23
  L 60.35 1331.18
  Q 59.87 1331.05 59.75 1331.54
  Q 59.72 1331.66 59.74 1331.80
  C 59.06 1330.72 58.43 1331.08 57.52 1330.82
  Q 48.99 1328.40 40.76 1325.92
  A 0.56 0.55 -83.9 0 0 40.05 1326.50
  Q 42.26 1354.58 62.76 1373.84
  Q 66.60 1377.83 71.80 1380.84
  Q 84.33 1388.82 98.80 1391.24
  Q 104.77 1392.24 118.75 1392.24
  Q 726.74 1392.26 1334.74 1392.24
  Q 1348.35 1392.24 1354.68 1391.14
  C 1383.50 1386.14 1406.42 1363.48 1411.64 1334.68
  Q 1412.81 1328.22 1412.82 1314.75
  Q 1412.85 1267.26 1412.83 1219.85
  A 0.38 0.38 0.0 0 0 1412.30 1219.50
  L 1404.73 1222.69
  A 0.96 0.94 87.6 0 0 1404.17 1223.31
  L 1395.04 1254.72
  Q 1394.87 1255.31 1394.63 1254.74
  L 1382.12 1225.15
  A 2.11 2.11 0.0 0 0 1380.77 1223.95
  L 1350.04 1214.98
  Q 1349.41 1214.80 1350.02 1214.54
  L 1379.53 1202.00
  A 1.99 1.97 -3.7 0 0 1380.66 1200.73
  L 1389.61 1169.79
  Q 1389.76 1169.29 1389.96 1169.77
  L 1402.45 1199.16
  A 2.63 2.59 -3.1 0 0 1404.11 1200.63
  L 1412.10 1202.94
  Q 1412.84 1203.15 1412.84 1202.39
  L 1412.84 103.51
  A 0.37 0.36 -11.4 0 0 1412.33 103.18
  L 1380.29 116.79
  Q 1379.47 117.14 1379.23 117.99
  L 1365.92 163.69
  Q 1365.79 164.13 1365.61 163.71
  L 1346.96 119.79
  A 1.61 1.61 0.0 0 0 1345.91 118.86
  L 1299.84 105.47
  Q 1299.63 105.41 1299.83 105.32
  L 1343.92 86.59
  A 1.74 1.72 86.8 0 0 1344.90 85.48
  L 1348.65 72.84
  Q 1348.70 72.65 1348.60 72.48
  L 1348.42 72.18
  C 1349.01 71.98 1349.52 71.74 1349.76 71.10
  Q 1350.70 68.61 1350.56 66.43
  L 1357.96 40.57
  Q 1357.96 40.55 1357.96 40.52
  L 1358.01 39.44
  Q 1358.06 38.31 1358.50 39.35
  L 1369.95 66.65
  Q 1369.86 70.00 1372.64 72.39
  L 1377.18 83.43
  Q 1377.54 84.32 1378.47 84.59
  L 1412.16 94.35
  A 0.31 0.30 4.5 0 0 1412.55 94.02
  L 1411.70 87.02
  L 1409.62 78.34
  C 1400.24 48.79 1373.29 28.80 1342.75 28.80
  Q 730.31 28.79 117.87 28.80
  Q 104.21 28.80 97.93 29.94
  Q 77.61 33.62 61.67 48.17
  Q 58.73 47.75 57.47 44.46
  Q 74.32 28.29 96.31 24.53
  Q 102.47 23.48 116.25 23.48
  Q 726.00 23.49 1335.74 23.48
  Q 1349.86 23.48 1355.70 24.41
  C 1386.31 29.29 1410.42 53.43 1416.88 83.54
  Z"
/>
<path fill="#000000" d="
  M 677.71 66.50
  L 677.45 66.78
  Q 677.04 67.23 677.56 67.53
  Q 682.87 70.64 688.47 72.18
  Q 688.22 73.22 690.35 73.92
  C 693.74 75.03 697.25 78.46 700.43 80.37
  C 718.82 91.40 735.09 104.32 747.69 121.81
  Q 756.92 134.60 765.77 147.64
  C 775.23 161.58 781.90 174.78 786.68 189.98
  C 789.07 197.59 790.50 206.23 792.11 214.46
  C 792.66 217.30 792.74 219.93 792.79 222.76
  C 792.91 229.15 802.94 241.57 808.41 247.97
  C 834.37 278.34 860.39 308.60 886.85 338.54
  C 895.52 348.36 906.00 359.21 915.37 369.77
  Q 920.39 375.43 928.73 384.64
  C 938.82 395.78 948.59 408.01 958.01 418.82
  C 966.41 428.44 989.46 459.50 1002.28 456.78
  C 1014.51 454.19 1021.79 442.63 1028.43 433.38
  Q 1032.27 428.04 1037.01 420.62
  C 1045.10 407.96 1049.14 395.98 1053.99 382.92
  Q 1055.12 379.85 1055.07 376.61
  Q 1055.04 374.61 1058.21 374.38
  A 1.45 1.45 0.0 0 1 1059.77 375.76
  C 1059.85 377.44 1059.54 378.94 1059.92 380.71
  C 1063.68 398.14 1067.28 415.53 1070.39 433.09
  C 1071.98 442.02 1072.71 451.22 1073.59 460.33
  C 1074.63 471.08 1074.45 481.87 1074.53 492.68
  C 1074.60 503.26 1073.82 511.21 1071.51 520.73
  C 1068.71 532.29 1061.83 539.48 1052.03 545.50
  C 1044.01 550.44 1037.70 555.08 1030.50 559.94
  C 1023.24 564.83 1022.41 569.83 1026.42 577.82
  Q 1029.29 583.53 1033.23 588.57
  C 1045.50 604.27 1055.11 618.11 1066.20 637.85
  C 1071.56 647.38 1075.80 655.76 1073.82 666.50
  Q 1071.72 677.91 1067.49 690.23
  C 1059.72 712.85 1049.42 734.21 1038.29 755.33
  C 1033.66 764.12 1029.60 773.01 1024.65 781.67
  Q 1023.21 784.20 1023.57 786.75
  C 1025.14 797.95 1027.21 810.67 1031.04 821.36
  Q 1033.75 828.91 1037.22 836.16
  C 1038.85 839.56 1041.12 842.80 1043.15 846.13
  C 1045.92 850.69 1048.74 854.34 1052.54 857.22
  C 1057.77 861.18 1062.43 866.21 1066.49 869.56
  Q 1072.83 874.80 1078.94 880.30
  Q 1080.88 882.04 1082.75 881.95
  Q 1089.25 881.65 1095.75 881.33
  Q 1102.45 880.99 1128.75 883.41
  C 1136.53 884.12 1145.63 886.54 1151.59 887.63
  Q 1159.59 889.08 1167.36 890.81
  A 1.77 1.76 -65.8 0 0 1169.17 890.12
  Q 1177.25 878.84 1185.75 867.70
  C 1192.00 859.50 1200.71 849.38 1207.88 839.95
  C 1220.28 823.68 1232.52 810.00 1247.22 796.89
  A 2.37 2.37 0.0 0 1 1249.76 796.49
  C 1254.97 798.81 1260.38 803.68 1263.54 807.72
  C 1283.58 833.29 1299.11 861.28 1312.35 891.60
  Q 1320.05 909.24 1327.56 926.96
  Q 1334.44 943.19 1338.56 966.27
  Q 1340.77 978.67 1343.27 991.01
  C 1346.31 1005.99 1348.47 1024.45 1348.81 1044.66
  C 1349.08 1060.96 1346.31 1078.13 1339.84 1093.18
  Q 1339.46 1094.06 1340.41 1094.21
  L 1350.35 1095.74
  A 0.95 0.95 0.0 0 1 1351.08 1097.05
  L 1350.93 1097.40
  A 0.29 0.28 13.9 0 1 1350.64 1097.57
  L 1340.03 1096.58
  A 2.83 2.82 14.2 0 0 1337.17 1098.27
  Q 1334.56 1104.27 1331.33 1109.58
  Q 1319.65 1128.82 1304.09 1145.34
  A 0.51 0.51 0.0 0 0 1304.38 1146.20
  Q 1305.30 1146.35 1306.43 1146.92
  Q 1315.42 1151.44 1324.43 1155.90
  Q 1326.76 1157.05 1328.01 1158.15
  Q 1329.75 1159.69 1327.48 1159.45
  Q 1326.63 1159.36 1325.38 1158.82
  Q 1313.88 1153.86 1302.21 1148.61
  A 1.84 1.83 34.1 0 0 1300.15 1149.00
  C 1296.18 1153.02 1292.49 1157.96 1288.87 1161.61
  Q 1281.48 1169.05 1273.88 1175.94
  Q 1273.29 1176.48 1273.53 1177.24
  C 1277.03 1188.00 1281.45 1199.57 1284.62 1209.30
  Q 1291.40 1230.13 1298.00 1251.02
  C 1308.63 1284.72 1317.29 1319.02 1326.18 1353.21
  Q 1330.93 1371.45 1337.20 1390.57
  Q 1337.40 1391.16 1336.77 1391.18
  L 1331.76 1391.33
  A 1.01 0.99 -8.6 0 1 1330.77 1390.61
  C 1330.12 1388.28 1329.23 1386.11 1328.74 1383.70
  C 1327.91 1379.68 1326.19 1375.68 1325.26 1372.07
  Q 1323.44 1365.03 1320.18 1355.02
  Q 1314.52 1337.61 1297.51 1278.63
  C 1291.96 1259.37 1285.73 1240.34 1280.28 1221.04
  C 1279.07 1216.72 1274.55 1219.08 1271.95 1220.04
  Q 1242.50 1230.89 1211.23 1233.75
  Q 1201.35 1234.65 1191.50 1235.72
  C 1183.92 1236.55 1173.87 1236.61 1161.79 1237.19
  Q 1146.24 1237.93 1130.74 1236.08
  C 1128.18 1235.77 1124.14 1234.84 1123.42 1231.86
  Q 1123.02 1230.18 1124.74 1230.18
  Q 1137.43 1230.15 1150.21 1227.83
  C 1165.51 1225.05 1178.92 1222.29 1195.19 1216.59
  C 1220.55 1207.69 1242.68 1195.55 1263.85 1179.35
  Q 1266.70 1177.17 1271.84 1171.66
  C 1279.81 1163.12 1288.49 1155.40 1296.39 1146.72
  A 0.71 0.71 0.0 0 0 1296.13 1145.59
  C 1274.82 1136.80 1254.39 1127.00 1236.69 1120.11
  Q 1224.98 1115.55 1199.54 1107.14
  Q 1198.59 1106.83 1198.27 1106.46
  Q 1197.67 1105.79 1198.18 1104.81
  A 0.95 0.95 0.0 0 1 1199.21 1104.32
  Q 1213.66 1107.26 1227.48 1112.69
  C 1233.42 1115.02 1239.44 1116.91 1244.30 1118.90
  C 1268.50 1128.84 1283.26 1135.32 1298.30 1143.00
  A 0.97 0.97 0.0 0 0 1299.45 1142.79
  Q 1310.86 1130.21 1320.51 1116.65
  C 1325.05 1110.29 1328.78 1103.48 1332.47 1096.55
  A 0.71 0.71 0.0 0 0 1331.69 1095.52
  Q 1330.50 1095.77 1329.25 1095.65
  C 1285.93 1091.51 1241.76 1088.67 1198.22 1091.26
  A 0.62 0.62 0.0 0 1 1197.57 1090.70
  L 1197.54 1090.41
  Q 1197.43 1089.36 1198.49 1089.23
  C 1214.20 1087.35 1223.81 1087.72 1237.50 1087.11
  C 1247.00 1086.68 1258.29 1087.69 1268.11 1087.93
  C 1285.88 1088.36 1303.70 1089.96 1321.40 1091.53
  C 1325.03 1091.86 1329.02 1092.60 1332.80 1092.99
  A 1.53 1.51 -75.5 0 0 1334.36 1092.06
  Q 1338.61 1081.81 1340.86 1071.62
  C 1343.24 1060.84 1343.65 1048.08 1343.21 1036.76
  C 1342.39 1016.07 1338.94 995.58 1334.33 975.22
  Q 1329.82 955.30 1323.26 935.92
  Q 1318.08 920.61 1313.04 908.50
  C 1302.54 883.27 1291.04 858.58 1274.05 832.69
  Q 1266.51 821.18 1257.19 811.07
  Q 1254.10 807.71 1250.24 805.22
  A 1.01 1.00 -76.4 0 1 1249.80 804.49
  L 1249.75 804.03
  A 0.36 0.36 0.0 0 0 1249.19 803.77
  Q 1247.11 805.11 1245.45 806.96
  C 1241.90 810.89 1237.89 814.71 1234.61 818.44
  C 1222.09 832.70 1209.17 846.92 1197.56 861.91
  C 1186.92 875.65 1180.03 884.37 1171.60 895.84
  C 1169.29 898.97 1167.00 895.92 1164.76 895.64
  C 1154.32 894.31 1141.96 891.16 1133.95 889.95
  C 1117.12 887.41 1099.28 886.29 1083.07 887.18
  Q 1080.44 887.33 1074.14 887.05
  Q 1068.89 886.83 1062.50 887.41
  Q 1046.48 888.88 1033.80 891.17
  C 1027.03 892.40 1020.40 894.87 1013.72 897.08
  Q 1010.76 897.02 1011.11 894.13
  A 0.92 0.92 0.0 0 0 1010.78 893.31
  Q 1010.52 893.10 1010.16 893.07
  C 996.77 876.28 983.70 858.33 970.14 842.59
  Q 957.77 828.24 939.90 808.84
  C 938.20 806.99 936.25 804.66 934.00 803.47
  Q 933.41 803.16 933.63 803.78
  Q 933.89 804.52 933.41 804.92
  Q 921.42 814.71 913.82 826.36
  C 903.85 841.63 896.99 852.40 889.25 867.69
  C 880.08 885.82 871.65 904.38 864.81 923.52
  C 862.01 931.34 859.12 939.04 856.81 947.06
  C 851.73 964.64 846.03 987.05 842.96 1008.13
  Q 840.40 1025.71 840.19 1037.76
  Q 839.88 1055.74 841.32 1064.50
  Q 843.72 1079.20 849.64 1092.81
  Q 849.79 1093.16 850.17 1093.11
  C 875.42 1089.40 901.25 1088.32 926.73 1087.38
  Q 934.13 1087.11 942.27 1087.16
  C 952.08 1087.22 962.02 1087.09 971.65 1087.94
  Q 978.60 1088.55 985.45 1089.30
  A 0.49 0.49 0.0 0 1 985.86 1089.94
  L 985.75 1090.29
  A 1.22 1.21 -80.0 0 1 984.54 1091.14
  C 959.89 1090.06 941.74 1090.24 917.24 1091.22
  C 897.66 1092.01 878.03 1093.72 858.47 1095.20
  C 856.85 1095.32 854.35 1096.09 852.06 1095.65
  A 0.50 0.49 -4.4 0 0 851.50 1096.30
  Q 851.96 1097.63 852.65 1098.94
  Q 858.98 1111.02 866.93 1122.06
  C 871.62 1128.56 878.07 1135.70 883.64 1142.57
  A 1.59 1.58 56.2 0 0 885.62 1142.97
  C 901.56 1134.37 918.64 1127.20 935.47 1120.35
  C 945.10 1116.43 955.83 1112.79 966.04 1109.08
  Q 972.24 1106.83 984.62 1104.31
  A 0.88 0.88 0.0 0 1 985.67 1105.07
  L 985.71 1105.35
  Q 985.85 1106.53 984.72 1106.91
  C 960.86 1114.81 945.31 1120.60 926.07 1128.80
  C 913.23 1134.27 900.51 1140.96 887.36 1145.58
  A 0.61 0.61 0.0 0 0 887.13 1146.59
  L 917.17 1177.01
  Q 915.67 1178.82 915.67 1180.07
  L 853.81 1387.56
  Q 853.67 1388.04 853.27 1388.35
  Q 852.54 1388.91 852.94 1389.73
  A 1.06 1.05 76.9 0 1 852.00 1391.25
  L 499.10 1391.25
  Q 497.74 1391.25 497.53 1389.90
  Q 496.90 1385.81 495.67 1382.21
  C 480.48 1337.81 459.56 1295.36 438.62 1253.44
  Q 432.78 1241.75 432.04 1237.27
  C 431.29 1232.82 430.16 1222.73 436.71 1220.88
  Q 454.91 1215.71 469.63 1209.54
  C 471.92 1208.57 474.72 1207.92 477.19 1206.87
  C 492.38 1200.40 507.86 1194.75 523.04 1188.28
  Q 530.60 1185.06 538.24 1182.00
  C 547.75 1178.19 557.57 1173.64 568.00 1169.29
  Q 585.08 1162.16 611.77 1149.30
  C 620.86 1144.92 631.51 1139.54 638.85 1131.59
  Q 638.97 1131.46 639.14 1131.39
  Q 639.34 1131.31 639.55 1131.23
  Q 640.01 1131.05 639.55 1130.87
  Q 639.30 1130.77 639.01 1130.83
  C 623.25 1133.94 607.36 1136.06 591.50 1138.56
  C 583.97 1139.75 576.12 1140.36 568.39 1141.23
  C 564.36 1141.69 543.06 1143.44 541.15 1139.27
  Q 540.77 1138.42 541.66 1138.17
  C 544.66 1137.34 547.65 1137.37 550.34 1136.25
  Q 555.15 1134.24 558.15 1132.63
  C 606.32 1106.69 652.06 1073.64 692.74 1037.22
  C 700.56 1030.22 708.24 1023.59 715.82 1016.06
  Q 716.51 1015.38 715.87 1014.66
  Q 715.05 1013.74 713.32 1014.66
  C 707.15 1017.92 700.55 1021.76 693.50 1021.96
  Q 684.04 1022.24 669.25 1021.72
  Q 659.30 1021.37 638.09 1023.37
  C 632.53 1023.90 629.71 1025.10 625.28 1029.02
  Q 621.11 1032.71 614.69 1037.64
  Q 593.06 1054.27 574.33 1065.76
  Q 567.52 1069.94 562.72 1071.96
  C 548.64 1077.88 534.49 1075.68 520.45 1070.67
  C 508.61 1066.45 497.27 1063.30 486.04 1058.61
  A 2.68 2.67 -48.9 0 0 483.62 1058.78
  Q 481.18 1060.24 478.03 1061.55
  Q 454.58 1071.33 431.13 1081.10
  C 428.67 1082.12 426.78 1085.24 423.48 1083.79
  C 418.16 1081.46 411.95 1079.53 407.94 1077.90
  Q 396.91 1073.43 385.92 1068.87
  Q 371.83 1063.01 357.66 1057.33
  C 355.63 1056.52 354.04 1056.05 351.93 1057.22
  C 336.11 1066.01 320.85 1073.51 303.68 1078.40
  C 289.80 1082.35 275.37 1084.96 261.21 1086.43
  C 257.84 1086.78 254.39 1087.66 251.24 1087.95
  C 245.01 1088.51 238.76 1088.88 232.61 1090.08
  Q 228.42 1090.90 224.91 1087.86
  Q 224.36 1087.37 224.91 1086.88
  C 227.94 1084.17 231.27 1083.11 234.63 1081.51
  Q 249.23 1074.54 253.70 1071.47
  Q 278.59 1054.40 292.49 1027.72
  C 293.92 1024.98 294.96 1023.25 294.71 1020.76
  C 292.97 1003.87 284.37 990.86 273.91 976.04
  C 261.31 958.17 249.52 939.78 237.81 921.32
  C 227.20 904.58 212.56 891.65 206.50 872.16
  C 203.35 862.04 203.11 850.58 203.89 839.77
  C 204.54 830.63 207.14 820.85 210.10 812.32
  Q 216.65 793.44 226.22 771.64
  C 228.16 767.20 229.69 762.34 231.49 757.71
  Q 234.11 750.95 235.38 747.25
  Q 242.88 725.36 250.78 703.61
  C 254.81 692.52 260.69 675.25 266.48 661.33
  C 266.85 660.43 266.86 659.68 266.79 658.77
  C 265.94 646.59 260.65 638.97 253.87 628.38
  C 242.70 610.90 233.21 590.85 222.76 572.19
  Q 221.51 569.95 220.64 569.11
  C 215.45 564.15 208.32 558.25 202.89 552.53
  Q 190.91 539.91 183.87 530.63
  Q 167.19 508.67 155.11 480.53
  C 150.06 468.75 146.71 457.92 143.67 443.57
  C 139.97 426.14 139.49 410.51 142.92 393.06
  Q 143.06 392.40 143.55 390.84
  Q 144.05 389.27 143.77 388.50
  C 137.64 370.95 134.32 352.37 132.32 333.06
  C 131.07 320.91 129.60 308.71 129.56 296.50
  Q 129.50 277.64 135.37 257.79
  Q 139.53 243.73 142.30 237.75
  Q 152.48 215.75 167.42 196.68
  Q 171.67 191.25 181.51 180.06
  C 184.40 176.78 187.46 171.52 191.05 168.54
  Q 199.84 161.22 208.62 153.88
  C 217.76 146.24 228.15 138.80 237.86 131.11
  C 239.08 130.14 241.45 129.41 243.04 128.27
  C 250.92 122.65 259.26 117.63 267.51 112.58
  Q 282.20 103.59 296.99 94.79
  C 303.27 91.05 308.98 87.59 315.95 84.66
  Q 325.95 80.45 335.70 75.67
  Q 336.45 75.30 336.97 74.48
  Q 337.27 74.00 337.70 74.36
  C 340.01 76.29 341.61 73.80 344.05 73.82
  Q 344.61 73.83 344.84 73.32
  Q 344.99 73.01 345.30 72.87
  Q 345.99 72.56 345.28 72.30
  L 344.22 71.93
  Q 350.80 71.22 356.65 68.12
  Q 357.09 67.89 357.56 68.03
  Q 359.73 68.71 361.48 66.97
  A 0.59 0.58 -39.8 0 0 361.55 66.24
  Q 361.32 65.88 360.77 65.98
  Q 362.77 65.19 364.98 65.43
  Q 365.48 65.48 365.95 65.30
  C 367.93 64.50 370.17 64.15 371.98 63.45
  C 379.82 60.42 387.32 57.37 395.56 55.25
  C 408.76 51.85 420.89 48.18 435.37 46.49
  C 438.20 46.16 441.58 45.10 444.88 44.99
  C 447.06 44.91 448.98 43.87 451.27 44.04
  Q 453.41 44.20 454.24 44.10
  C 470.36 42.10 484.30 39.45 494.75 39.23
  C 518.42 38.73 537.98 38.20 565.56 39.04
  Q 566.92 39.08 569.88 39.64
  C 571.80 40.01 573.94 39.89 575.70 40.16
  C 583.22 41.31 590.77 42.09 598.08 43.74
  C 603.06 44.87 607.78 45.97 613.01 46.91
  C 630.12 50.00 647.57 54.86 663.19 60.03
  C 668.15 61.67 672.73 64.45 677.71 66.50
  Z
  M 255.72 129.21
  Q 251.33 131.53 247.56 134.81
  Q 236.19 144.71 223.91 153.45
  C 221.22 155.36 219.54 158.33 217.40 160.79
  Q 214.47 164.13 212.62 166.66
  Q 200.60 183.09 190.43 200.73
  Q 190.11 201.29 190.37 201.81
  Q 190.65 202.38 191.11 201.95
  Q 195.44 197.85 199.91 193.94
  C 208.07 186.82 215.79 179.38 224.05 172.42
  C 228.34 168.80 234.13 163.44 239.52 159.32
  C 241.20 158.03 242.89 155.75 245.12 154.70
  A 2.57 2.57 0.0 0 1 248.77 156.67
  C 249.17 159.56 244.20 167.50 242.47 170.19
  Q 237.97 177.19 234.56 184.75
  C 231.00 192.65 228.73 201.89 226.82 210.60
  Q 226.57 211.72 227.45 210.98
  Q 238.28 201.87 250.15 193.72
  C 254.06 191.03 257.93 187.85 261.94 185.03
  C 276.11 175.08 290.00 164.77 304.41 155.15
  C 309.42 151.81 316.57 146.70 322.59 145.98
  A 1.20 1.15 61.5 0 1 323.53 146.28
  Q 325.08 147.69 327.19 147.03
  A 1.57 1.55 63.5 0 1 328.93 147.62
  C 335.18 156.52 340.89 163.38 350.60 170.77
  C 355.97 174.85 362.17 178.00 368.17 181.36
  Q 368.57 181.58 368.71 181.15
  Q 373.64 165.57 382.60 151.79
  Q 385.71 147.01 388.87 142.26
  C 393.04 136.00 398.10 130.01 402.78 123.86
  C 404.42 121.71 405.45 121.65 408.00 121.56
  C 419.66 121.13 431.97 123.96 443.37 126.29
  C 446.36 126.90 449.55 128.14 452.75 128.86
  C 460.80 130.68 468.71 132.49 476.74 135.06
  Q 482.25 136.83 487.85 138.25
  C 498.41 140.94 508.55 145.26 518.87 148.69
  C 525.82 150.99 532.10 153.65 538.71 156.26
  C 541.43 157.33 544.19 158.99 547.08 160.18
  C 554.73 163.34 562.48 166.92 569.65 171.07
  C 575.49 174.44 581.62 177.37 587.45 180.71
  C 591.83 183.22 596.96 187.01 602.05 189.65
  A 0.53 0.53 0.0 0 0 602.82 189.20
  C 602.96 185.71 603.86 182.07 604.03 178.95
  Q 604.31 173.78 604.14 171.60
  Q 602.80 153.94 600.15 136.42
  C 599.71 133.51 599.09 132.63 601.37 130.90
  C 602.87 129.76 603.34 128.91 605.39 129.07
  C 611.92 129.58 618.15 130.90 624.62 131.95
  C 629.52 132.75 634.93 134.24 639.00 135.01
  Q 651.62 137.38 659.85 139.28
  C 662.95 140.00 666.80 141.45 670.45 142.16
  Q 677.19 143.47 678.50 143.81
  Q 697.59 148.86 716.32 155.09
  C 725.07 157.99 734.21 161.97 743.17 165.50
  A 1.43 1.42 -62.5 0 0 744.89 164.95
  C 749.82 157.31 748.28 151.07 744.31 142.47
  Q 739.07 131.13 735.67 126.03
  C 728.51 115.31 719.27 104.36 708.67 96.89
  C 706.41 95.31 704.39 92.78 701.81 91.43
  Q 693.21 86.92 683.07 84.63
  C 680.07 83.95 677.59 85.26 674.73 86.04
  Q 674.23 86.17 673.77 85.94
  L 671.14 84.58
  A 1.06 1.04 42.4 0 0 670.11 84.62
  L 668.50 85.60
  A 1.19 1.18 39.4 0 1 667.47 85.70
  Q 666.73 85.42 666.15 84.89
  Q 665.84 84.61 665.54 84.91
  Q 665.10 85.34 664.49 85.42
  Q 658.38 86.25 652.25 87.02
  C 650.36 87.26 647.93 86.66 646.30 87.77
  A 1.87 1.85 -63.2 0 1 645.38 88.08
  Q 639.76 88.35 634.41 90.14
  A 1.22 1.21 -42.1 0 1 633.51 90.10
  Q 632.96 89.84 632.59 90.07
  Q 631.08 90.99 629.42 91.33
  C 624.71 92.30 620.30 93.99 615.85 95.76
  C 612.34 97.15 608.82 98.11 605.28 99.26
  C 598.81 101.35 592.14 104.63 586.20 108.02
  Q 576.47 113.58 566.78 119.22
  C 561.73 122.16 559.59 119.18 554.91 118.32
  Q 548.19 117.09 541.74 114.81
  C 540.65 114.42 539.40 115.06 538.11 114.76
  Q 532.27 113.39 526.71 111.09
  C 525.46 110.57 524.09 110.69 522.75 110.27
  Q 488.95 99.69 454.25 92.65
  Q 448.91 91.57 436.86 91.62
  Q 436.04 91.62 435.18 91.39
  C 433.14 90.84 430.69 91.34 428.11 91.90
  C 421.55 93.31 418.66 98.18 414.86 102.87
  C 412.59 105.67 411.26 108.28 410.01 111.48
  A 2.56 2.54 4.1 0 1 408.19 113.04
  C 403.05 114.17 397.49 114.02 392.25 114.07
  C 376.89 114.21 360.49 115.36 345.60 119.29
  Q 340.70 120.59 335.82 121.93
  Q 325.96 124.64 316.11 127.42
  C 315.08 127.71 313.84 127.70 312.68 128.17
  Q 310.72 128.97 310.24 129.08
  Q 302.18 131.05 294.17 133.21
  Q 287.37 135.04 279.17 138.35
  Q 267.20 143.19 255.00 147.41
  C 252.60 148.23 249.72 147.87 249.89 144.76
  Q 250.36 136.47 256.24 129.01
  Q 256.40 128.80 256.16 128.88
  Q 256.07 128.91 255.99 128.98
  Q 255.79 129.17 255.72 129.21
  Z
  M 452.63 456.22
  C 466.11 461.65 481.19 465.23 495.99 463.41
  C 531.90 459.00 555.79 430.57 568.67 399.12
  C 577.80 376.82 581.29 351.32 579.73 329.91
  C 579.60 328.19 580.03 326.21 579.63 324.26
  Q 578.90 320.75 578.84 320.19
  Q 578.32 315.21 576.48 306.99
  Q 573.49 293.61 571.04 286.99
  Q 566.89 275.73 561.59 264.96
  C 556.98 255.61 550.67 247.44 544.39 239.19
  C 539.58 232.86 534.24 227.74 528.52 222.48
  C 514.68 209.77 499.19 200.21 481.75 193.35
  Q 472.28 189.62 467.98 188.57
  Q 452.07 184.69 447.50 184.29
  C 437.37 183.39 427.67 182.24 417.08 183.43
  C 407.60 184.50 396.86 186.65 388.08 190.48
  C 383.81 192.36 379.26 194.09 375.47 196.22
  C 358.34 205.84 343.89 223.60 338.14 242.42
  C 334.26 255.08 333.34 267.92 333.86 282.24
  Q 333.98 285.57 334.41 288.73
  Q 334.86 291.98 335.42 295.21
  Q 336.25 299.88 336.99 304.57
  C 338.52 314.17 342.15 323.84 345.14 333.09
  Q 346.60 337.60 353.76 352.46
  C 357.62 360.46 362.80 368.58 367.26 376.75
  Q 371.63 384.75 383.11 399.11
  C 385.36 401.93 387.97 405.92 390.67 408.82
  C 408.74 428.19 427.65 446.14 452.63 456.22
  Z
  M 326.63 474.37
  C 327.78 480.36 329.06 486.50 330.08 492.37
  Q 331.96 503.20 333.81 514.03
  Q 337.14 533.44 335.57 553.02
  C 334.74 563.44 333.98 572.54 337.17 582.07
  C 341.11 593.81 352.40 603.45 363.32 608.69
  Q 368.42 611.15 373.49 613.67
  Q 384.74 619.29 397.70 622.30
  A 1.81 1.80 81.9 0 1 398.87 623.18
  Q 399.65 624.54 398.49 625.36
  Q 397.93 625.75 396.93 625.86
  Q 389.36 626.66 381.99 624.74
  Q 359.49 618.88 338.32 609.28
  C 333.87 607.26 328.84 604.34 324.00 602.01
  A 0.79 0.78 -75.3 0 1 323.56 601.24
  Q 324.20 592.46 326.53 583.97
  Q 327.24 581.36 325.29 583.22
  C 316.24 591.82 306.56 596.67 293.80 597.49
  Q 276.74 598.58 260.41 592.21
  A 0.49 0.49 0.0 0 0 259.76 592.80
  C 263.12 604.92 268.13 616.47 272.39 628.33
  Q 274.36 633.81 278.83 643.28
  C 291.58 670.32 309.37 692.48 332.20 711.63
  C 348.99 725.72 363.59 736.85 379.51 749.20
  C 391.26 758.31 403.36 766.90 415.36 775.66
  Q 423.22 781.41 431.67 787.24
  C 446.22 797.28 461.81 808.63 475.59 816.89
  Q 490.34 825.73 512.81 837.68
  Q 518.55 840.73 527.37 842.85
  Q 533.64 844.35 538.22 843.90
  C 547.21 843.01 551.67 837.17 559.11 833.74
  Q 561.69 832.55 563.12 831.37
  Q 569.08 826.43 590.42 807.67
  C 599.04 800.09 610.27 791.22 620.01 782.83
  C 639.45 766.09 660.90 749.15 679.50 728.18
  Q 680.37 727.20 679.24 726.54
  C 669.04 720.62 652.41 711.60 656.29 697.01
  Q 657.82 691.26 660.06 687.82
  C 667.27 676.75 677.46 663.89 684.75 653.59
  Q 697.48 635.61 701.14 629.90
  Q 710.41 615.43 727.03 584.52
  C 730.61 577.86 732.95 572.18 729.23 565.82
  C 725.45 559.39 720.87 555.64 714.45 552.35
  C 706.36 548.20 696.64 547.46 687.83 544.46
  C 667.12 537.38 645.24 528.82 627.22 516.30
  C 612.61 506.14 607.25 495.53 609.56 477.74
  C 610.93 467.16 611.91 456.58 613.22 446.00
  C 615.21 429.96 616.06 409.00 616.60 390.25
  Q 616.93 378.92 616.51 370.26
  Q 614.11 320.92 601.53 273.06
  Q 598.77 262.57 594.77 252.50
  Q 591.55 244.40 583.27 240.47
  Q 573.56 235.86 565.00 233.80
  C 560.50 232.72 554.43 229.73 547.91 227.55
  Q 546.32 227.02 544.92 226.01
  Q 544.71 225.86 544.55 226.05
  L 544.38 226.25
  Q 544.30 226.35 544.39 226.44
  Q 548.23 230.35 551.89 234.39
  C 553.43 236.10 554.63 238.11 556.11 239.99
  Q 558.21 242.63 559.21 244.20
  Q 567.26 256.71 570.78 263.95
  Q 589.39 302.10 586.82 344.59
  C 586.69 346.72 587.14 348.69 586.87 350.84
  C 585.10 365.16 583.26 375.67 579.18 388.35
  C 576.33 397.21 571.88 405.92 567.82 414.58
  Q 563.42 423.98 552.58 437.08
  C 541.54 450.43 521.33 465.23 503.67 468.00
  C 499.85 468.60 495.74 469.60 492.32 469.84
  Q 482.01 470.58 471.76 468.95
  Q 458.20 466.79 445.87 460.81
  Q 442.54 459.20 439.14 457.74
  Q 435.53 456.19 432.61 454.34
  Q 426.15 450.24 419.63 446.23
  Q 418.95 445.80 417.46 446.15
  C 405.72 448.87 395.29 440.23 386.15 434.47
  Q 382.38 432.09 377.45 430.34
  Q 367.07 426.63 356.85 422.49
  C 345.56 417.91 329.96 416.81 320.72 426.50
  C 319.26 428.04 314.67 433.14 315.56 435.46
  Q 322.79 454.44 326.63 474.37
  Z
  M 672.43 289.74
  Q 671.97 289.53 671.56 289.18
  C 659.27 278.47 646.14 265.20 638.01 250.97
  Q 636.48 248.28 634.76 247.06
  Q 632.81 245.68 633.29 248.02
  Q 633.93 251.12 633.70 254.75
  Q 633.46 258.66 634.83 270.62
  C 636.25 282.94 636.43 294.71 637.96 306.70
  C 638.43 310.42 638.08 314.06 638.69 317.78
  C 639.24 321.20 639.28 325.96 639.46 328.09
  Q 640.35 338.41 641.37 348.72
  Q 642.22 357.39 642.79 366.07
  C 643.90 383.10 645.54 399.09 646.95 416.88
  A 0.11 0.11 0.0 0 0 647.14 416.94
  C 649.82 413.81 652.83 410.78 655.34 407.74
  Q 679.79 378.16 686.70 370.97
  Q 702.57 354.46 717.57 337.18
  C 724.94 328.69 733.24 319.84 740.85 310.95
  Q 742.70 308.79 743.54 306.18
  Q 745.04 301.53 746.19 296.78
  C 747.03 293.33 748.30 288.83 752.53 290.91
  C 755.37 292.30 759.43 294.12 763.08 295.32
  Q 782.85 301.81 802.38 308.98
  C 804.58 309.79 806.33 310.89 808.27 312.10
  C 811.24 313.95 814.57 314.50 817.73 316.25
  Q 817.94 316.37 818.17 316.27
  Q 818.62 316.08 818.25 315.76
  Q 802.98 302.93 787.57 290.26
  C 763.63 270.59 740.19 250.20 715.80 231.09
  A 1.32 1.31 -47.8 0 0 714.07 231.18
  C 698.91 245.71 687.07 263.92 676.72 282.02
  Q 674.59 285.73 672.98 289.52
  A 0.42 0.41 22.9 0 1 672.43 289.74
  Z
  M 307.82 417.34
  C 309.28 420.83 311.12 424.13 312.61 427.66
  Q 312.82 428.17 313.16 427.74
  Q 323.39 414.74 339.29 414.07
  C 347.14 413.74 355.82 416.89 363.44 419.82
  Q 371.52 422.93 380.62 426.20
  A 1.27 1.27 0.0 0 0 382.22 425.49
  Q 384.28 420.41 389.69 419.78
  A 0.49 0.48 64.8 0 0 389.98 418.96
  C 365.46 393.23 345.73 361.34 334.54 327.51
  C 331.59 318.59 329.71 309.34 327.72 300.09
  C 326.64 295.12 326.44 290.51 326.16 285.47
  A 1.12 1.12 0.0 0 0 324.54 284.53
  Q 316.65 288.44 308.08 291.46
  C 302.42 293.44 296.13 294.68 290.06 296.02
  C 278.95 298.49 267.53 300.19 256.24 302.03
  C 247.09 303.53 240.06 304.00 231.75 302.91
  A 1.15 1.14 10.2 0 0 230.48 303.79
  C 227.84 315.56 224.90 325.35 227.51 338.54
  C 229.21 347.12 228.23 353.42 236.22 358.22
  Q 238.16 359.39 242.10 359.95
  Q 253.15 361.54 262.51 367.52
  C 267.69 370.82 270.68 372.51 274.06 375.95
  Q 277.15 379.09 279.25 380.74
  C 288.10 387.70 295.84 397.42 301.78 407.22
  C 303.31 409.72 306.24 413.58 307.82 417.34
  Z
  M 202.11 347.35
  C 192.73 342.92 184.94 331.93 180.76 322.78
  Q 176.90 314.30 174.94 305.92
  Q 174.18 302.67 173.55 305.95
  Q 173.54 306.03 172.79 307.42
  Q 168.24 315.89 165.15 324.99
  C 162.09 334.01 164.25 343.37 168.74 351.57
  Q 168.99 352.01 168.98 352.52
  L 168.98 352.97
  A 0.68 0.67 76.6 0 0 169.96 353.58
  C 179.92 348.43 191.34 346.79 202.38 348.18
  Q 203.39 348.30 202.64 347.62
  Q 202.58 347.57 202.11 347.35
  Z
  M 908.36 484.06
  Q 908.56 484.20 908.77 484.14
  Q 909.50 483.93 908.85 483.56
  Q 906.73 482.33 907.62 479.92
  Q 907.81 479.40 907.49 478.95
  C 906.62 477.73 906.13 476.88 905.81 475.37
  Q 900.52 450.38 898.28 442.25
  Q 892.28 420.53 890.44 413.53
  C 890.04 412.02 889.87 410.09 889.21 408.33
  C 887.57 403.92 886.63 398.71 885.48 394.90
  Q 882.55 385.21 879.90 375.43
  C 878.88 371.64 877.22 367.60 876.07 363.62
  A 2.29 2.27 89.9 0 0 874.52 362.06
  C 867.11 359.92 859.54 357.16 852.43 355.11
  Q 843.82 352.63 835.27 349.94
  C 822.51 345.93 809.39 342.35 796.55 338.15
  C 788.15 335.40 778.26 333.11 769.24 329.99
  Q 768.00 329.57 766.23 329.85
  Q 765.77 329.92 765.60 330.37
  L 735.28 409.70
  Q 734.26 412.36 735.90 410.03
  Q 747.23 393.91 760.30 377.03
  C 762.22 374.54 763.88 373.72 767.16 374.44
  Q 785.67 378.48 803.59 384.62
  C 807.62 386.01 812.23 387.07 816.49 388.53
  C 829.13 392.83 842.46 395.15 854.79 400.23
  A 4.54 4.53 86.5 0 1 857.01 402.20
  L 908.52 494.03
  A 1.18 1.18 0.0 0 0 910.72 493.55
  Q 910.80 492.58 910.18 491.90
  A 0.86 0.84 33.6 0 1 910.00 491.04
  L 910.52 489.56
  Q 910.69 489.09 910.36 488.73
  Q 908.19 486.29 907.62 485.39
  Q 907.16 484.65 907.89 484.08
  A 0.40 0.40 0.0 0 1 908.36 484.06
  Z
  M 331.27 540.85
  C 331.41 537.66 332.30 533.30 331.96 530.00
  Q 330.91 519.80 327.93 501.45
  C 327.66 499.78 326.74 497.52 327.06 495.22
  A 0.43 0.42 -80.9 0 0 326.72 494.74
  L 326.45 494.70
  Q 325.82 494.58 325.66 495.20
  C 324.70 498.76 320.08 503.43 317.16 505.96
  Q 304.37 517.03 287.34 514.81
  A 0.62 0.62 0.0 0 0 286.65 515.28
  Q 285.37 520.41 284.63 525.72
  C 284.39 527.42 283.31 530.54 281.19 530.69
  A 1.05 1.05 0.0 0 1 280.06 529.71
  C 279.69 524.26 280.70 519.91 281.80 514.61
  Q 281.91 514.08 281.42 513.86
  Q 281.09 513.70 280.76 513.66
  C 276.51 513.12 269.97 509.29 266.34 507.08
  A 1.27 1.26 -55.5 0 0 264.69 507.39
  L 255.38 519.52
  A 1.89 1.89 0.0 0 1 252.65 519.80
  L 252.06 519.29
  A 2.64 2.63 41.0 0 1 251.79 515.55
  L 263.39 502.39
  Q 263.76 501.97 264.32 502.05
  Q 266.58 502.37 268.27 503.31
  C 284.57 512.35 300.28 514.77 315.17 501.19
  Q 315.91 500.51 315.13 499.88
  C 310.77 496.37 307.83 488.58 306.22 483.39
  A 1.29 1.28 64.8 0 1 306.74 481.93
  C 314.17 476.96 313.03 470.24 307.12 464.71
  A 0.89 0.87 -58.7 0 1 306.90 463.78
  Q 309.43 456.62 314.91 451.39
  Q 315.33 450.99 315.26 450.40
  C 314.93 447.45 312.27 443.76 309.84 442.26
  C 303.11 438.14 296.13 432.56 290.10 429.31
  Q 278.53 423.09 265.57 420.29
  Q 263.29 419.80 261.50 420.64
  C 252.37 424.90 250.48 439.49 251.01 448.24
  Q 252.09 466.34 258.55 483.16
  Q 260.25 487.59 260.75 490.19
  C 261.37 493.38 264.38 502.85 257.18 500.86
  Q 241.72 496.61 228.45 486.86
  Q 226.59 485.50 227.62 483.44
  L 227.87 482.95
  A 1.81 1.80 -63.0 0 1 230.32 482.15
  C 236.60 485.41 242.51 490.91 249.18 484.52
  Q 249.93 483.80 249.70 482.74
  Q 248.24 475.94 244.52 463.00
  Q 241.55 452.67 240.22 435.48
  C 238.09 407.81 266.76 413.81 282.26 420.11
  C 290.17 423.32 299.25 428.91 305.79 434.25
  Q 305.93 434.35 306.04 434.35
  Q 306.22 434.35 306.32 434.21
  Q 306.48 433.96 306.31 433.70
  C 292.94 413.76 279.36 396.95 261.12 381.65
  Q 248.18 370.79 239.19 366.34
  C 232.88 363.22 225.31 366.39 222.85 372.83
  Q 220.61 378.65 219.81 385.73
  Q 217.94 402.14 217.28 418.63
  C 217.20 420.71 217.17 428.45 213.72 427.91
  C 210.33 427.39 211.28 419.59 211.51 417.09
  C 212.78 403.61 213.23 390.64 215.95 377.27
  C 217.44 369.96 220.49 363.54 228.04 361.31
  Q 228.70 361.12 228.08 360.82
  Q 219.31 356.66 208.75 354.26
  C 189.66 349.91 168.55 354.81 157.30 371.81
  Q 150.37 382.28 148.66 390.25
  C 145.89 403.15 145.77 415.05 146.89 427.92
  C 147.32 432.89 148.44 438.03 149.40 443.10
  C 152.39 458.80 157.72 472.61 164.28 486.73
  C 167.92 494.59 172.76 502.50 177.11 510.39
  Q 181.26 517.90 191.60 531.30
  C 198.45 540.18 205.88 547.98 213.80 555.71
  Q 228.80 570.35 247.14 580.46
  Q 253.10 583.75 262.74 587.53
  Q 277.55 593.33 292.75 592.62
  C 308.20 591.90 327.68 581.17 329.49 563.99
  Q 330.82 551.42 331.27 540.85
  Z
  M 307.86 426.69
  Q 308.11 427.09 308.53 426.91
  Q 309.00 426.72 308.85 426.27
  C 307.54 422.46 304.79 419.10 303.24 416.18
  C 296.18 402.89 286.82 392.27 275.75 381.99
  C 273.50 379.90 270.64 378.84 268.05 377.00
  C 263.59 373.82 259.78 371.89 255.53 369.29
  Q 254.97 368.95 254.01 369.00
  Q 253.35 369.04 253.88 369.44
  Q 271.25 382.53 278.53 390.21
  C 289.23 401.51 299.63 413.47 307.86 426.69
  Z
  M 1059.94 870.22
  C 1048.65 859.65 1035.91 850.62 1024.15 840.59
  Q 972.29 796.34 921.37 751.02
  Q 913.58 744.08 906.76 737.35
  C 898.73 729.43 890.36 721.66 882.84 713.24
  Q 881.71 711.98 880.42 713.08
  C 854.73 735.02 829.82 757.53 804.19 779.37
  Q 797.83 784.78 789.19 792.60
  C 779.25 801.59 767.23 811.70 758.91 819.02
  C 706.91 864.72 654.45 909.89 602.37 955.49
  C 599.49 958.01 596.43 959.44 593.05 961.25
  A 1.23 1.23 0.0 0 0 593.17 963.48
  C 593.99 963.82 595.55 963.63 596.60 964.00
  C 618.31 971.80 639.99 979.76 661.41 988.33
  C 672.94 992.94 687.40 998.24 699.00 1003.46
  Q 706.51 1006.84 712.51 1008.98
  C 714.78 1009.79 717.15 1011.19 719.69 1011.96
  Q 722.40 1012.78 724.30 1013.96
  C 729.72 1017.32 737.16 1020.06 741.32 1021.98
  Q 749.17 1025.59 757.09 1029.06
  C 766.31 1033.10 775.25 1037.03 784.26 1041.56
  C 799.31 1049.11 814.42 1056.49 829.20 1064.57
  C 831.02 1065.57 833.83 1066.22 835.69 1067.96
  Q 836.79 1068.99 836.55 1067.50
  C 833.41 1048.28 834.76 1027.00 837.60 1007.74
  C 839.91 992.07 843.03 976.53 845.96 960.97
  C 848.32 948.43 852.39 935.70 857.41 923.79
  C 866.30 902.67 874.67 881.60 885.80 861.51
  C 887.86 857.81 889.47 854.08 891.75 850.38
  Q 893.78 847.07 896.82 841.57
  Q 902.72 830.90 916.24 812.47
  C 921.05 805.92 926.21 800.07 933.54 796.68
  C 935.01 796.00 935.61 796.31 936.72 797.30
  Q 945.34 804.98 949.52 809.47
  Q 957.12 817.63 964.62 825.88
  C 972.00 834.01 980.68 846.24 988.81 856.37
  Q 1002.38 873.29 1015.02 890.81
  A 1.34 1.33 -24.3 0 0 1016.42 891.33
  C 1019.42 890.63 1022.56 889.49 1025.40 888.90
  Q 1035.39 886.84 1045.45 885.09
  C 1049.04 884.46 1052.93 884.14 1056.70 883.63
  Q 1060.48 883.12 1063.84 883.13
  C 1066.21 883.14 1071.67 883.78 1073.55 882.33
  A 0.48 0.47 46.8 0 0 1073.57 881.60
  Q 1067.54 876.28 1061.42 871.07
  Q 1061.13 870.82 1060.77 870.71
  Q 1060.30 870.56 1059.94 870.22
  Z
  M 713.76 845.71
  Q 714.76 845.71 714.88 846.44
  Q 714.93 846.73 714.69 846.89
  Q 714.54 846.98 714.46 847.09
  Q 714.17 847.51 714.66 847.65
  Q 715.60 847.92 715.68 847.26
  Q 715.76 846.71 716.26 846.48
  Q 717.88 845.74 719.08 844.44
  Q 719.44 844.05 719.95 843.89
  Q 721.69 843.35 722.33 841.58
  A 1.23 1.20 85.2 0 1 722.85 840.95
  Q 724.17 840.17 725.25 839.28
  Q 725.63 838.97 725.90 838.56
  Q 726.61 837.50 727.98 837.41
  Q 728.44 837.38 728.66 836.98
  Q 729.75 835.01 731.68 833.80
  Q 731.89 833.67 732.13 833.66
  Q 732.37 833.64 732.60 833.62
  Q 733.04 833.59 733.23 833.20
  L 734.15 831.25
  Q 734.35 830.84 734.81 830.89
  Q 736.12 831.05 736.25 829.63
  A 1.14 1.11 74.2 0 1 736.66 828.87
  Q 737.27 828.38 737.98 828.12
  Q 738.46 827.95 738.85 827.62
  Q 741.36 825.57 743.48 823.10
  A 2.42 0.26 -34.6 0 1 744.48 822.24
  Q 745.12 821.74 745.87 821.59
  A 1.21 1.20 -75.3 0 0 746.58 821.17
  C 747.98 819.40 750.34 818.93 751.21 816.56
  Q 751.39 816.09 751.87 815.97
  Q 753.01 815.68 753.22 814.52
  A 0.47 0.47 0.0 0 1 753.71 814.13
  Q 753.98 814.14 754.24 814.08
  Q 754.70 813.97 755.06 813.68
  L 758.77 810.68
  Q 759.08 810.43 759.09 810.03
  Q 759.10 809.63 759.37 809.37
  A 1.71 0.66 -52.7 0 1 760.23 808.84
  Q 762.37 808.45 763.30 806.60
  Q 763.41 806.38 763.66 806.38
  Q 763.82 806.38 764.02 806.37
  Q 764.56 806.34 764.87 805.89
  Q 765.74 804.65 767.05 804.02
  Q 767.47 803.82 767.67 803.41
  C 769.11 800.54 771.83 800.83 773.31 797.98
  Q 773.74 797.15 774.79 797.07
  Q 775.23 797.03 775.54 796.72
  L 778.59 793.57
  Q 778.96 793.20 779.38 792.90
  L 780.23 792.31
  Q 780.57 792.07 780.72 791.68
  Q 780.97 791.03 781.66 790.70
  Q 782.02 790.52 782.30 790.24
  L 785.77 786.84
  Q 786.35 786.28 785.61 785.96
  Q 784.96 785.68 785.11 784.93
  A 0.45 0.44 -84.9 0 0 784.66 784.39
  Q 783.62 784.42 783.19 783.72
  L 805.31 765.01
  Q 805.66 764.72 805.24 764.54
  C 803.61 763.87 801.31 763.95 800.10 763.70
  Q 783.74 760.37 767.72 755.72
  C 762.96 754.34 757.62 753.22 752.59 751.75
  C 744.81 749.47 737.81 748.28 730.29 746.64
  C 728.25 746.19 726.35 745.12 724.28 744.46
  Q 708.40 739.41 692.95 733.17
  Q 688.59 731.40 684.43 728.97
  A 0.61 0.60 -57.4 0 0 683.63 729.15
  Q 679.68 734.87 674.65 739.94
  C 672.33 742.29 670.56 748.25 669.43 750.73
  Q 665.18 760.03 660.88 769.31
  C 658.20 775.11 654.56 782.09 651.60 788.57
  C 646.59 799.52 642.49 807.79 637.96 817.41
  A 1.13 1.13 0.0 0 0 638.13 818.64
  C 643.12 824.40 648.27 830.10 653.28 835.89
  Q 656.89 840.06 664.23 847.78
  C 669.19 853.00 676.34 863.01 683.98 870.54
  A 1.18 1.17 46.7 0 0 685.58 870.59
  L 713.76 845.71
  Z
  M 828.5679 749.3073
  A 1.23 0.21 134.5 0 0 829.5798 748.5772
  A 1.23 0.21 134.5 0 0 830.2921 747.5527
  A 1.23 0.21 134.5 0 0 829.2802 748.2828
  A 1.23 0.21 134.5 0 0 828.5679 749.3073
  Z
  M 665.13 749.16
  Q 665.15 748.88 664.91 748.65
  Q 664.51 748.26 664.42 748.81
  Q 664.27 749.64 664.49 750.44
  A 0.40 0.40 0.0 0 0 665.21 750.55
  Q 665.58 749.99 665.20 749.43
  Q 665.13 749.31 665.13 749.16
  Z
  M 820.0537 755.5810
  A 0.26 0.26 0.0 0 0 819.6889 755.5349
  L 812.7988 760.8794
  A 0.26 0.26 0.0 0 0 812.7527 761.2442
  L 812.8263 761.3390
  A 0.26 0.26 0.0 0 0 813.1911 761.3851
  L 820.0812 756.0406
  A 0.26 0.26 0.0 0 0 820.1273 755.6758
  L 820.0537 755.5810
  Z
  M 679.8773 878.2143
  A 1.04 0.44 -20.0 0 0 678.7495 878.1565
  A 1.04 0.44 -20.0 0 0 677.9227 878.9257
  A 1.04 0.44 -20.0 0 0 679.0505 878.9835
  A 1.04 0.44 -20.0 0 0 679.8773 878.2143
  Z
  M 577.06 1057.40
  Q 576.68 1057.51 577.33 1058.10
  A 0.40 0.39 45.6 0 0 577.85 1058.11
  L 580.26 1056.07
  A 0.43 0.43 0.0 0 0 579.77 1055.37
  Q 578.43 1056.14 577.32 1057.25
  Q 577.21 1057.36 577.06 1057.40
  Z
  M 732.1598 1113.0151
  A 1.31 0.29 1.1 0 0 730.8556 1112.7001
  A 1.31 0.29 1.1 0 0 729.5402 1112.9649
  A 1.31 0.29 1.1 0 0 730.8444 1113.2799
  A 1.31 0.29 1.1 0 0 732.1598 1113.0151
  Z
  M 878.14 1148.09
  Q 878.10 1148.10 878.06 1148.11
  Q 877.98 1148.13 878.00 1148.13
  Q 879.30 1148.29 880.01 1147.14
  Q 880.36 1146.58 879.79 1146.91
  Q 879.03 1147.35 878.37 1147.93
  Q 878.20 1148.07 878.14 1148.09
  Z
  M 1135.5110 1232.6554
  A 0.80 0.67 28.8 0 0 1135.1328 1231.6829
  A 0.80 0.67 28.8 0 0 1134.1090 1231.8846
  A 0.80 0.67 28.8 0 0 1134.4872 1232.8571
  A 0.80 0.67 28.8 0 0 1135.5110 1232.6554
  Z"
/>
<path fill="#ffc4ff" d="
  M 360.77 65.98
  Q 361.32 65.88 361.55 66.24
  A 0.59 0.58 -39.8 0 1 361.48 66.97
  Q 359.73 68.71 357.56 68.03
  Q 357.09 67.89 356.65 68.12
  Q 350.80 71.22 344.22 71.93
  Q 340.26 72.18 339.00 72.18
  Q 241.50 72.16 144.01 72.20
  Q 130.75 72.20 124.09 73.46
  C 94.85 78.94 71.79 102.05 66.44 131.33
  Q 65.24 137.90 65.24 151.25
  Q 65.22 363.22 65.23 574.03
  A 10.22 10.16 33.7 0 0 66.04 578.01
  L 78.34 606.92
  A 1.27 1.25 -3.0 0 0 79.13 607.62
  L 121.96 620.10
  Q 122.52 620.26 121.98 620.49
  L 80.95 637.93
  A 1.27 1.25 87.1 0 0 80.23 638.74
  L 67.76 681.54
  A 0.29 0.29 0.0 0 1 67.20 681.54
  Q 66.85 680.31 66.34 679.10
  Q 65.23 676.47 65.23 679.32
  L 65.23 1172.43
  Q 65.23 1173.00 65.75 1172.78
  L 77.54 1167.74
  A 2.02 2.01 86.8 0 0 78.68 1166.46
  L 87.59 1135.76
  Q 87.78 1135.10 88.05 1135.74
  L 100.69 1165.51
  A 1.27 1.25 -2.9 0 0 101.50 1166.23
  L 132.72 1175.30
  Q 133.20 1175.44 132.74 1175.64
  L 102.86 1188.36
  A 1.36 1.35 86.8 0 0 102.08 1189.24
  L 93.00 1220.46
  Q 92.88 1220.89 92.70 1220.48
  L 79.92 1190.37
  Q 79.73 1189.93 79.28 1189.80
  L 65.73 1185.85
  Q 65.25 1185.71 65.25 1186.22
  L 65.24 1307.64
  Q 63.82 1309.33 60.58 1310.45
  Q 60.22 1310.57 59.90 1310.36
  L 59.65 1310.18
  L 59.76 1184.50
  A 0.56 0.55 -82.6 0 0 59.35 1183.96
  L 48.27 1180.84
  Q 47.34 1180.57 48.23 1180.19
  L 59.45 1175.46
  A 0.50 0.49 -12.0 0 0 59.75 1175.01
  L 59.75 665.72
  A 10.13 10.06 33.6 0 0 58.94 661.76
  L 49.79 640.25
  A 0.48 0.48 0.0 0 0 49.47 639.97
  L 39.85 637.45
  L 34.52 635.85
  L 5.76 627.32
  Q 5.50 627.25 5.75 627.14
  L 34.54 614.55
  L 39.84 612.37
  L 47.50 609.35
  Q 47.88 609.19 48.00 608.79
  L 59.00 571.02
  A 18.49 18.44 53.3 0 0 59.75 565.81
  Q 59.75 358.78 59.75 150.26
  Q 59.75 136.61 60.83 130.32
  C 66.15 99.24 91.03 74.12 121.83 68.08
  Q 128.69 66.74 141.75 66.74
  Q 245.75 66.74 349.75 66.72
  Q 355.32 66.72 360.77 65.98
  Z"
/>
<path fill="#ffc4ff" d="
  M 677.71 66.50
  Q 678.04 66.48 678.29 66.60
  Q 678.58 66.74 678.89 66.74
  L 1350.56 66.43
  Q 1350.70 68.61 1349.76 71.10
  C 1349.52 71.74 1349.01 71.98 1348.42 72.18
  L 688.47 72.18
  Q 682.87 70.64 677.56 67.53
  Q 677.04 67.23 677.45 66.78
  L 677.71 66.50
  Z"
/>
<path fill="#ffc4ff" d="
  M 1369.95 66.65
  Q 1391.39 67.08 1409.62 78.34
  L 1411.70 87.02
  Q 1394.69 74.06 1372.64 72.39
  Q 1369.86 70.00 1369.95 66.65
  Z"
/>
<path fill="#000000" d="
  M 38.34 74.49
  L 41.97 82.52
  Q 39.84 91.16 39.84 99.00
  Q 39.84 355.64 39.84 612.37
  L 34.54 614.55
  Q 34.35 211.01 34.59 94.25
  Q 34.61 85.15 38.34 74.49
  Z"
/>
<path fill="#ffc4ff" d="
  M 1416.88 83.54
  C 1431.61 96.64 1441.71 111.66 1444.73 131.43
  Q 1445.63 137.35 1445.63 151.37
  Q 1445.62 747.50 1445.63 1343.62
  Q 1445.63 1357.46 1444.69 1363.57
  C 1439.49 1397.32 1411.53 1424.30 1377.48 1427.99
  Q 1373.04 1428.47 1357.50 1428.47
  Q 750.00 1428.47 142.51 1428.46
  Q 129.24 1428.46 122.59 1427.23
  C 98.80 1422.81 77.73 1406.79 67.17 1384.66
  L 77.34 1390.83
  Q 95.09 1416.19 124.33 1421.71
  Q 131.11 1422.99 144.26 1422.99
  Q 752.63 1423.01 1361.00 1422.99
  Q 1374.30 1422.99 1380.92 1421.79
  C 1416.24 1415.35 1440.22 1384.92 1440.22 1349.00
  Q 1440.21 746.37 1440.21 143.75
  Q 1440.21 119.50 1423.98 98.78
  Q 1423.46 97.81 1422.41 97.06
  L 1418.09 92.45
  L 1416.88 83.54
  Z"
/>
<path fill="#000000" d="
  M 891.19 150.71
  L 910.33 156.26
  A 0.34 0.34 0.0 0 1 910.37 156.90
  L 892.02 164.68
  A 0.34 0.34 0.0 0 0 891.83 164.89
  L 886.28 184.03
  A 0.34 0.34 0.0 0 1 885.64 184.07
  L 877.86 165.72
  A 0.34 0.34 0.0 0 0 877.65 165.53
  L 858.51 159.98
  A 0.34 0.34 0.0 0 1 858.47 159.34
  L 876.82 151.56
  A 0.34 0.34 0.0 0 0 877.01 151.35
  L 882.56 132.21
  A 0.34 0.34 0.0 0 1 883.20 132.17
  L 890.98 150.52
  A 0.34 0.34 0.0 0 0 891.19 150.71
  Z"
/>
<path fill="#ffc4ff" d="
  M 1132.99 172.45
  L 1164.38 181.54
  A 0.32 0.32 0.0 0 1 1164.41 182.14
  L 1134.33 194.88
  A 0.32 0.32 0.0 0 0 1134.14 195.08
  L 1125.05 226.47
  A 0.32 0.32 0.0 0 1 1124.45 226.50
  L 1111.71 196.42
  A 0.32 0.32 0.0 0 0 1111.51 196.23
  L 1080.12 187.14
  A 0.32 0.32 0.0 0 1 1080.09 186.54
  L 1110.17 173.80
  A 0.32 0.32 0.0 0 0 1110.36 173.60
  L 1119.45 142.21
  A 0.32 0.32 0.0 0 1 1120.05 142.18
  L 1132.79 172.26
  A 0.32 0.32 0.0 0 0 1132.99 172.45
  Z"
/>
<path fill="#000000" d="
  M 489.13 210.36
  A 0.61 0.61 0.0 0 1 489.36 211.18
  Q 488.47 212.88 486.25 213.06
  C 474.64 214.00 463.13 214.38 451.50 214.86
  Q 429.81 215.74 408.39 219.19
  C 398.94 220.71 386.40 225.29 380.28 233.27
  C 372.03 244.03 367.30 257.79 363.18 270.54
  Q 361.95 274.35 360.88 278.19
  Q 360.30 280.24 358.69 280.32
  A 1.86 1.86 0.0 0 1 356.74 278.64
  Q 356.52 276.43 357.02 274.23
  C 359.67 262.71 364.57 250.88 369.62 240.19
  C 377.59 223.29 393.48 216.36 411.04 213.72
  C 424.38 211.71 437.59 211.05 451.03 210.26
  Q 468.50 209.23 486.00 209.33
  Q 487.42 209.34 489.13 210.36
  Z"
/>
<path fill="#000000" d="
  M 461.87 276.37
  Q 457.68 277.07 453.47 277.66
  C 450.56 278.08 447.68 279.08 444.76 279.76
  C 428.74 283.50 416.06 296.53 411.02 311.99
  C 408.24 320.55 408.92 330.43 411.76 338.80
  Q 412.07 339.72 411.93 340.23
  Q 411.68 341.15 410.48 341.25
  A 1.81 1.80 -19.1 0 1 408.82 340.45
  C 406.10 336.42 405.75 333.46 405.08 327.99
  Q 403.66 316.32 404.79 304.59
  C 405.13 301.01 405.02 296.31 406.64 292.23
  C 416.32 267.82 448.60 266.71 468.43 265.91
  C 483.02 265.32 497.73 268.14 512.00 272.73
  Q 513.43 273.19 514.57 271.82
  C 518.33 267.30 520.86 261.08 525.59 257.72
  Q 525.95 257.46 526.38 257.59
  Q 529.71 258.57 528.71 261.74
  Q 525.63 271.44 519.54 281.26
  C 517.30 284.89 515.81 282.12 512.96 282.27
  Q 510.15 282.41 506.26 280.97
  Q 501.45 279.17 485.23 276.86
  Q 471.08 274.85 461.87 276.37
  Z"
/>
<ellipse fill="#000000" cx="0.00" cy="0.00" transform="translate(393.86,288.76) rotate(96.8)" rx="18.61" ry="2.09"/>
<path fill="#000000" d="
  M 1183.42 305.93
  L 1202.48 311.46
  A 0.35 0.35 0.0 0 1 1202.52 312.11
  L 1184.25 319.85
  A 0.35 0.35 0.0 0 0 1184.05 320.08
  L 1178.52 339.14
  A 0.35 0.35 0.0 0 1 1177.87 339.18
  L 1170.13 320.91
  A 0.35 0.35 0.0 0 0 1169.90 320.71
  L 1150.84 315.18
  A 0.35 0.35 0.0 0 1 1150.80 314.53
  L 1169.07 306.79
  A 0.35 0.35 0.0 0 0 1169.27 306.56
  L 1174.80 287.50
  A 0.35 0.35 0.0 0 1 1175.45 287.46
  L 1183.19 305.73
  A 0.35 0.35 0.0 0 0 1183.42 305.93
  Z"
/>
<path fill="#000000" d="
  M 523.22 331.56
  Q 529.21 332.34 530.91 333.07
  C 534.08 334.43 533.85 338.58 530.25 338.55
  C 527.13 338.52 523.62 336.79 520.73 336.07
  A 0.63 0.62 23.1 0 0 520.05 336.34
  C 512.28 348.97 499.96 363.91 484.51 366.54
  C 479.30 367.43 472.63 368.32 467.15 367.75
  C 453.61 366.35 440.77 359.26 431.16 349.84
  Q 430.14 348.84 430.51 347.57
  A 1.20 1.20 0.0 0 1 432.31 346.90
  C 438.60 350.95 445.23 356.35 451.34 359.03
  C 464.16 364.65 478.56 365.01 491.85 359.52
  Q 492.50 359.25 492.14 358.64
  Q 486.56 349.26 485.04 338.44
  Q 484.95 337.81 485.57 337.70
  C 492.47 336.45 496.26 329.90 494.23 323.21
  C 493.74 321.59 492.61 320.11 491.63 318.57
  Q 491.37 318.14 491.68 317.75
  C 499.55 307.83 509.98 302.28 522.25 305.20
  C 527.86 306.53 532.81 306.61 538.31 307.20
  C 541.33 307.52 544.05 306.94 547.13 307.82
  A 1.91 1.90 15.8 0 1 548.45 310.17
  C 547.26 314.35 539.95 312.99 536.30 312.03
  C 533.62 311.33 531.47 311.07 528.96 310.93
  A 0.91 0.91 0.0 0 0 528.01 311.69
  C 527.15 316.92 526.28 322.21 524.30 327.08
  Q 523.54 328.97 522.83 330.91
  Q 522.62 331.48 523.22 331.56
  Z"
/>
<path fill="#000000" d="
  M 231.16 428.86
  Q 231.26 427.81 231.61 427.37
  Q 232.86 425.80 232.93 427.76
  L 234.01 456.18
  A 0.71 0.70 77.4 0 1 233.59 456.86
  Q 233.05 457.09 232.47 456.96
  A 1.13 1.10 82.8 0 1 231.68 456.33
  C 228.66 449.80 228.85 437.43 230.90 430.37
  Q 231.08 429.74 231.16 428.86
  Z"
/>
<path fill="#000000" d="
  M 410.51 584.70
  Q 409.46 584.93 410.11 585.79
  Q 413.63 590.37 418.73 593.20
  A 2.58 2.58 0.0 0 1 420.05 595.58
  L 419.84 599.72
  A 0.91 0.90 87.7 0 1 419.06 600.57
  C 415.09 601.09 404.14 593.24 400.70 590.78
  C 397.49 588.49 396.35 585.33 399.85 582.56
  C 401.92 580.92 408.90 579.67 412.57 579.20
  C 424.98 577.62 436.94 576.17 449.50 576.08
  A 1.78 1.78 0.0 0 1 451.16 577.18
  C 451.69 578.46 450.60 579.36 449.40 579.63
  C 436.53 582.50 423.38 581.91 410.51 584.70
  Z"
/>
<path fill="#000000" d="
  M 541.01 660.40
  L 537.82 660.04
  Q 537.30 659.98 537.31 659.46
  Q 537.33 657.93 536.56 656.88
  L 537.49 643.59
  A 1.64 1.63 -80.5 0 0 536.29 641.90
  L 525.83 639.06
  L 525.03 638.76
  Q 524.47 638.54 524.97 638.21
  Q 525.66 637.73 525.36 636.75
  Q 525.21 636.28 524.75 636.11
  Q 523.94 635.82 524.21 634.83
  Q 532.96 632.27 541.80 630.00
  C 546.83 628.70 552.49 626.13 558.19 624.94
  Q 559.96 624.56 561.50 621.97
  Q 567.67 611.63 574.26 601.55
  C 577.51 596.56 579.84 591.94 582.29 586.78
  A 0.63 0.62 -79.6 0 0 581.68 585.89
  L 577.60 586.17
  A 2.34 2.34 0.0 0 1 575.30 584.78
  L 575.17 584.49
  A 1.33 1.32 69.8 0 1 576.00 582.69
  Q 585.62 579.81 594.21 577.31
  Q 596.51 576.64 597.72 578.43
  A 2.18 2.17 -32.4 0 1 597.02 581.53
  Q 593.39 583.64 588.78 584.52
  Q 587.68 584.73 586.98 586.37
  C 584.16 592.96 579.01 600.46 576.47 604.83
  Q 559.89 633.34 541.01 660.40
  Z"
/>
<path fill="#000000" fill-opacity="0.765" d="
  M 414.68 670.27
  C 410.81 666.17 406.79 660.51 405.23 655.49
  C 402.11 645.47 419.79 635.61 426.78 632.57
  Q 432.86 629.92 442.50 627.72
  Q 443.48 627.49 446.06 625.78
  C 455.07 619.80 464.38 614.96 474.87 612.17
  A 0.86 0.86 0.0 0 1 475.90 613.29
  Q 475.55 614.29 474.39 614.90
  Q 465.38 619.62 456.41 624.40
  C 453.72 625.83 451.04 627.89 448.27 629.51
  C 444.24 631.85 439.46 632.54 434.87 633.87
  C 425.49 636.58 417.67 641.07 411.15 648.41
  C 409.31 650.49 408.44 652.45 409.46 655.28
  C 411.06 659.75 414.03 663.88 416.76 667.64
  A 1.87 1.86 -38.5 0 1 416.47 670.14
  L 416.22 670.35
  A 1.12 1.12 0.0 0 1 414.68 670.27
  Z"
/>
<path fill="#000000" fill-opacity="0.765" d="
  M 524.21 634.83
  Q 523.94 635.82 524.75 636.11
  Q 525.21 636.28 525.36 636.75
  Q 525.66 637.73 524.97 638.21
  Q 524.47 638.54 525.03 638.76
  L 525.83 639.06
  L 507.79 644.32
  A 0.65 0.65 0.0 0 0 507.53 645.42
  C 512.94 650.43 518.32 655.20 523.29 660.67
  Q 526.49 664.19 530.23 667.23
  Q 530.59 667.52 530.94 667.21
  Q 532.35 665.94 533.20 664.24
  A 2.16 2.16 0.0 0 1 533.71 663.58
  Q 536.57 661.17 536.56 656.88
  Q 537.33 657.93 537.31 659.46
  Q 537.30 659.98 537.82 660.04
  L 541.01 660.40
  C 534.79 670.64 527.06 680.23 519.61 689.61
  Q 513.87 696.83 507.21 703.21
  Q 506.03 704.34 504.77 703.80
  A 1.28 1.27 -58.2 0 1 504.31 701.81
  Q 516.56 687.35 527.66 671.98
  A 1.39 1.38 39.5 0 0 527.48 670.15
  L 502.47 646.70
  A 1.51 1.50 -31.4 0 0 501.00 646.35
  L 482.02 652.13
  A 0.67 0.67 0.0 0 0 481.76 653.26
  L 503.66 673.89
  Q 505.10 675.25 504.06 676.94
  L 503.84 677.31
  A 1.28 1.27 -53.3 0 1 501.91 677.60
  L 476.50 655.07
  A 1.68 1.66 -31.7 0 0 474.93 654.71
  L 456.91 659.87
  A 0.93 0.93 0.0 0 1 455.81 659.37
  L 455.59 658.93
  Q 455.15 658.01 456.08 657.59
  C 465.65 653.28 475.36 650.28 485.24 646.86
  Q 504.52 640.19 524.21 634.83
  Z"
/>
<path fill="#000000" d="
  M 403.91 699.37
  A 1.13 1.12 88.4 0 0 404.83 700.25
  L 423.78 703.07
  A 2.72 2.71 -70.9 0 0 426.53 701.73
  C 432.33 691.53 438.29 680.82 445.33 671.21
  Q 445.92 670.42 446.80 670.86
  L 447.09 671.01
  A 0.72 0.72 0.0 0 1 447.41 671.99
  C 444.84 676.88 441.84 681.72 440.47 687.02
  Q 439.13 692.21 439.16 694.25
  C 439.22 698.72 447.04 704.44 450.45 707.34
  Q 452.79 709.33 458.27 709.78
  C 469.10 710.68 479.70 712.59 490.87 711.73
  A 0.57 0.57 0.0 0 1 491.48 712.33
  L 491.46 712.73
  Q 491.42 713.74 490.42 713.84
  Q 486.06 714.27 481.98 714.54
  C 476.19 714.93 470.20 714.43 464.28 714.13
  Q 458.71 713.84 452.26 712.94
  C 446.91 712.19 441.43 711.63 436.28 710.65
  Q 427.57 709.01 418.89 707.18
  C 413.96 706.14 405.94 705.06 399.54 702.80
  Q 398.92 702.58 398.48 703.07
  L 396.54 705.24
  A 1.79 1.78 38.6 0 1 394.18 705.50
  L 393.74 705.19
  A 1.68 1.68 0.0 0 1 393.42 702.75
  C 394.98 700.86 401.33 693.15 404.11 694.90
  Q 405.15 695.55 404.89 696.86
  C 404.70 697.77 403.69 698.33 403.91 699.37
  Z"
/>
<path fill="#ffc4ff" d="
  M 1326.25 714.38
  L 1369.53 726.82
  A 0.31 0.31 0.0 0 1 1369.57 727.41
  L 1328.06 744.89
  A 0.31 0.31 0.0 0 0 1327.88 745.09
  L 1315.44 788.37
  A 0.31 0.31 0.0 0 1 1314.85 788.41
  L 1297.37 746.90
  A 0.31 0.31 0.0 0 0 1297.17 746.72
  L 1253.89 734.28
  A 0.31 0.31 0.0 0 1 1253.85 733.69
  L 1295.36 716.21
  A 0.31 0.31 0.0 0 0 1295.54 716.01
  L 1307.98 672.73
  A 0.31 0.31 0.0 0 1 1308.57 672.69
  L 1326.05 714.20
  A 0.31 0.31 0.0 0 0 1326.25 714.38
  Z"
/>
<path fill="#000000" d="
  M 517.53 746.01
  A 0.34 0.34 0.0 0 1 517.93 746.29
  C 518.20 748.06 517.07 748.50 515.84 749.31
  C 503.97 757.07 481.45 752.27 470.93 743.49
  Q 469.96 742.68 470.59 741.58
  L 470.82 741.17
  A 1.09 1.08 29.8 0 1 472.31 740.77
  Q 484.61 747.87 498.08 748.77
  C 504.35 749.18 510.93 747.37 517.53 746.01
  Z"
/>
<path fill="#000000" fill-opacity="0.765" d="
  M 665.20 749.43
  Q 665.58 749.99 665.21 750.55
  A 0.40 0.40 0.0 0 1 664.49 750.44
  Q 664.27 749.64 664.42 748.81
  Q 664.51 748.26 664.91 748.65
  Q 665.15 748.88 665.13 749.16
  Q 665.13 749.31 665.20 749.43
  Z"
/>
<rect fill="#000000" fill-opacity="0.765" x="-4.62" y="-0.32" transform="translate(816.44,758.46) rotate(-37.8)" width="9.24" height="0.64" rx="0.26"/>
<path fill="#000000" fill-opacity="0.765" d="
  M 783.19 783.72
  Q 783.62 784.42 784.66 784.39
  A 0.45 0.44 -84.9 0 1 785.11 784.93
  Q 784.96 785.68 785.61 785.96
  Q 786.35 786.28 785.77 786.84
  L 782.30 790.24
  Q 782.02 790.52 781.66 790.70
  Q 780.97 791.03 780.72 791.68
  Q 780.57 792.07 780.23 792.31
  L 779.38 792.90
  Q 778.96 793.20 778.59 793.57
  L 775.54 796.72
  Q 775.23 797.03 774.79 797.07
  Q 773.74 797.15 773.31 797.98
  C 771.83 800.83 769.11 800.54 767.67 803.41
  Q 767.47 803.82 767.05 804.02
  Q 765.74 804.65 764.87 805.89
  Q 764.56 806.34 764.02 806.37
  Q 763.82 806.38 763.66 806.38
  Q 763.41 806.38 763.30 806.60
  Q 762.37 808.45 760.23 808.84
  A 1.71 0.66 -52.7 0 0 759.37 809.37
  Q 759.10 809.63 759.09 810.03
  Q 759.08 810.43 758.77 810.68
  L 755.06 813.68
  Q 754.70 813.97 754.24 814.08
  Q 753.98 814.14 753.71 814.13
  A 0.47 0.47 0.0 0 0 753.22 814.52
  Q 753.01 815.68 751.87 815.97
  Q 751.39 816.09 751.21 816.56
  C 750.34 818.93 747.98 819.40 746.58 821.17
  A 1.21 1.20 -75.3 0 1 745.87 821.59
  Q 745.12 821.74 744.48 822.24
  A 2.42 0.26 -34.6 0 0 743.48 823.10
  Q 741.36 825.57 738.85 827.62
  Q 738.46 827.95 737.98 828.12
  Q 737.27 828.38 736.66 828.87
  A 1.14 1.11 74.2 0 0 736.25 829.63
  Q 736.12 831.05 734.81 830.89
  Q 734.35 830.84 734.15 831.25
  L 733.23 833.20
  Q 733.04 833.59 732.60 833.62
  Q 732.37 833.64 732.13 833.66
  Q 731.89 833.67 731.68 833.80
  Q 729.75 835.01 728.66 836.98
  Q 728.44 837.38 727.98 837.41
  Q 726.61 837.50 725.90 838.56
  Q 725.63 838.97 725.25 839.28
  Q 724.17 840.17 722.85 840.95
  A 1.23 1.20 85.2 0 0 722.33 841.58
  Q 721.69 843.35 719.95 843.89
  Q 719.44 844.05 719.08 844.44
  Q 717.88 845.74 716.26 846.48
  Q 715.76 846.71 715.68 847.26
  Q 715.60 847.92 714.66 847.65
  Q 714.17 847.51 714.46 847.09
  Q 714.54 846.98 714.69 846.89
  Q 714.93 846.73 714.88 846.44
  Q 714.76 845.71 713.76 845.71
  C 725.65 835.02 737.01 824.84 749.20 813.38
  C 757.41 805.66 765.99 798.48 774.39 791.01
  Q 778.66 787.21 783.19 783.72
  Z"
/>
<ellipse fill="#000000" fill-opacity="0.765" cx="0.00" cy="0.00" transform="translate(678.90,878.57) rotate(-20.0)" rx="1.04" ry="0.44"/>
<path fill="#000000" fill-opacity="0.765" d="
  M 1010.16 893.07
  Q 1010.52 893.10 1010.78 893.31
  A 0.92 0.92 0.0 0 1 1011.11 894.13
  Q 1010.76 897.02 1013.72 897.08
  Q 1002.98 901.65 991.38 904.80
  A 1.06 1.06 0.0 0 1 990.05 903.88
  L 990.01 903.51
  Q 989.87 901.95 991.29 901.29
  Q 999.21 897.57 1010.01 894.45
  Q 1011.07 894.15 1010.16 893.07
  Z"
/>
<path fill="#000000" d="
  M 960.80 973.40
  C 975.58 977.18 990.29 981.02 1005.31 982.72
  A 1.34 1.34 0.0 0 1 1006.42 984.53
  L 1006.23 985.03
  Q 1005.53 986.88 1003.55 986.79
  Q 994.41 986.39 987.49 984.74
  Q 958.99 977.92 930.39 971.50
  C 927.28 970.80 918.18 968.83 916.22 966.77
  A 1.10 1.10 0.0 0 1 917.03 964.91
  Q 921.46 964.92 926.10 965.77
  Q 943.58 968.98 960.80 973.40
  Z"
/>
<path fill="#000000" d="
  M 1173.81 984.96
  C 1180.21 983.84 1186.57 982.81 1192.96 981.55
  Q 1216.89 976.80 1240.16 969.68
  A 0.66 0.66 0.0 0 1 1241.01 970.37
  L 1240.99 970.71
  Q 1240.90 971.73 1239.94 972.09
  Q 1236.79 973.26 1234.29 974.43
  Q 1218.49 981.81 1202.73 984.71
  C 1198.78 985.44 1194.86 986.61 1191.61 987.11
  C 1182.36 988.56 1173.09 989.46 1163.81 990.70
  C 1160.71 991.11 1157.76 990.91 1154.65 991.00
  Q 1153.22 991.04 1152.79 989.83
  A 1.19 1.19 0.0 0 1 1153.62 988.28
  C 1160.38 986.60 1168.65 985.87 1173.81 984.96
  Z"
/>
<path fill="#000000" d="
  M 163.56 1022.97
  L 195.04 1032.07
  A 0.32 0.32 0.0 0 1 195.07 1032.67
  L 164.89 1045.43
  A 0.32 0.32 0.0 0 0 164.71 1045.64
  L 155.61 1077.12
  A 0.32 0.32 0.0 0 1 155.01 1077.15
  L 142.25 1046.97
  A 0.32 0.32 0.0 0 0 142.04 1046.79
  L 110.56 1037.69
  A 0.32 0.32 0.0 0 1 110.53 1037.09
  L 140.71 1024.33
  A 0.32 0.32 0.0 0 0 140.89 1024.12
  L 149.99 992.64
  A 0.32 0.32 0.0 0 1 150.59 992.61
  L 163.35 1022.79
  A 0.32 0.32 0.0 0 0 163.56 1022.97
  Z"
/>
<path fill="#000000" d="
  M 1178.73 1055.03
  Q 1189.04 1064.91 1202.15 1070.54
  A 0.55 0.55 0.0 0 1 1202.21 1071.53
  L 1201.90 1071.70
  A 2.75 2.74 -52.9 0 1 1199.89 1071.98
  C 1188.87 1069.29 1182.10 1063.65 1174.64 1055.88
  Q 1172.14 1053.27 1169.62 1049.48
  C 1167.61 1046.45 1165.26 1043.45 1163.56 1040.41
  Q 1158.56 1031.43 1154.49 1021.97
  Q 1153.72 1020.19 1153.27 1018.30
  Q 1153.16 1017.81 1153.43 1017.40
  Q 1156.12 1013.40 1160.73 1012.66
  C 1163.77 1012.17 1168.07 1011.50 1171.77 1011.71
  Q 1189.16 1012.68 1206.15 1016.52
  Q 1206.29 1016.55 1210.38 1017.17
  C 1212.48 1017.49 1214.43 1018.47 1216.20 1018.94
  C 1226.30 1021.59 1236.09 1025.21 1245.98 1028.52
  Q 1250.47 1030.02 1254.57 1031.88
  A 2.43 2.42 23.1 0 1 1255.82 1034.98
  C 1255.30 1036.29 1253.96 1036.63 1252.65 1036.11
  Q 1233.39 1028.49 1213.61 1022.90
  A 0.52 0.52 0.0 0 0 1212.96 1023.28
  Q 1211.52 1029.40 1207.42 1034.20
  Q 1207.08 1034.60 1206.56 1034.46
  C 1202.44 1033.34 1187.44 1029.93 1188.99 1038.50
  C 1189.56 1041.67 1195.32 1043.14 1197.95 1043.95
  Q 1198.48 1044.12 1198.07 1044.49
  Q 1191.54 1050.37 1182.99 1052.85
  C 1181.92 1053.17 1179.86 1053.18 1178.75 1054.15
  Q 1178.26 1054.58 1178.73 1055.03
  Z"
/>
<path fill="#000000" d="
  M 955.54 1068.07
  L 964.64 1070.24
  A 0.82 0.82 0.0 0 1 964.50 1071.86
  C 957.61 1072.23 953.03 1069.95 947.03 1067.41
  C 933.82 1061.80 928.07 1049.24 919.66 1038.81
  A 1.58 1.58 0.0 0 1 919.82 1036.64
  Q 923.38 1033.39 926.54 1032.32
  Q 938.62 1028.19 950.70 1024.08
  Q 963.58 1019.71 974.26 1017.22
  Q 978.67 1016.19 993.50 1013.18
  Q 1001.39 1011.58 1017.12 1011.88
  A 1.03 1.02 -0.6 0 1 1018.13 1012.86
  L 1018.14 1013.25
  Q 1018.18 1014.21 1017.23 1014.35
  L 983.15 1019.35
  A 1.55 1.55 0.0 0 0 981.84 1020.74
  C 981.38 1025.53 981.04 1030.42 979.58 1035.19
  A 1.41 1.41 0.0 0 1 978.38 1036.18
  C 974.84 1036.57 967.66 1036.21 965.05 1038.20
  C 961.29 1041.07 963.02 1048.25 968.74 1047.43
  Q 971.74 1047.00 974.56 1046.70
  A 0.48 0.48 0.0 0 1 975.05 1047.38
  C 971.65 1054.77 963.95 1065.98 955.54 1067.76
  Q 954.83 1067.91 955.54 1068.07
  Z"
/>
<path fill="#000000" fill-opacity="0.765" d="
  M 1029.79 1016.72
  C 1029.97 1018.57 1029.51 1021.25 1028.83 1022.95
  C 1025.67 1030.80 1022.19 1038.57 1017.38 1045.38
  C 1008.80 1057.53 998.74 1068.22 983.91 1072.13
  Q 982.80 1072.43 981.82 1071.84
  L 981.58 1071.69
  A 0.71 0.71 0.0 0 1 981.67 1070.43
  Q 997.55 1063.57 1007.46 1051.72
  Q 1016.20 1041.25 1019.33 1035.26
  Q 1023.30 1027.66 1027.41 1017.24
  Q 1027.93 1015.92 1029.23 1016.13
  Q 1029.74 1016.22 1029.79 1016.72
  Z"
/>
<path fill="#000000" fill-opacity="0.765" d="
  M 1031.21 1033.17
  C 1031.85 1031.93 1032.68 1029.53 1033.88 1027.91
  A 0.90 0.89 -65.3 0 1 1034.80 1027.56
  Q 1035.24 1027.66 1035.47 1028.09
  Q 1035.64 1028.41 1035.54 1028.94
  C 1035.30 1030.26 1035.06 1031.67 1034.54 1032.92
  Q 1029.92 1043.96 1025.48 1050.24
  C 1022.76 1054.10 1020.42 1057.80 1017.19 1061.54
  C 1012.59 1066.86 1008.69 1071.36 1002.34 1076.92
  A 0.92 0.92 0.0 0 1 1001.03 1076.82
  L 1000.73 1076.45
  A 0.96 0.96 0.0 0 1 1000.74 1075.20
  C 1007.72 1067.19 1015.00 1059.32 1020.80 1050.40
  C 1024.88 1044.12 1028.24 1038.91 1031.21 1033.17
  Z"
/>
<path fill="#000000" d="
  M 1177.21 1073.04
  Q 1158.15 1054.33 1148.15 1030.17
  Q 1147.69 1029.05 1148.43 1028.08
  L 1148.60 1027.86
  A 0.61 0.60 51.5 0 1 1149.63 1027.98
  C 1153.47 1036.56 1157.66 1043.58 1164.00 1052.92
  C 1166.60 1056.75 1170.14 1060.46 1173.07 1064.44
  Q 1175.09 1067.20 1182.43 1074.51
  Q 1183.24 1075.31 1182.57 1076.23
  L 1182.42 1076.44
  A 0.90 0.89 36.2 0 1 1181.16 1076.63
  Q 1179.98 1075.75 1177.21 1073.04
  Z"
/>
<path fill="#000000" fill-opacity="0.765" d="
  M 1240.21 1065.66
  C 1233.52 1069.45 1227.05 1071.98 1219.50 1072.26
  A 1.45 1.43 70.5 0 1 1218.31 1071.68
  Q 1217.59 1070.72 1218.92 1070.18
  C 1221.27 1069.23 1223.80 1068.89 1225.96 1067.99
  Q 1233.00 1065.06 1235.16 1063.88
  C 1245.65 1058.18 1254.19 1048.29 1260.23 1036.61
  A 1.26 1.25 22.1 0 1 1261.72 1035.99
  L 1262.20 1036.14
  Q 1263.33 1036.49 1262.90 1037.59
  C 1258.31 1049.41 1251.29 1059.36 1240.21 1065.66
  Z"
/>
<path fill="#000000" fill-opacity="0.765" d="
  M 577.32 1057.25
  Q 578.43 1056.14 579.77 1055.37
  A 0.43 0.43 0.0 0 1 580.26 1056.07
  L 577.85 1058.11
  A 0.40 0.39 45.6 0 1 577.33 1058.10
  Q 576.68 1057.51 577.06 1057.40
  Q 577.21 1057.36 577.32 1057.25
  Z"
/>
<path fill="#000000" d="
  M 1092.95 1128.01
  C 1100.96 1138.36 1111.97 1146.13 1120.73 1155.96
  Q 1122.02 1157.41 1120.61 1158.75
  L 1120.05 1159.29
  A 1.86 1.85 -43.2 0 1 1117.40 1159.21
  C 1116.20 1157.94 1115.25 1156.50 1114.10 1155.34
  Q 1107.37 1148.57 1100.25 1142.21
  C 1097.48 1139.74 1094.97 1136.89 1092.33 1134.26
  A 0.79 0.79 0.0 0 0 1091.18 1134.29
  C 1084.12 1142.13 1074.35 1149.61 1066.29 1158.94
  Q 1064.97 1160.47 1063.45 1159.12
  L 1063.10 1158.82
  Q 1061.49 1157.38 1062.98 1155.82
  Q 1072.98 1145.40 1084.14 1135.39
  Q 1087.80 1132.11 1090.43 1128.09
  Q 1090.77 1127.58 1090.29 1127.20
  C 1088.02 1125.40 1084.95 1124.93 1083.08 1124.05
  Q 1078.31 1121.81 1075.88 1119.36
  Q 1070.76 1114.22 1068.76 1113.26
  C 1063.78 1110.88 1060.76 1107.08 1056.85 1103.67
  Q 1053.92 1101.11 1053.17 1098.95
  C 1051.72 1094.79 1053.23 1089.11 1058.26 1088.01
  C 1066.91 1086.11 1075.93 1085.78 1084.76 1085.87
  Q 1099.29 1086.00 1113.81 1086.65
  Q 1119.26 1086.90 1125.74 1088.33
  C 1131.04 1089.50 1131.55 1095.53 1130.09 1099.75
  Q 1129.45 1101.59 1127.30 1103.27
  C 1123.44 1106.29 1120.22 1109.61 1116.14 1112.41
  C 1109.48 1116.97 1105.23 1122.74 1097.02 1125.20
  Q 1094.99 1125.81 1093.03 1127.33
  Q 1092.65 1127.63 1092.95 1128.01
  Z
  M 1057.19 1093.67
  C 1056.46 1096.52 1056.50 1098.31 1059.08 1100.24
  C 1062.71 1102.96 1065.84 1106.14 1069.47 1108.72
  C 1077.22 1114.23 1086.39 1125.78 1097.53 1120.82
  C 1103.85 1118.01 1107.36 1113.51 1112.72 1109.77
  C 1117.04 1106.76 1120.69 1103.43 1125.14 1099.88
  C 1127.62 1097.91 1128.32 1091.87 1123.74 1091.96
  Q 1115.11 1092.12 1106.50 1091.47
  C 1091.08 1090.31 1073.95 1089.64 1058.66 1092.31
  Q 1057.48 1092.51 1057.19 1093.67
  Z"
/>
<ellipse fill="#000000" fill-opacity="0.765" cx="0.00" cy="0.00" transform="translate(730.85,1112.99) rotate(1.1)" rx="1.31" ry="0.29"/>
<path fill="#000000" fill-opacity="0.765" d="
  M 917.17 1177.01
  Q 944.69 1198.37 976.76 1211.70
  C 988.53 1216.60 1001.05 1220.35 1013.56 1223.41
  C 1018.00 1224.50 1022.34 1225.21 1027.07 1226.19
  Q 1032.35 1227.28 1037.63 1228.33
  Q 1039.36 1228.67 1043.43 1228.89
  C 1046.14 1229.03 1048.74 1229.86 1051.20 1229.96
  Q 1055.22 1230.13 1059.56 1230.11
  A 0.81 0.80 -88.0 0 1 1060.37 1230.98
  L 1060.34 1231.27
  Q 1060.24 1232.37 1059.14 1232.37
  Q 1040.13 1232.32 1032.75 1230.75
  C 1029.72 1230.11 1026.34 1229.82 1024.36 1229.45
  C 992.26 1223.50 961.77 1211.87 935.48 1194.75
  Q 922.83 1186.52 918.39 1182.36
  Q 916.34 1180.44 915.67 1180.07
  Q 915.67 1178.82 917.17 1177.01
  Z"
/>
<path fill="#ffc4ff" d="
  M 65.25 1333.26
  C 65.10 1351.43 64.75 1364.98 71.80 1380.84
  Q 66.60 1377.83 62.76 1373.84
  C 58.91 1359.09 59.74 1346.05 59.74 1331.80
  Q 59.72 1331.66 59.75 1331.54
  Q 59.87 1331.05 60.35 1331.18
  L 64.36 1332.23
  Q 64.81 1332.34 65.00 1332.76
  L 65.25 1333.26
  Z"
/>
</svg>
